<?xml version="1.0" standalone="no"?>
<!DOCTYPE svg PUBLIC "-//W3C//DTD SVG 1.1//EN" "http://www.w3.org/Graphics/SVG/1.1/DTD/svg11.dtd" >
<svg xmlns="http://www.w3.org/2000/svg">
<metadata></metadata>
<defs>
<font id="folksbold" horiz-adv-x="587" >
<font-face units-per-em="2048" ascent="1638" descent="-410" />
<missing-glyph horiz-adv-x="500" />
<glyph horiz-adv-x="2048" />
<glyph horiz-adv-x="2048" />
<glyph horiz-adv-x="682" />
<glyph horiz-adv-x="835" d="M10 1397q0 -57 43 -98.5t104.5 -67t128 -37.5t111.5 -12t113 12t131.5 37.5t108.5 66t45 97.5q0 47 -27 84t-76 37q-8 0 -18 -2.5t-21 -10.5q-47 -33 -106.5 -59.5t-134.5 -26.5q-59 0 -107.5 15.5t-85.5 35t-63.5 35t-44.5 15.5q-45 0 -73 -40t-28 -81z" />
<glyph />
<glyph horiz-adv-x="479" d="M14 1378q0 -43 18.5 -78.5t49.5 -61.5t69.5 -39t79.5 -13t80 14t69 39t48 60.5t18 78.5t-18 79t-49 60.5t-70 39t-80 14.5t-79.5 -13.5t-68.5 -39t-48.5 -61.5t-18.5 -79zM164 1378q0 29 20.5 47.5t46.5 18.5q27 0 45.5 -20.5t18.5 -47.5q0 -25 -18.5 -44t-43.5 -19 q-29 0 -49 17.5t-20 47.5z" />
<glyph unicode="&#xa;" horiz-adv-x="919" d="M55 432q37 -47 76 -80l125 119q82 -63 190 -63q102 0 189 63l119 -121q20 18 40.5 38t36.5 42l-118 117q63 86 63 192q0 109 -61 195l119 110q-16 23 -37 45.5t-43 38.5h2l-121 -122q-84 61 -189 61q-106 0 -192 -63l-123 122q-20 -18 -37.5 -38.5t-34.5 -43.5l117 -114 q-59 -84 -59 -191q0 -102 59 -190zM227 737q0 45 17.5 84t47.5 69t69.5 47t84.5 17q92 0 155 -62.5t63 -154.5t-62.5 -154.5t-155.5 -62.5q-45 0 -84.5 17.5t-69.5 47t-47.5 68.5t-17.5 84z" />
<glyph />
<glyph horiz-adv-x="817" d="M10 1419q0 -35 18.5 -64.5t51.5 -41.5l254 -103q16 -4 31.5 -10t31.5 -6t31.5 6t32.5 12l246 99q33 12 52 41.5t19 64.5q0 49 -33.5 83t-80.5 34q-23 0 -59 -12.5t-76 -28.5t-76.5 -33.5t-57.5 -25.5q-20 8 -57 25.5t-78 33.5t-79 29.5t-58 13.5q-47 0 -80 -35t-33 -82z " />
<glyph unicode="&#xd;" horiz-adv-x="471" d="M70 0h315v958q0 31 -12.5 60t-34 50.5t-49 34.5t-60.5 13q-66 0 -112.5 -45t-46.5 -113v-958z" />
<glyph horiz-adv-x="843" d="M-14 57q0 -6 22.5 -24.5t52 -38t56 -34.5t35.5 -15q10 0 27.5 23.5t21.5 33.5l616 1354q12 24 12 53q0 47 -31.5 82t-78.5 35q-31 0 -58.5 -16.5t-39.5 -45.5l-623 -1374q-2 -4 -7 -16.5t-5 -16.5z" />
<glyph horiz-adv-x="946" d="M39 375l174 -174l31 28l227 222l188 -191q16 -18 41 -27.5t52 -9.5q51 0 86.5 36t35.5 89q0 25 -12 47q-4 16 -33.5 50t-66.5 71t-70 67.5t-45 43.5l193 192q37 37 37 88q0 53 -36 90t-89 37q-23 0 -47 -14q-16 -4 -50 -34t-71 -65.5t-69 -68.5t-44 -45l-190 192 q-38 37 -91 37t-88.5 -36.5t-35.5 -88.5q0 -53 36 -90l193 -192l-227 -221z" />
<glyph />
<glyph />
<glyph />
<glyph />
<glyph />
<glyph unicode=" " />
<glyph unicode="!" horiz-adv-x="497" d="M61 143q0 -74 53.5 -125t127.5 -51t126 52t52 126q0 76 -53.5 127.5t-128.5 51.5q-74 0 -125.5 -53.5t-51.5 -127.5zM84 516q0 -25 15.5 -45t39 -35.5t51 -25t52.5 -9.5q23 0 50 9.5t51 25t39 35.5t15 43v954h-313v-59v-893z" />
<glyph unicode="&#x22;" horiz-adv-x="708" d="M57 985h193l63 490h-213zM371 985h192l64 490h-213z" />
<glyph unicode="#" horiz-adv-x="1196" d="M33 485q0 -23 14 -38t37 -15h203q-4 -20 -17.5 -81.5t-27 -129t-24.5 -126t-11 -70.5q0 -23 14.5 -36.5t36.5 -13.5q25 0 43 18.5t23 41.5l86 399h206q-4 -18 -18 -81.5t-29.5 -133t-28 -128t-12.5 -68.5q0 -20 14.5 -34t32.5 -14q29 0 49.5 15.5t26.5 42.5l86 399h207 q31 0 53.5 21.5t22.5 52.5q0 20 -15.5 35.5t-37.5 15.5h-205l78 363h202q29 0 54.5 19t25.5 50q0 23 -15 39t-38 16l-205 -4l92 416h-125l-88 -416h-204l90 416h-125l-88 -416l-199 4q-29 0 -53.5 -19t-24.5 -50q0 -23 15.5 -39t38.5 -16h196l-76 -365h-204 q-29 0 -52.5 -19.5t-23.5 -50.5zM434 555l78 365h205l-76 -365h-207z" />
<glyph unicode="$" horiz-adv-x="1071" d="M-16 135q45 -37 104 -64.5t123.5 -47t131.5 -29.5t126 -10v-158h76v160q96 4 187 44t162 106.5t113 154.5t42 188t-42 172t-109 121t-148.5 82t-163.5 57q-10 4 -20.5 6.5t-20.5 6.5l2 280q33 -6 68.5 -19.5t70.5 -26.5t67.5 -24.5t57.5 -11.5q59 0 98 41t39 101 q0 45 -41 81.5t-97 62.5t-115.5 43t-96.5 25.5t-41 8.5q0 4 -2 23.5t-5 45t-5 29.5v27q0 16 -3 31.5t-11.5 25.5t-24.5 10q-29 0 -33 -32q-4 -6 -5 -30t0 -50.5t2 -50t1 -27.5q-88 -4 -173 -39t-152.5 -93.5t-109.5 -138t-42 -172.5q0 -76 25.5 -134t68.5 -103t100.5 -77 t122.5 -54q41 -14 80 -25.5t78 -21.5v-350l-12 -3q-47 0 -94.5 11.5t-94.5 30t-91 41t-83 42.5zM322 1087q2 27 19 61t40 50q33 23 48 22l46 -1q0 -2 -2 -15.5t-3 -30t1 -16.5v-213q-23 8 -49.5 21.5t-49 30t-36.5 39t-14 52.5zM545 279v329q27 -10 56.5 -21.5t53 -28.5 t39 -41.5t15.5 -57.5q0 -68 -50.5 -118t-113.5 -62z" />
<glyph unicode="%" horiz-adv-x="1345" d="M8 1143q0 -66 20.5 -129.5t58.5 -115.5t94.5 -84t127.5 -32q74 0 130.5 33t94 86t58 118.5t20.5 131.5t-19.5 130.5t-58 114.5t-94 81.5t-127.5 31.5q-74 0 -130 -32.5t-95 -85t-59.5 -118t-20.5 -130.5zM203 1145q0 25 6 50.5t19.5 47t33.5 35.5t49 14t48.5 -13 t31.5 -34.5t18.5 -46t6.5 -49.5t-6.5 -51.5t-18.5 -49t-32.5 -38t-49.5 -15.5t-48 14.5t-32.5 37t-19.5 49t-6 49.5zM231 78l185 -113l12 23l16 32l600 1317q4 12 8.5 25t4.5 27q0 47 -31 79.5t-78 32.5q-31 0 -57.5 -15.5t-38.5 -43.5l-608 -1333q-2 -4 -8 -17zM690 326 q0 -66 19.5 -130.5t58.5 -115.5t95.5 -83t127.5 -32q74 0 130.5 33t94 85t57 117.5t19.5 131.5t-19.5 129t-57 112.5t-93 80t-127.5 30.5t-129 -31.5t-96 -82t-59.5 -115t-20.5 -129.5zM885 326q0 25 6 50t18.5 46.5t32.5 36t51 14.5q57 0 83 -45t26 -94q0 -27 -5 -54.5 t-18.5 -50t-35 -37t-52.5 -14.5q-29 0 -49 13.5t-32.5 35t-18.5 48t-6 51.5z" />
<glyph unicode="&#x26;" horiz-adv-x="1456" d="M23 444q0 -115 45 -202.5t120.5 -148t174 -92.5t202.5 -32q125 0 228.5 50.5t193.5 125.5q8 -8 41 -39.5t70 -67.5t70.5 -66.5t43.5 -39.5q35 -27 83 -14.5t75 53.5q16 25 12 53.5t-18 54t-31.5 47t-29.5 32.5l-168 186l125 148q8 10 27.5 33.5t40 47t35.5 41.5l15 19 l-153 162l6 -13q-12 0 -33.5 -18.5t-43 -42t-40 -46t-24.5 -30.5q-4 -8 -16.5 -21.5t-27 -26.5t-26.5 -26.5t-19 -21.5l-264 256l27 13t61.5 36t71.5 55.5t57 71.5q49 90 54.5 170t-33.5 170q-39 92 -137.5 138t-210.5 46q-78 0 -156 -20.5t-140.5 -63.5t-102.5 -108.5 t-40 -153.5q0 -78 38 -144.5t87 -123.5q-61 -35 -113.5 -82t-92 -104.5t-62 -123t-22.5 -137.5zM346 463q0 72 47 131t111 90l287 -326q-41 -45 -100.5 -77.5t-123.5 -32.5q-43 0 -83 17.5t-70.5 46t-49 68.5t-18.5 83zM526 1159q0 49 38 75t81 26q45 0 82 -30t37 -77 q0 -25 -12.5 -48.5t-32 -43t-42 -34.5t-40.5 -28q-14 14 -33.5 33t-36 38.5t-29 42t-12.5 46.5z" />
<glyph unicode="'" horiz-adv-x="385" d="M57 985h193l63 490h-213z" />
<glyph unicode="(" horiz-adv-x="462" d="M18 745l2 3q0 -63 7.5 -152.5t23.5 -187.5q10 -70 25.5 -159t40 -171t60.5 -144.5t85 -78.5q8 -2 14.5 -4.5t14.5 -2.5q25 0 48 9.5t41.5 27t31 40t12.5 46.5q0 35 -9 69t-20 69q-45 158 -75.5 315.5t-30.5 323.5q0 84 11 189t32 202q10 47 21.5 101t23.5 108.5 t24.5 104.5t26.5 87q2 0 -33 8t-78 19.5t-79 19.5l-35 8q-20 -53 -42 -113.5t-41.5 -125t-35.5 -129t-29 -123.5q-16 -88 -26.5 -177t-10.5 -182z" />
<glyph unicode=")" horiz-adv-x="448" d="M8 1495q2 -20 9.5 -41.5t15.5 -44.5q25 -80 47 -172t38.5 -186.5t26 -183.5t9.5 -162q0 -119 -15.5 -249t-48.5 -245q-8 -29 -17.5 -65.5t-18.5 -75.5t-18 -77t-18 -65q0 -8 31 -21t68 -26.5t69 -22.5l31 -10l23 50q22 51 52 124.5t57.5 160.5t39.5 161q16 111 25.5 209 t9.5 164q0 84 -8 166t-25 164q-12 61 -27.5 138t-40 153.5t-58.5 143t-79 105.5q-2 2 -12 6t-23.5 8.5t-29 5.5t-29.5 -3q-39 -10 -63.5 -41t-20.5 -68z" />
<glyph unicode="*" horiz-adv-x="804" d="M31 948q0 -8 19.5 -16t44 -15.5t47 -12.5t30.5 -5t30.5 16.5t46 36t44 38t29.5 24.5q-4 -8 -10.5 -36t-12.5 -60.5t-10 -61.5t-4 -37q0 -12 11 -24.5t26.5 -20.5t34 -13t30.5 -5t30.5 5t35 13t28 20.5t11.5 24.5q0 8 -5.5 37t-11.5 61.5t-12 60.5t-8 36q6 -6 27.5 -24.5 t45 -38t45 -36t31.5 -16.5q6 0 29.5 7t48.5 16.5t44 17.5l19 8l-11 16q-11 17 -26.5 36.5t-28.5 37t-20 19.5l-145 69l154 66q6 2 25.5 28.5t33.5 49t16 26.5q-4 2 -31.5 14.5t-62.5 27t-45 14.5q-4 0 -16 -8l-13 -7l-126 -100q10 41 27.5 88t17.5 90q0 41 -35 64.5 t-72 23.5q-35 0 -69.5 -23.5t-34.5 -64.5q0 -43 16 -90t27 -88l-127 100l-11 7q-12 8 -18 8q-8 0 -30.5 -6.5t-47 -14.5t-43 -17t-18.5 -18q0 -4 10 -20t23.5 -34.5t26.5 -34t18 -17.5l153 -66l-147 -67q-6 -2 -19.5 -17.5t-28 -34t-25.5 -35t-11 -22.5z" />
<glyph unicode="+" horiz-adv-x="1024" d="M-6 586h354v-275q0 -27 10.5 -49t26.5 -39q37 -37 90 -37q51 0 86 35q39 35 39 90v273h66q49 0 103 1t100 7t63 18q25 18 43 42t18 57q0 31 -18.5 55t-42.5 43q-16 12 -62.5 18t-100.5 7.5t-103 1.5h-66v272q0 51 -37 89t-88 38q-53 0 -90 -37t-37 -90v-268h-354v-252z " />
<glyph unicode="," horiz-adv-x="499" d="M0 -176q0 -59 42 -104.5t103 -45.5q43 0 82 25t58 63l198 426l-280 131l-191 -430q-8 -16 -10 -32.5t-2 -32.5z" />
<glyph unicode="-" horiz-adv-x="829" d="M23 643q-4 -27 3 -53.5t20 -48t32.5 -35.5t38.5 -14h596l-2 264h-523q-18 0 -45.5 -7.5t-52 -20.5t-44 -34.5t-23.5 -50.5z" />
<glyph unicode="." horiz-adv-x="466" d="M-12 145q0 -37 14 -69.5t40 -56t58.5 -38t69.5 -14.5t68.5 14.5t56 38t39 56t14.5 69.5q0 74 -53 126.5t-127 52.5t-127 -52.5t-53 -126.5z" />
<glyph unicode="/" horiz-adv-x="886" d="M8 70q0 -41 11.5 -65.5t33 -37t51 -15.5t66.5 -3q8 0 41 60.5t76 150.5t91 197.5t89 200.5t68.5 158.5t31.5 74.5q0 2 2 4l21 52q22 52 53 128t66.5 165t66.5 165.5t51.5 128t20.5 53.5q0 6 -36 23.5t-79 36t-79 31.5l-36 13q0 -2 -6 -13t-14 -27.5t-10 -22.5l-557 -1385 q-4 -8 -13.5 -35.5t-9.5 -37.5z" />
<glyph unicode="0" horiz-adv-x="1204" d="M14 737h2q0 -86 14.5 -178t47.5 -179t84 -163t123 -131q63 -47 137 -75.5t160 -28.5q88 0 162.5 28.5t138.5 75.5q72 55 123 132t82.5 165t46 181t14.5 181q0 86 -15.5 178.5t-48 179.5t-84 162.5t-122.5 129.5q-63 47 -137 73.5t-160 26.5t-160 -27.5t-137 -74.5 q-74 -55 -125 -132t-83 -164t-47.5 -179.5t-15.5 -180.5zM328 737q0 57 10 138t39 157t78 129t127 53q80 0 129 -53t77.5 -128t39 -156t10.5 -138q0 -59 -10.5 -142t-38 -159t-77.5 -129t-130 -53t-130.5 53t-78 128t-36.5 158t-9 142z" />
<glyph unicode="1" horiz-adv-x="800" d="M72 1333q0 -59 43 -101t102 -42h158v-1190h325v1317q0 68 -41 113t-112 45h-332q-59 0 -101 -41t-42 -101z" />
<glyph unicode="2" horiz-adv-x="1187" d="M59 1051q0 -68 39 -115t111 -47q39 0 70 26q10 8 16 19.5t14 21.5q25 43 47.5 88.5t52 82t69.5 60t100 23.5q59 0 105 -37.5t46 -99.5q0 -37 -25.5 -89t-63.5 -108.5t-81 -109.5t-78 -94q-10 -12 -29.5 -37t-45 -57.5t-53 -66.5t-50 -62.5t-38 -48t-17.5 -21.5 q-35 -35 -70 -73t-69 -75q-16 -20 -27.5 -43.5t-11.5 -52.5q0 -70 52 -102.5t114 -32.5h849v287h-520q59 66 119.5 137.5t120.5 148.5q41 53 86 115t82 126.5t61.5 131t24.5 133.5q0 98 -41 176t-108.5 130.5t-154.5 80t-177 27.5q-217 0 -373 -141q-59 -55 -102.5 -132 t-43.5 -169z" />
<glyph unicode="3" horiz-adv-x="1202" d="M66 344q0 -27 7 -52.5t17 -47.5q29 -63 81 -112.5t116.5 -83.5t135.5 -51t136 -17q100 0 196.5 34.5t172.5 97t122 151t46 194.5q0 119 -63.5 208t-170.5 140q72 53 111 135t39 170t-36 159.5t-95.5 121t-137 76t-161.5 26.5q-152 0 -261.5 -64.5t-201.5 -164.5l2 -2 t2 -5q2 0 7 -7t11 -15t11.5 -16.5t7.5 -8.5q2 -2 20.5 -26.5t39 -54t37.5 -53t19 -23.5l3 -2q14 23 51 50t80 51t85 39t70 15q57 0 97 -40t40 -97q0 -18 -8 -33.5t-14 -25.5q-35 -45 -86 -67.5t-97 -42t-75 -46.5t-16 -78q-4 -4 -1 -13t7 -13q6 -35 24.5 -51.5t40.5 -30.5 q45 -29 95.5 -44.5t93.5 -35t71.5 -50t28.5 -87.5q0 -84 -58.5 -133.5t-138.5 -49.5q-76 0 -122 35t-80.5 78t-68.5 78t-85 35q-61 0 -104 -45.5t-43 -104.5z" />
<glyph unicode="4" horiz-adv-x="1245" d="M12 473q0 -41 16.5 -68.5t42 -44t58.5 -23.5t68 -7h477v-332h319v332q33 0 69 6t63.5 22.5t46 43t18.5 67.5t-17.5 67.5t-45 43t-62.5 23.5t-68 7v613q0 57 -12 106t-38.5 86t-72 57.5t-108.5 20.5q-72 0 -120 -34t-87 -93l-506 -786q-16 -23 -28.5 -50.5t-12.5 -56.5z M344 612l330 557l-2 -557h-328z" />
<glyph unicode="5" horiz-adv-x="1163" d="M49 244q0 -43 24.5 -80t62.5 -65.5t83 -50t86 -34.5q59 -18 119.5 -27.5t114.5 -9.5q174 0 303 85t192 243q20 47 29.5 100.5t9.5 106.5q0 90 -30.5 170t-86 139.5t-133.5 94t-170 34.5q-41 0 -83 -6t-81 -20l46 262h466l52 289h-631q-66 0 -107 -33t-51 -99l-86 -536 q-2 -10 -3 -21.5t-1 -21.5q0 -51 38 -89t89 -38q27 0 55.5 10t58 21.5t60.5 21.5t66 10q90 0 145 -55t55 -147q0 -43 -15 -84t-43 -73t-66.5 -51.5t-84.5 -19.5q-53 0 -99 18.5t-88 40t-79 40t-67 18.5q-59 0 -104.5 -40t-45.5 -103z" />
<glyph unicode="6" horiz-adv-x="1175" d="M53 502q0 -115 38 -211t107.5 -166t165 -109t209.5 -39q111 0 205 40t162 110t105.5 165t37.5 206q0 86 -25.5 163.5t-72.5 138t-117.5 99.5t-158.5 47q-45 4 -87 -1t-83 -17q25 47 58.5 103t75.5 116.5t90 122t97 119.5q-4 2 -43 20t-84 42t-83 43t-40 24 q-51 -66 -102 -129.5t-102 -128.5q-29 -35 -56.5 -72t-52.5 -72q-49 -68 -93 -140.5t-78 -149t-53.5 -158.5t-19.5 -166zM377 492q0 41 12 79.5t36 68.5t58.5 47.5t79.5 17.5t81 -18.5t60.5 -49.5t38 -71t13.5 -83t-13.5 -80.5t-38 -67.5t-60.5 -47.5t-81 -17.5t-79.5 19.5 t-58.5 50.5t-36 71t-12 81z" />
<glyph unicode="7" horiz-adv-x="1189" d="M47 1188h668l-512 -973q-8 -16 -14.5 -35.5t-6.5 -40.5q0 -66 47 -109.5t113 -43.5q47 0 88 23.5t64 66.5l589 1192q17 28 17 63q0 66 -48 104t-110 38l-895 2v-287z" />
<glyph unicode="8" horiz-adv-x="1220" d="M61 461q0 -113 42 -202t115 -150.5t168 -94t202 -32.5q106 0 201.5 32.5t168 94t115.5 150.5t43 202q0 55 -14.5 110.5t-43 103.5t-71.5 84t-100 54q70 49 111.5 127t41.5 164q0 68 -22.5 128t-61.5 109q-63 82 -160.5 119t-201.5 37q-109 0 -209 -37t-166 -121 q-39 -49 -61.5 -109.5t-22.5 -125.5q0 -90 42 -164t112 -127q-55 -18 -98.5 -54t-72 -84t-43 -103.5t-14.5 -110.5zM387 489q0 86 55.5 147.5t145.5 61.5q43 0 80 -16t64.5 -44t43 -65.5t15.5 -80.5t-14.5 -83t-41 -71t-64.5 -49.5t-83 -18.5t-82 18.5t-63.5 49.5t-41 69.5 t-14.5 81.5zM434 1085q0 63 44 108.5t110 45.5q63 0 109 -44t46 -110q0 -63 -44 -111t-109 -48q-66 0 -111 46.5t-45 112.5z" />
<glyph unicode="9" horiz-adv-x="1187" d="M59 963q0 -88 26 -164t73 -133.5t114.5 -93t151.5 -46.5q94 -10 182 15q-53 -78 -110.5 -152t-116.5 -145q-6 -8 -21.5 -24.5t-32 -35t-29.5 -37t-20 -26.5l140 -111q2 0 13 -11l23.5 -23.5l22.5 -22.5t12 -8q18 20 74.5 77.5t122.5 127t126 140t91 118.5 q78 127 133.5 269t55.5 292q0 115 -38 211t-106.5 165.5t-165 108.5t-211.5 39t-209 -41t-160.5 -111.5t-103.5 -168t-37 -209.5zM387 985q0 43 13.5 82t38 68.5t60.5 48t81 18.5q43 0 77.5 -18.5t59 -49t38 -69.5t13.5 -80q0 -43 -11.5 -83t-35 -70.5t-59 -49t-82.5 -18.5 t-83 18.5t-60.5 49t-37 70.5t-12.5 83z" />
<glyph unicode=":" horiz-adv-x="468" d="M45 145q0 -37 14.5 -69.5t40 -56t58 -38t69.5 -14.5t69 14.5t56.5 38t39 56t14.5 69.5q0 74 -53.5 126.5t-127.5 52.5t-127 -52.5t-53 -126.5zM45 834q0 -74 52.5 -126.5t125.5 -52.5q74 0 127 52.5t53 126.5q0 76 -53 127t-127 51q-37 0 -68.5 -13.5t-56 -38t-39 -57.5 t-14.5 -69z" />
<glyph unicode=";" horiz-adv-x="495" d="M-12 -174q0 -61 42 -106.5t105 -45.5q43 0 82 25t57 63l215 445l-280 131l-207 -449q-14 -33 -14 -63zM113 836q0 -78 54 -129.5t130 -51.5q37 0 68.5 14.5t55 39t38 57.5t14.5 70q0 74 -52 127t-126 53q-76 0 -129 -52.5t-53 -127.5z" />
<glyph unicode="&#x3c;" horiz-adv-x="999" d="M51 737l864 -481v240l-460 241l460 244v240z" />
<glyph unicode="=" horiz-adv-x="1208" d="M63 406h912q51 0 89 34.5t38 87.5t-37 90t-90 37h-912v-249zM63 754h912q51 0 89 35t38 88t-37 90t-90 37h-912v-250z" />
<glyph unicode="&#x3e;" horiz-adv-x="931" d="M18 254l865 483l-865 484v-242l461 -242l-461 -243v-240z" />
<glyph unicode="?" horiz-adv-x="978" d="M-4 1186q0 -55 33.5 -98.5t93.5 -43.5q41 0 63.5 20.5t42.5 47.5l2 2q41 53 98.5 84t129.5 31q66 0 116 -36t50 -108q0 -49 -23.5 -76.5t-59.5 -45t-77 -28.5t-77 -27.5t-59.5 -43t-23.5 -73.5v-390l86 2h227l-2 316q72 14 132.5 47t105.5 81t69.5 111.5t24.5 139.5 q0 104 -42 181t-111.5 129t-158.5 77.5t-183 25.5q-45 0 -95.5 -9t-98.5 -26.5t-93 -44t-82 -63.5t-62.5 -83t-25.5 -99zM281 143q0 -74 53 -125t127 -51t126 51.5t52 126.5q0 76 -52 127.5t-128 51.5v-2q-74 0 -126 -52.5t-52 -126.5z" />
<glyph unicode="@" horiz-adv-x="1445" d="M-53 418q0 -154 55 -293t152.5 -244.5t231.5 -168t292 -62.5v104h-16q-12 0 -33 2t-31 6q-180 29 -292.5 132.5t-178.5 275.5q-43 113 -43 240q0 135 45 254.5t128 211t196.5 144.5t253.5 53q115 0 209 -39t161.5 -109.5t104.5 -166.5t37 -209q0 -47 -7.5 -98.5 t-22.5 -102.5t-38 -97t-55 -81q-27 -29 -62 -60.5t-78 -31.5q-47 0 -66.5 34.5t-19.5 75.5q0 61 10.5 125t20.5 123q18 109 37.5 215.5t40.5 214.5h-107l-16 -106q-18 59 -71.5 91t-112.5 32q-94 0 -165 -55.5t-118 -136.5t-70.5 -175t-23.5 -174q0 -59 14.5 -121.5t45 -114 t79.5 -83t121 -31.5q74 0 130 45t83 110q-2 -37 11.5 -68.5t38 -53t56 -33.5t68.5 -12q98 0 172 59t124 147t74.5 188.5t24.5 182.5q0 137 -48 252t-134 199t-202.5 131t-252.5 47q-162 0 -299 -60.5t-238.5 -164t-158.5 -243.5t-57 -300zM422 305q0 55 13.5 137t44 160 t79.5 133.5t121 55.5q68 0 100.5 -50.5t32.5 -109.5q0 -41 -10 -113t-29.5 -147.5t-48.5 -144t-68 -105.5q-18 -16 -41.5 -27.5t-50.5 -11.5q-45 0 -73.5 21.5t-44 54t-20.5 71.5t-5 76z" />
<glyph unicode="A" horiz-adv-x="1335" d="M-49 133q0 -68 48 -112t114 -44q29 0 52 12.5t40 30.5q14 6 33.5 39t38 73t34 78t21.5 56h588l100 -301l319 84l-471 1256q-33 86 -92 135t-155 49q-90 0 -149.5 -52.5t-90.5 -131.5l-412 -1086q-8 -20 -13 -41.5t-5 -44.5zM424 547l201 600l198 -600h-399z" />
<glyph unicode="B" horiz-adv-x="1214" d="M45 -2q47 2 131 2h176h176h134q96 0 181 31.5t148.5 89t100 138.5t36.5 181q0 98 -45 181.5t-127 130.5q-16 10 -45.5 22t-46.5 17q70 45 106 115.5t36 156.5q0 96 -39 173t-103.5 130t-148.5 81t-174 28h-328q-72 0 -120 -47.5t-48 -118.5v-1311zM371 283v342h254 q35 0 66.5 -13.5t56 -37t39 -54.5t14.5 -67q0 -37 -14.5 -68t-39 -53.5t-57.5 -35.5t-67 -13h-252zM373 893v299h155q31 0 60.5 -11.5t52.5 -31t37 -46t14 -59.5q0 -35 -15 -62.5t-40 -48t-55.5 -30.5t-63.5 -10h-145z" />
<glyph unicode="C" horiz-adv-x="1261" d="M6 733q0 -123 38 -237.5t103 -210.5q98 -145 251 -223t341 -78q47 0 100.5 6t106.5 20.5t102.5 37t88.5 54.5q29 25 52 59t23 79q0 59 -41 99t-100 40q-33 0 -67.5 -15.5t-77.5 -34t-94.5 -33.5t-114.5 -15q-96 0 -169 38.5t-121 102t-71.5 146.5t-23.5 173 q0 84 23.5 161t68.5 137.5t109.5 101.5t148.5 57q31 6 66 6q96 0 174.5 -34.5t150.5 -92.5l115 232q-43 37 -102.5 69.5t-127 57t-136 39t-128.5 14.5h-22t-23 -2q-145 -14 -263 -80t-203 -167t-131 -232t-46 -275z" />
<glyph unicode="D" horiz-adv-x="1353" d="M25 162q0 -70 49 -116t119 -46h382q162 0 293 57.5t223.5 157.5t142.5 236t50 294q0 41 -3 81t-11 81q-29 135 -93.5 240.5t-159.5 178.5t-215 111t-259 38h-111h-149h-150t-108 2v-1315zM350 283v907h189q96 0 172.5 -35t131 -96.5t83 -143t28.5 -174.5 q0 -94 -26.5 -177t-78.5 -145.5t-128 -99t-176 -36.5h-195z" />
<glyph unicode="E" horiz-adv-x="991" d="M43 168q0 -33 12.5 -63.5t34 -53t51 -37t64.5 -14.5h708v287h-544v309h338q59 0 103 40t44 101q0 59 -41 97q-23 20 -50.5 32.5t-60.5 12.5h-333v309h374q59 0 101.5 42t42.5 101t-41 101.5t-101 42.5h-315h-65h-129q-70 0 -128.5 1t-64.5 1v-1309z" />
<glyph unicode="F" horiz-adv-x="925" d="M39 0h328v582h331q59 0 102.5 40t43.5 99t-43 102t-103 43h-329v322h487v289h-647q-72 0 -121 -47.5t-49 -120.5v-1309z" />
<glyph unicode="G" horiz-adv-x="1507" d="M20 727q0 -166 56.5 -303t157 -235.5t238.5 -152.5t304 -54q152 0 273.5 52t207.5 143t132.5 216.5t46.5 272.5q0 98 -38 151t-143 53h-348q-57 0 -101 -42t-44 -101q0 -61 43 -103t104 -42h191q-10 -63 -37 -121t-69 -102t-100 -69.5t-130 -25.5q-102 0 -180 38 t-131.5 102.5t-80 149.5t-26.5 181q0 92 26.5 178t79 151.5t128 105.5t176.5 40q55 0 101 -11t89 -29.5t84 -42t84 -50.5l129 258q-104 72 -222 114t-245 42q-164 0 -303 -57.5t-239.5 -160t-157 -242.5t-56.5 -304z" />
<glyph unicode="H" horiz-adv-x="1452" d="M61 0h326v612h627v-471q0 -33 13 -61.5t34.5 -50t51.5 -34.5t63 -13q68 0 115.5 46.5t47.5 114.5v1334l-327 -4v-580h-625v434q0 70 -45 115q-45 49 -117 49q-68 0 -116 -48t-48 -116v-1327z" />
<glyph unicode="I" horiz-adv-x="430" d="M45 -2h326v1329q0 66 -47.5 114t-114.5 48q-66 0 -115 -47t-49 -115v-1329zM84 1667q0 -49 35 -83t82 -34t80.5 34t33.5 83q0 47 -34.5 81t-81.5 34t-81 -34t-34 -81z" />
<glyph unicode="J" horiz-adv-x="854" d="M31 72q78 -33 163 -62.5t171 -29.5q104 0 184 35.5t134 98t82 147.5t28 183v883q0 66 -46.5 115t-113.5 49q-68 0 -115 -48t-47 -114v-895q0 -33 -6 -64.5t-20.5 -57t-40 -42t-64.5 -16.5q-23 0 -53.5 9t-64.5 22.5t-65.5 27t-54.5 19.5z" />
<glyph unicode="K" horiz-adv-x="1386" d="M74 0h325v662l582 -625q49 -53 123 -53q66 0 114 44.5t48 112.5q0 63 -45 113l-519 530l523 496l-238 217l-588 -592v424q0 68 -47 116t-114 48q-68 0 -116 -47t-48 -115v-1331z" />
<glyph unicode="L" horiz-adv-x="946" d="M57 92q0 -31 19.5 -50t46.5 -28.5t51.5 -12.5t36.5 -3l645 2l-2 287h-471v1040q0 68 -47 117t-115 49t-116 -49t-48 -117v-1235z" />
<glyph unicode="M" horiz-adv-x="1859" d="M25 139q0 -68 46 -111.5t111 -43.5q63 0 108.5 39.5t55.5 101.5l125 895l274 -918h291l275 918l143 -1036l318 53l-209 1270q-14 86 -77 136t-149 50q-78 0 -134 -45t-79 -119l-235 -805l-234 805q-23 74 -79 119t-134 45q-86 0 -148.5 -50t-76.5 -136l-190 -1129 q-2 -10 -2 -20v-19z" />
<glyph unicode="N" horiz-adv-x="1474" d="M72 0h325v946l666 -903q23 -29 56.5 -45t70.5 -16q70 0 117 46.5t47 114.5v1184q0 33 -13.5 62.5t-35 52t-52 36t-63.5 13.5t-62.5 -13.5t-51 -36t-35 -53t-13.5 -63.5v-788l-655 880q-25 33 -61 54.5t-76 21.5q-70 0 -117 -49t-47 -117v-1327z" />
<glyph unicode="O" horiz-adv-x="1558" d="M39 737q0 -152 53 -289t147.5 -241.5t225.5 -165.5t289 -61q156 0 286.5 61t226 165.5t147.5 242t52 288.5q0 152 -52 289t-146 241.5t-225 166t-287 61.5q-158 0 -289 -61.5t-226.5 -165t-148.5 -240.5t-53 -291zM371 737q0 86 22.5 170t69.5 151.5t118.5 109.5 t168.5 42q100 0 173.5 -42t121 -110.5t70 -155.5t22.5 -175t-25 -171t-73 -147.5t-120.5 -104.5t-168.5 -40t-168 42t-119 109.5t-69.5 151.5t-22.5 170z" />
<glyph unicode="P" horiz-adv-x="1142" d="M8 150q0 -68 48 -117t118 -49q41 0 71.5 23.5t53.5 53.5q14 20 22.5 81t10.5 130.5t2 130.5v86h55h82q45 0 84 1.5t57 3.5q102 6 191.5 43.5t154 101t101.5 151t37 193.5q0 39 -6 80q-25 150 -123.5 247t-235.5 126q-186 41 -385 41l-338 -2v-1325zM336 774v414h229 q43 0 81 -16.5t66.5 -44t45 -65.5t16.5 -81t-16.5 -80t-45 -65.5t-66.5 -45t-81 -16.5h-229z" />
<glyph unicode="Q" horiz-adv-x="1708" d="M55 739q0 -152 52.5 -289t147.5 -241.5t225 -166.5t288 -62q104 0 199.5 31.5t181.5 90.5l246 -247l200 206l-243 240q68 98 98.5 206.5t30.5 227.5q0 152 -52.5 289t-146.5 241.5t-225 166t-289 61.5t-288 -60.5t-225 -164t-147.5 -240.5t-52.5 -289zM385 745 q0 86 23.5 169t71.5 148.5t119 106.5t167 41t169 -40t121 -105.5t71.5 -149.5t23.5 -172q0 -63 -10.5 -122.5t-34.5 -118.5q-10 0 -23.5 7t-30 15t-32.5 12.5t-31 0.5q-20 -4 -35.5 -20.5t-19.5 -37.5q-4 -16 1 -35.5t13 -38t16.5 -34t10.5 -27.5q-84 -80 -205 -80 q-100 0 -173 42t-120 110.5t-69.5 154.5t-22.5 174z" />
<glyph unicode="R" horiz-adv-x="1320" d="M78 145q0 -33 13 -62.5t34.5 -53t51.5 -36.5t65 -13q66 0 113.5 48t47.5 113v465l531 -665l266 180l-428 502q12 2 23.5 4t23.5 6q68 18 126.5 50t101.5 79t67.5 108.5t24.5 141.5q0 109 -39 189.5t-106.5 136t-158 89t-192.5 50.5q-18 2 -61 3h-47h-53q-58 -1 -120.5 -2 t-120 -2t-102.5 -1q-43 0 -61 2v-1332zM403 840v348h232q37 0 69.5 -14.5t56 -39t38 -56t14.5 -68.5q0 -70 -50 -120t-120 -50h-240z" />
<glyph unicode="S" horiz-adv-x="1132" d="M-6 123q49 -25 121.5 -49.5t150.5 -45t152 -33.5t127 -13q137 0 257 53t204 162q45 59 70.5 128.5t25.5 145.5q0 111 -50.5 185.5t-128 124.5t-171 83t-179.5 60q-29 8 -62.5 20t-63 29.5t-49 43t-19.5 62.5q0 31 15.5 54.5t39 41t52 25.5t55.5 8q49 0 93 -13t85 -28.5 t79 -29t74 -13.5q57 0 95.5 42t38.5 98q0 63 -46.5 107t-112 70.5t-137 38t-120.5 11.5q-96 0 -192.5 -28.5t-173.5 -86t-125 -140.5t-48 -189q0 -121 53.5 -194t135.5 -119t177 -74.5t179 -61.5q20 -8 50 -21.5t56.5 -31t46 -40t19.5 -48.5q0 -41 -18.5 -76t-49 -59.5 t-69.5 -38t-78 -13.5q-66 0 -130.5 19.5t-131.5 44.5q-20 6 -51 17t-63 22.5t-59.5 22t-39.5 16.5v-2q-4 -4 -4 -13q-4 -10 -9.5 -28.5t-9.5 -28.5q-4 -16 -13 -46t-18.5 -62.5t-18.5 -62.5t-11 -46z" />
<glyph unicode="T" horiz-adv-x="1054" d="M-2 1475l2 -285h324v-1045q0 -66 48 -113.5t113 -47.5q68 0 115 47t47 114v1045h230q57 0 100 40t43 99t-41 102.5t-102 43.5h-879z" />
<glyph unicode="U" horiz-adv-x="1482" d="M66 592q0 -143 49 -256t136 -191.5t205.5 -120.5t258.5 -42q139 0 258 42t206 120.5t136 191.5t49 256v733q0 68 -48 117t-116 49t-115 -48t-47 -116v-743q0 -147 -88 -235.5t-235 -88.5t-235.5 88t-88.5 236v895h-325v-887z" />
<glyph unicode="V" horiz-adv-x="1218" d="M-66 1380l515 -1276q23 -53 58.5 -88.5t96.5 -35.5q68 0 103.5 32.5t58.5 91.5l461 1162q14 34 14 65q0 33 -13.5 62.5t-37 51t-53 34t-62.5 12.5q-53 0 -93 -32t-58 -81l-316 -899l-370 1016z" />
<glyph unicode="W" horiz-adv-x="1869" d="M-31 1436l279 -1270q18 -86 74.5 -135t148.5 -49q76 0 133.5 43t79.5 116l231 795l232 -795q23 -72 80 -115.5t133 -43.5q92 0 148.5 50t74.5 136l248 1126q4 21 4 33q0 70 -49 117t-117 47q-66 0 -106.5 -42t-53.5 -101l-186 -897l-260 915h-297l-260 -915l-217 1038z " />
<glyph unicode="X" horiz-adv-x="1370" d="M35 143q0 -66 48 -113.5t114 -47.5q45 0 81.5 25.5t61.5 62.5l322 469l321 -469q27 -37 61.5 -62.5t81.5 -25.5q66 0 113 46.5t47 112.5q0 55 -35 103l-403 549l336 434q39 49 39 104q0 63 -48.5 111.5t-111.5 48.5q-47 0 -84 -26.5t-64 -63.5l-256 -361l-329 461 l-248 -201l389 -509l-403 -549q-33 -45 -33 -99z" />
<glyph unicode="Y" horiz-adv-x="1202" d="M-16 1305q0 -4 5 -11.5t7 -11.5l428 -590v-545q0 -68 47 -116.5t117 -48.5q68 0 116 49t48 116v545l397 545q14 20 22.5 42.5t8.5 47.5q0 33 -12.5 61.5t-34 51t-51 36t-62.5 13.5q-43 0 -82 -22.5t-61 -57.5l-291 -428l-348 518z" />
<glyph unicode="Z" horiz-adv-x="1218" d="M-18 152q0 -78 55 -115t125 -37h887q59 0 103 41t44 100t-44 101.5t-103 42.5h-623l674 938q16 25 30.5 51t14.5 59q0 37 -18.5 63.5t-47 44t-63.5 26t-66 8.5h-944v-283h680l-674 -944q-16 -20 -23 -46t-7 -50z" />
<glyph unicode="[" horiz-adv-x="573" d="M27 -37q0 -49 31.5 -86t82.5 -37h359l-2 275l-20 1q-19 1 -46 1q-25 0 -49.5 1t-34.5 1v1239h31q20 0 45 8t46.5 24.5t36.5 38t19 50.5q4 27 -3 54.5t-22.5 50t-36 36.5t-40.5 14h2h-285q-51 0 -82.5 -36.5t-31.5 -86.5v-1548z" />
<glyph unicode="\" horiz-adv-x="630" d="M70 1475l260 -1475h211l-258 1475h-213z" />
<glyph unicode="]" horiz-adv-x="585" d="M25 1495q0 -68 49 -103.5t110 -35.5q4 -2 18.5 0t18.5 2v-1241h-162v-277h369q51 0 83 38t32 85v1548q0 47 -32 85t-83 38h-264q-57 0 -98 -41t-41 -98z" />
<glyph unicode="^" horiz-adv-x="1079" d="M37 330h244l239 461l244 -461l242 2l-486 862z" />
<glyph unicode="_" horiz-adv-x="792" d="M12 -393v-72h740v72h-740z" />
<glyph unicode="`" />
<glyph unicode="a" horiz-adv-x="1232" d="M55 545q0 -113 36 -214.5t102.5 -179t162 -123.5t211.5 -46q88 0 162 36.5t121 114.5l-1 -17q-1 -18 -1 -40q0 -23 1 -45.5t1 -34.5h285v967q0 53 -28 92t-83 43q-15 2 -30 2q-20 0 -40 -3q-36 -5 -77 -32q-41 -25 -53 -53l-11 -29l-37 19q-37 20 -95 38.5t-133 27.5 q-25 3 -50 3q-50 0 -99 -12q-82 -23 -145.5 -73t-107.5 -118.5t-67.5 -152.5t-23.5 -170zM373 547q0 51 13 104.5t42 96.5t73 69.5t105 26.5t104.5 -25.5t70 -66.5t38.5 -92.5t12 -104.5q0 -55 -11 -109.5t-38.5 -98.5t-71.5 -71.5t-108 -27.5q-61 0 -104 26.5t-71 69.5 t-41 96.5t-13 106.5z" />
<glyph unicode="b" horiz-adv-x="1132" d="M8 141q0 -72 42 -116.5t116 -44.5q66 0 91.5 44t31.5 97q53 -72 129 -105.5t164 -33.5q119 0 213 48t158.5 129t98 185t33.5 215q0 109 -34.5 209t-99 178t-158 125t-207.5 47q-72 0 -140.5 -25.5t-121.5 -72.5v545h-316v-1424zM313 549q0 53 12.5 105.5t40 93t70.5 66.5 t105 26q61 0 104 -26t70.5 -67.5t40 -94t12.5 -103.5t-12.5 -103.5t-39 -95.5t-69.5 -69.5t-102 -26.5q-63 0 -107.5 24.5t-72 66.5t-40 95.5t-12.5 108.5z" />
<glyph unicode="c" horiz-adv-x="958" d="M0 549q0 -121 41 -223.5t114.5 -179t174 -119.5t221.5 -43q2 -2 6 -2q6 0 8 2q47 0 108.5 7t117 28.5t94.5 60.5t39 100q0 53 -41 94t-97 41q-20 0 -46.5 -8t-57.5 -17t-62.5 -16.5t-62.5 -7.5q-57 0 -101 25.5t-75 65.5t-46.5 91.5t-15.5 102.5q0 55 16.5 105.5t47.5 88 t77 60t105 22.5q66 0 134.5 -25.5t131.5 -45.5q4 25 15.5 61.5t24 76.5t22.5 77t12 61q-76 37 -147.5 55.5t-157.5 18.5q-150 0 -277.5 -52.5t-211.5 -168.5q-49 -70 -80 -157t-31 -179z" />
<glyph unicode="d" horiz-adv-x="1173" d="M27 555q0 -106 34.5 -208.5t99 -183.5t157 -130t206.5 -49q88 0 167 36.5t132 108.5q4 -55 32 -101t95 -46q72 0 114 44.5t42 116.5v1424h-315v-553q-104 104 -256 104q-117 0 -211.5 -46t-160 -125t-101 -180t-35.5 -212zM342 551q0 51 14.5 102.5t43 92t71.5 66.5 t102 26q63 0 107.5 -28t70 -71t37 -97.5t11.5 -109.5q0 -53 -14.5 -102t-42 -87t-71.5 -61.5t-102 -23.5q-59 0 -102 26.5t-70.5 67.5t-41 93.5t-13.5 105.5z" />
<glyph unicode="e" horiz-adv-x="1191" d="M35 551q0 -129 45 -233.5t125 -179.5t187.5 -115.5t232.5 -40.5q78 0 148.5 13t141.5 42l-43 242q-55 -12 -111 -23.5t-112 -11.5q-104 0 -180 59t-98 158h598q72 0 109.5 25.5t37.5 103.5q0 106 -43 201.5t-114.5 167t-168 113.5t-200.5 42q-119 0 -220.5 -44t-176 -120 t-116.5 -178t-42 -221zM371 639q6 45 21.5 87t41 75t63.5 52t89 19q47 0 84 -20.5t62.5 -53t40.5 -74.5t18 -85h-3h-417z" />
<glyph unicode="f" horiz-adv-x="677" d="M-39 969q0 -37 16.5 -64.5t42 -45t58.5 -26t63 -8.5q2 -2 5.5 -1t5.5 1v-1286h313v1286q33 0 69.5 5.5t67.5 20.5t51.5 42t20.5 68q0 43 -20.5 69.5t-51.5 43t-67.5 22.5t-69.5 6v160q0 25 19.5 37t41.5 16h13q54 0 101 29q54 32 54 104q0 37 -17.5 65.5t-45 47t-62 27.5 t-67.5 9h-88q-109 0 -169.5 -63.5t-74.5 -155.5q-6 -16 -9 -55t-5 -83t-3 -83t-1 -57q-31 0 -65 -5t-61.5 -19.5t-46 -41t-18.5 -65.5z" />
<glyph unicode="g" horiz-adv-x="1224" d="M53 530q0 -111 35 -212t100.5 -178t158.5 -122t210 -45q76 0 143.5 29t116.5 84q2 -10 2 -31q0 -117 -62.5 -196.5t-189.5 -79.5q-57 0 -113.5 11t-111.5 26q0 -10 -5 -49t-10 -84t-9.5 -85t-4.5 -49q4 -2 8.5 -6t8.5 -6q55 -16 113.5 -24.5t115.5 -8.5q137 0 243.5 46.5 t179.5 127t110.5 192.5t37.5 243v845q0 72 -37.5 117t-113.5 45q-68 0 -95.5 -44t-33.5 -103q-49 72 -125 107.5t-162 35.5q-121 0 -215 -50t-159.5 -132t-100.5 -187.5t-35 -216.5zM371 553q0 53 14 104.5t44 91t75 64.5t104 25q53 0 101 -25q37 -20 61.5 -51t37.5 -67 t18 -75.5t5 -80.5q0 -49 -14 -100.5t-41.5 -91.5t-69.5 -65.5t-100 -25.5q-61 0 -106 25.5t-74 67.5t-42 95.5t-13 108.5z" />
<glyph unicode="h" horiz-adv-x="1060" d="M10 -2h316v670q0 78 54 131t132 53q39 0 72.5 -15.5t59.5 -41t40 -59.5t14 -72v-529q0 -63 44 -111.5t110 -48.5q68 0 115 46t47 114v580q0 88 -30 161.5t-83 127t-127 83t-162 29.5q-78 0 -153.5 -27.5t-132.5 -78.5v434q0 66 -45 110.5t-111 44.5q-33 0 -61.5 -12 t-50 -33.5t-35 -50t-13.5 -61.5v-1444z" />
<glyph unicode="i" horiz-adv-x="520" d="M94 0h316v958q0 31 -12.5 60t-34 50.5t-49 34.5t-60.5 13q-66 0 -113 -45t-47 -113v-958zM129 1380q0 -49 35 -82.5t82 -33.5t80.5 33.5t33.5 82.5q0 47 -34.5 81t-81.5 34t-81 -34t-34 -81z" />
<glyph unicode="j" horiz-adv-x="516" d="M90 -373q0 -47 46 -73.5t100 -30.5h13q23 0 47 5q30 7 54.5 21.5t40 34.5t15.5 45v1413h-316v-1415zM125 1380q0 -49 35 -82.5t82 -33.5t80.5 33.5t33.5 82.5q0 47 -34.5 81t-81.5 34t-81 -34t-34 -81z" />
<glyph unicode="k" horiz-adv-x="1052" d="M10 2l314 -2v475l430 -508l252 183l-435 466q8 8 34 30t59.5 50.5t70.5 59t68 60.5t52.5 54.5t25.5 36.5q10 12 16 27.5t6 32.5q0 61 -45 104t-106 43q-37 0 -69 -18.5t-60 -44.5l-299 -285v680q0 66 -45.5 112t-110.5 46q-66 0 -112 -46.5t-46 -111.5v-1444z" />
<glyph unicode="l" horiz-adv-x="419" d="M45 -2l315 2v1444q0 63 -45 110.5t-110 47.5q-66 0 -113 -45.5t-47 -112.5v-1446z" />
<glyph unicode="m" horiz-adv-x="1875" d="M96 0h314v680q0 72 50 120t122 48q70 0 120 -50t50 -122v-676h309v676q0 70 49 119t121 49t120 -50.5t48 -119.5v-535q0 -66 47 -111.5t113 -45.5t110.5 45.5t44.5 111.5v594q0 88 -30.5 159t-85 121t-128 76.5t-159.5 26.5q-98 0 -187.5 -40t-150.5 -113 q-53 76 -138 116.5t-180 40.5q-80 0 -154.5 -33.5t-121.5 -101.5q-4 55 -33 93t-90 38q-72 0 -116 -44t-44 -116v-956z" />
<glyph unicode="n" horiz-adv-x="1177" d="M66 0h315v666q0 78 53 132t131 54t133.5 -55.5t55.5 -132.5v-529q0 -66 46 -110.5t111 -44.5q33 0 61.5 12t50 33.5t34 51t12.5 62.5v576q0 92 -32.5 165.5t-91 126t-136.5 81t-166 28.5q-86 0 -164 -34.5t-127 -106.5q-8 55 -36.5 100t-94.5 45q-33 0 -61.5 -13 t-49 -35.5t-32.5 -51.5t-12 -62v-958z" />
<glyph unicode="o" horiz-adv-x="1222" d="M45 547q0 -115 41 -218.5t113.5 -181t173 -124t219.5 -46.5t218 46.5t171 125t113 182t41 220.5q0 115 -41 218t-114 181t-172 123t-218 45t-218.5 -46t-172 -124t-113.5 -181t-41 -220zM360 549q0 51 14.5 103.5t42 95.5t70.5 69.5t103 26.5q59 0 103 -26.5t73 -68.5 t42 -95.5t13 -104.5q0 -53 -13 -107.5t-41 -97.5t-72 -70.5t-105 -27.5q-59 0 -103.5 27.5t-72 71.5t-41 98.5t-13.5 105.5z" />
<glyph unicode="p" horiz-adv-x="1255" d="M68 -469h313v551q104 -104 256 -105q117 0 211 47.5t159.5 125t101.5 179t36 212.5q0 106 -35 208.5t-99.5 183.5t-156.5 130t-207 49q-88 0 -166 -37t-131 -108q-6 55 -33.5 102t-95.5 47q-72 0 -112.5 -45t-40.5 -117v-1423zM373 563q0 51 14 101.5t42 88.5t71 61.5 t102 23.5t102.5 -27t71 -68t40.5 -94t13 -104t-14 -102.5t-43 -92.5t-73 -66.5t-101 -25.5q-66 0 -109 27.5t-68.5 70.5t-36.5 97.5t-11 109.5z" />
<glyph unicode="q" horiz-adv-x="1261" d="M70 541q0 -111 35.5 -212.5t101 -179t160 -125t211.5 -47.5q152 0 256 105v-551h315v1423q0 72 -42 117t-114 45q-68 0 -95.5 -47t-31.5 -102q-53 72 -132 108.5t-167 36.5q-115 0 -207 -49t-156.5 -130t-99 -183.5t-34.5 -208.5zM385 545q0 51 13.5 104t41 94t70.5 68 t102 27q57 0 101.5 -23.5t72 -61.5t42 -88.5t14.5 -101.5q0 -55 -11.5 -109.5t-37 -97.5t-69.5 -70.5t-108 -27.5q-59 0 -102 25.5t-71.5 66.5t-43 92.5t-14.5 102.5z" />
<glyph unicode="r" horiz-adv-x="737" d="M23 -4l315 2v496q0 47 4 89t23 76q23 43 55.5 71t69 47.5t72.5 33.5t64.5 33.5t47 47.5t18.5 71q0 51 -33.5 87.5t-80.5 43.5q-7 1 -14 1q-34 1 -72 -17q-46 -20 -80 -44q-43 -29 -82 -66.5t-59.5 -61t-22.5 -27.5q-12 35 -29.5 70.5t-40 62t-49.5 36t-55 -11.5 q-23 -16 -37 -33.5t-14 -46.5v-960z" />
<glyph unicode="s" horiz-adv-x="985" d="M33 121q90 -61 208.5 -100t231.5 -39q76 0 156 20.5t144.5 63.5t105.5 107.5t41 152.5t-41 148.5t-103.5 101t-135.5 68.5t-135.5 50.5t-103.5 45t-41 55.5q0 23 10.5 39t26.5 26q16 12 38 17.5t42 5.5q45 0 86 -12.5t78 -28t69.5 -27.5t63.5 -12q47 0 82 33.5t35 83.5 q0 55 -47 94t-111.5 61.5t-132.5 32.5t-108 10q-74 0 -151 -20.5t-140.5 -61.5t-104.5 -103.5t-41 -146.5q0 -86 41 -142t102.5 -94t133 -61.5t133 -45t102.5 -47t41 -66.5q0 -27 -13 -45.5t-33.5 -30.5t-45 -17.5t-47.5 -5.5q-37 0 -83 11.5t-92 29t-91 38t-78 38.5z" />
<glyph unicode="t" horiz-adv-x="710" d="M-10 969q0 -41 18.5 -66.5t47 -40t62.5 -20.5t66 -6v-836h314v834q33 0 67.5 5t63 20t47 41t18.5 67q0 43 -18.5 68.5t-47 41t-63.5 20.5t-67 5v168q0 66 -46 115t-112 49t-112 -48.5t-46 -113.5v-172q-33 0 -66.5 -5t-61 -19.5t-46 -40t-18.5 -66.5z" />
<glyph unicode="u" horiz-adv-x="1183" d="M70 451q0 -242 133 -356.5t368 -114.5q236 0 368 114.5t132 358.5v503q0 66 -46 112t-112 46q-33 0 -61.5 -12t-50 -33.5t-33.5 -51.5t-12 -63v-499q0 -92 -45 -145.5t-140 -53.5q-96 0 -141 54.5t-45 144.5v630h-227h-88v-634z" />
<glyph unicode="v" horiz-adv-x="978" d="M-35 989l367 -891q23 -53 59.5 -82.5t97.5 -29.5q55 0 92 33.5t58 80.5q8 6 31.5 54.5t54.5 119t65.5 155.5t66.5 164t55.5 143.5t33.5 97.5q35 81 35 124q0 63 -46 109.5t-112 46.5q-51 0 -93 -28.5t-58 -77.5l-187 -568l-249 670z" />
<glyph unicode="w" horiz-adv-x="1591" d="M-59 997l333 -886q20 -53 58.5 -88t101.5 -35q59 0 99 33.5t59 87.5l180 522l178 -525q16 -53 57.5 -85.5t100.5 -32.5q63 0 100 35.5t60 89.5l313 774q6 16 11 35t5 39q0 66 -47 111.5t-112 45.5q-49 0 -91 -28.5t-59 -75.5l-184 -561l-189 571h-288l-191 -571l-223 671 z" />
<glyph unicode="x" horiz-adv-x="1208" d="M43 141q0 -31 12.5 -59.5t34 -50t50 -34.5t59.5 -13q41 0 76.5 20.5t60.5 52.5l248 332l247 -332q25 -33 60 -53t76 -20q63 0 109 47t46 110q0 31 -12 59.5t-35 51.5l-293 328l244 266q23 23 36 52.5t13 62.5q0 66 -45 110.5t-110 44.5q-41 0 -75 -18.5t-57 -50.5 l-204 -279l-295 356l-226 -190l320 -356l-293 -326q-20 -23 -33.5 -51.5t-13.5 -59.5z" />
<glyph unicode="y" horiz-adv-x="970" d="M-31 981l355 -909q-4 -8 -24.5 -53.5t-45.5 -99.5t-45.5 -105.5t-26.5 -71.5q-23 -55 -22 -92q0 -61 48 -101.5t107 -40.5q57 0 93 34t57 85q8 6 31.5 56.5t56.5 129t73 178t81 205t79.5 211t70.5 195.5t54.5 156.5t30.5 97.5q14 35 20.5 64t6.5 45q0 66 -47.5 108.5 t-110.5 42.5q-61 0 -96 -38t-53 -91l-179 -538l-229 649z" />
<glyph unicode="z" horiz-adv-x="1067" d="M23 115q0 -63 43 -89t98 -26h702q57 0 99.5 40t42.5 99t-43 99.5t-103 40.5h-383l465 630q12 16 20.5 36t8.5 42q0 59 -40 86t-93 27h-777v-279h451l-463 -624q-29 -39 -28 -82z" />
<glyph unicode="{" horiz-adv-x="645" d="M18 737q0 -29 20.5 -44t46.5 -28.5t46.5 -28.5t20.5 -46v-660q0 -86 50 -128t132 -42h248v125h-52q-31 0 -59.5 11.5t-49 39t-20.5 82.5v543q0 70 -45 119t-114 57q70 8 115.5 57.5t45.5 118.5v564q0 47 15.5 70.5t38 31.5t47.5 8q27 0 49 4t37.5 15.5t15.5 42.5 q0 27 -16.5 46t-44.5 19h-213q-80 0 -130 -42t-50 -128v-661q0 -29 -20.5 -44.5t-46.5 -28.5t-46.5 -28.5t-20.5 -44.5z" />
<glyph unicode="|" horiz-adv-x="342" d="M59 0h213v1475h-213v-1475z" />
<glyph unicode="}" horiz-adv-x="645" d="M18 -174h2q0 -27 16.5 -46.5t45.5 -19.5h211q82 0 132 42t50 128v662q0 29 20.5 44t45 28.5t45 29t20.5 43.5q0 29 -20.5 44.5t-46 28.5t-46 28.5t-20.5 46.5v659q0 86 -49 128t-131 42h-248v-125h49q31 0 59.5 -11t49 -39t20.5 -83v-543q0 -70 45 -119t115 -57 q-70 -8 -115 -57t-45 -119v-563q0 -49 -15 -71.5t-38 -31t-49 -8.5q-27 0 -49.5 -4t-38 -15t-15.5 -42z" />
<glyph unicode="~" horiz-adv-x="987" d="M55 569h160q0 16 4 37t13.5 38.5t22.5 29.5t34 12q37 0 82 -17.5t93 -39t99 -39t101 -17.5q63 0 108 32t72.5 80t40 106.5t12.5 113.5l-20 -2h-140q0 -16 -4 -36.5t-13 -38t-22.5 -29t-33.5 -11.5q-39 0 -84 17.5t-93.5 39t-98.5 40t-99 18.5q-61 0 -105.5 -27.5 t-72 -70.5t-41 -97.5t-13.5 -107.5q-2 -4 -2 -16v-15z" />
<glyph unicode="&#xa0;" />
<glyph unicode="&#xa1;" horiz-adv-x="491" d="M57 1290q0 -76 53.5 -127t127.5 -51q76 0 127 53.5t51 126.5q0 74 -53.5 125t-126.5 51q-74 0 -126.5 -52t-52.5 -126zM80 -31l313 -2v60v893q0 25 -15.5 45t-39 35.5t-51 24.5t-51.5 9q-23 0 -50.5 -9t-51 -24.5t-39 -35.5t-15.5 -43v-953z" />
<glyph unicode="&#xa2;" horiz-adv-x="1019" d="M29 551q0 -102 35.5 -199.5t99 -175.5t151.5 -129t195 -57q0 -4 -2 -24.5t-3 -44t-1 -42.5q0 -20 2 -24q0 -18 9 -41t32 -23t31 21.5t8 40.5v18v35v35v18q12 16 26 29q33 2 78 11t93 21.5t90 24.5t69 21l-51 264l-66 -25q-2 0 -14 -3t-16 -3q-47 -8 -94.5 -17.5 t-94.5 -13.5q-6 0 -12 10.5t-12 12.5v538q12 -2 22 -2q12 0 23 -2q45 -6 88 -18t86 -23h2q23 -4 51 2q45 10 72.5 49.5t27.5 86.5q0 51 -32.5 85.5t-80.5 56t-102.5 33t-97.5 13.5q-16 2 -31 2h-28q0 4 1 20.5t3 36t1 36t-3 20.5q2 16 -7.5 37.5t-31.5 21.5q-23 0 -32 -20.5 t-9 -38.5q-4 -6 -4 -23q0 -16 2 -36.5t3 -37t1 -22.5q-102 -12 -190.5 -62.5t-152 -125t-99 -169t-35.5 -198.5zM348 561q0 86 38 155.5t122 100.5v-532q-84 41 -122 113.5t-38 162.5z" />
<glyph unicode="&#xa3;" horiz-adv-x="1308" d="M12 733q0 -35 17.5 -60.5t42.5 -37.5q8 -10 33.5 -17.5t57.5 -13.5t60.5 -9t42.5 -1q14 -4 34 0l19 4l-14 -45t-35.5 -104.5t-47 -117t-46.5 -83.5l-2 -2q-23 -29 -35 -55.5t-12 -49.5q0 -25 10 -50t27.5 -45.5t41 -33t50.5 -12.5h-2h973v285h-680q39 45 65.5 109.5 t30.5 125.5v37q0 18 -4 37h262v283h-309q-20 41 -41 86t-21 90q0 41 16.5 70.5t44 50t62.5 29.5t72 9q86 0 150.5 -38.5t121.5 -96.5q14 -16 29.5 -32.5t32.5 -26.5q23 -20 61 -21q59 0 96 46.5t37 101.5q0 51 -30.5 93t-74.5 76t-94 60.5t-87 46.5q-61 33 -125.5 58.5 t-136.5 25.5q-96 0 -187.5 -25.5t-162 -77.5t-113.5 -131t-43 -186q0 -57 15 -107t40 -101q-12 0 -38 -2.5t-53.5 -6.5t-50 -10t-30.5 -14q-29 -12 -49.5 -41t-20.5 -70z" />
<glyph unicode="&#xa4;" horiz-adv-x="1447" d="M20 479h197q16 -53 42 -101t54 -93q100 -145 252 -223t340 -78q47 0 100.5 6t106.5 20.5t102.5 37t88.5 54.5q31 25 53 59t22 79q0 59 -41 99t-100 40q-33 0 -67.5 -15.5t-77.5 -34t-94.5 -33.5t-114.5 -15q-117 0 -198 55t-126 143h594q63 0 110.5 31t47.5 76 q0 47 -46 78.5t-112 31.5h-653q0 12 -1 23.5t-1 21.5t1 20.5t1 20.5h653q63 0 110.5 31t47.5 78t-46 78.5t-112 31.5h-588q45 76 116 127.5t167 69.5q33 6 65 6q96 0 175 -34.5t151 -92.5l115 232q-43 37 -102.5 69.5t-127 57t-136 39t-128.5 14.5h-22q-10 0 -23 -2 q-109 -10 -203 -51t-170.5 -104.5t-134 -147.5t-90.5 -183h-197v-219h154q0 -12 -1 -24.5t-1 -24.5q0 -10 1 -18t1 -19h-154v-217z" />
<glyph unicode="&#xa5;" horiz-adv-x="1284" d="M27 1325q0 -23 9 -46.5t21 -41.5l275 -377h-217q-8 0 -15.5 -11t-13.5 -25.5t-9 -30t-3 -23.5t10 -15t24.5 -12.5t30 -8.5t23.5 -3h266l27 -39l4 -47h-344q-8 0 -15.5 -11t-13.5 -25.5t-9 -29t-3 -22.5t10 -15t24.5 -12.5t30 -8.5t23.5 -3h297v-518h325v520h338 q25 0 42.5 20.5t17.5 45.5t-17.5 43t-44.5 18h-336v45l27 41h309q29 0 44.5 19.5t15.5 46.5t-16.5 45t-45.5 18h-207l271 375q30 39 30 90q0 33 -12 61.5t-33.5 51t-51.5 36t-62 13.5q-43 0 -81 -22.5t-63 -57.5l-291 -428l-288 428q-23 35 -62 57.5t-82 22.5 q-33 0 -62.5 -13.5t-51 -36t-33.5 -52t-12 -62.5z" />
<glyph unicode="&#xa6;" horiz-adv-x="1267" d="M-27 -59q0 -66 54 -103q14 -14 51 -30.5t78 -32t79.5 -27.5t59.5 -14q16 -2 30.5 -6t28.5 -4q16 0 34 4t34 6q20 2 60 14t81 27.5t77 33t50 31.5q53 39 53 105q0 47 -29.5 80.5t-78.5 33.5q-8 0 -17.5 -1t-19.5 -5q-53 -29 -115.5 -60.5t-115.5 -31.5q-43 0 -85 16.5 t-79 35t-69 33.5t-54 15q-47 0 -77 -37.5t-30 -82.5zM-16 1497q0 -66 43 -110t108 -44q63 0 107.5 44.5t44.5 107.5q0 61 -44 106.5t-106 45.5q-63 0 -108 -43t-45 -107zM162 1440q0 23 22 22q23 1 23 -22t-23 -23t-22 23zM201 154l315 -2v958q0 31 -12 59.5t-33.5 50 t-49.5 35t-61 13.5q-66 0 -112.5 -45t-46.5 -113v-956zM395 1493q0 -61 44 -105.5t106 -44.5q63 0 108 43.5t45 106.5q0 66 -45 110t-108 44t-106.5 -45.5t-43.5 -108.5zM563 1440q0 23 23 22q22 1 22 -22t-22 -23q-23 0 -23 23zM776 522q0 -4 5 -13t12.5 -18.5t13.5 -18.5 t8 -13l195 -269q20 -29 48.5 -46t63.5 -17q51 0 89 37t38 88q0 29 -13 53.5t-30 46.5l-174 236l178 231q16 23 27.5 46.5t11.5 52.5q0 49 -33.5 86.5t-85.5 37.5q-35 0 -67.5 -19t-54.5 -48l-228 -291q-2 -2 -3 -26.5t-1 -53.5v-53v-29z" />
<glyph unicode="&#xa7;" horiz-adv-x="1228" d="M25 561q0 -127 54 -206t136 -131t179.5 -87t185.5 -76q0 -2 4 -2q51 -27 88 -55.5t37 -87.5q0 -31 -14.5 -51.5t-37 -31.5t-50 -16t-52.5 -5q-61 0 -99 16t-64.5 41t-44 54.5t-36 54t-41 41t-59.5 16.5q-61 0 -106.5 -45t-45.5 -107q0 -68 37 -123t94.5 -96t123 -67.5 t124.5 -36.5q31 -4 62.5 -8.5t62.5 -4.5q84 0 169 19.5t152.5 61.5t110.5 110.5t43 167.5q0 66 -27.5 127t-78.5 104q100 53 165.5 151.5t65.5 215.5q0 106 -53 177t-133 121t-174 86t-174 69.5t-133.5 74.5t-53.5 101q0 31 14.5 52t37 35.5t50 20.5t54.5 6q49 0 96 -17.5 t91 -45t83 -62.5t70 -71l170 196q-94 135 -229.5 198.5t-305.5 63.5q-78 0 -156.5 -16t-140.5 -57q-72 -47 -118.5 -119t-46.5 -170q0 -66 28.5 -128.5t77.5 -109.5q-84 -57 -138 -151.5t-54 -196.5zM334 575q0 51 36 95.5t76 70.5l252 -112q51 -23 93.5 -61t42.5 -101 q0 -51 -36 -85t-79 -54q-2 0 -3 -1t-3 -1q-4 -2 -6 -4.5t-7 -2.5l-223 99q-27 12 -52.5 26.5t-46 33t-32.5 43t-12 54.5z" />
<glyph unicode="&#xa8;" horiz-adv-x="901" d="M0 1507q0 -51 37 -87t90 -36q51 0 87 38t36 89t-36 88t-87 37q-53 0 -90 -37.5t-37 -91.5zM621 1507q0 -49 37.5 -85t86.5 -36q53 0 89 35t36 88t-35.5 90t-89.5 37q-53 0 -88.5 -37.5t-35.5 -91.5z" />
<glyph unicode="&#xa9;" horiz-adv-x="1703" d="M59 737q0 -158 60.5 -297t164 -242.5t243 -164t296.5 -60.5q158 0 297.5 60.5t242.5 165t163.5 243.5t60.5 297t-60.5 297.5t-163.5 242.5t-242.5 163.5t-297.5 60.5t-297 -60.5t-242.5 -164.5t-164 -243.5t-60.5 -297.5zM178 739q0 133 50.5 253t137.5 209t204.5 141.5 t252.5 52.5t253 -52.5t205 -141.5t137 -209t50 -253q0 -135 -50 -253.5t-137 -209t-205 -142.5t-253 -52t-252.5 52t-204.5 142.5t-137.5 209t-50.5 253.5zM434 729q0 -94 29 -177t83 -145.5t133 -99.5t177 -37q29 0 77 6.5t93 22.5t78 43t33 68q0 29 -18.5 50t-47.5 21 q-18 0 -39.5 -10t-47.5 -21.5t-56.5 -21.5t-67.5 -10q-66 0 -115 26.5t-81.5 69.5t-49 99.5t-16.5 115.5q0 57 14.5 115.5t45 105.5t78.5 76t116 29q55 0 94 -18.5t74 -35.5q2 0 2 -2h2q20 -8 35 -8q29 0 46 21.5t17 48.5q0 41 -29.5 67.5t-71.5 43t-87 22.5t-74 6 q-102 0 -181 -37t-133 -101.5t-83 -149.5t-29 -183z" />
<glyph unicode="&#xaa;" horiz-adv-x="847" d="M57 1118q0 -70 21.5 -137.5t62.5 -121.5t100.5 -87t135.5 -33q29 0 63.5 15.5t64.5 35t50 34.5l20 16l7 -92l153 2v665q0 35 -25.5 58.5t-60.5 23.5q-41 0 -57.5 -25.5t-16.5 -64.5q-37 45 -88 67.5t-108 22.5q-78 0 -137.5 -32.5t-100.5 -87t-62.5 -122t-21.5 -137.5z M113 510h579q29 0 49.5 22.5t20.5 51.5v-2q0 31 -19.5 53t-50.5 22h-579v-147zM219 1118q0 41 10.5 82t33 75t57 55.5t81.5 21.5q49 0 82 -20.5t52.5 -53.5t28.5 -74t9 -82t-9 -84t-28.5 -77.5t-53 -56t-83.5 -21.5q-47 0 -81.5 21.5t-56 55t-32 75.5t-10.5 83z" />
<glyph unicode="&#xab;" horiz-adv-x="1017" d="M35 567q0 -23 18.5 -62.5t48 -87.5t65.5 -99.5t69.5 -96.5t62.5 -78.5t43 -48.5l174 152q-12 18 -43 64t-65.5 97.5t-66.5 97.5t-48 62l178 234q16 23 27.5 46t11.5 52q0 49 -36 87t-87 38q-35 0 -66.5 -19.5t-52.5 -48.5l-196 -292q-14 -20 -25.5 -45t-11.5 -52z M463 569q0 -25 18.5 -64.5t48 -87.5t64.5 -99.5t68.5 -96.5t62.5 -78.5t43 -48.5l178 152q-14 18 -45 64t-65.5 97.5t-66.5 97.5t-48 62l178 234q16 23 28.5 46t12.5 52q0 51 -36 88t-87 37q-37 0 -67.5 -19.5t-51.5 -48.5l-198 -292q-14 -20 -25.5 -44t-11.5 -51z" />
<glyph unicode="&#xac;" horiz-adv-x="1234" d="M59 737h908v-295h166v508h-1074v-213z" />
<glyph unicode="&#xad;" horiz-adv-x="829" d="M23 643q-4 -27 3 -53.5t20 -48t32.5 -35.5t38.5 -14h596l-2 264h-523q-18 0 -45.5 -7.5t-52 -20.5t-44 -34.5t-23.5 -50.5z" />
<glyph unicode="&#xae;" horiz-adv-x="1703" d="M59 737q0 -158 60.5 -297t164 -242.5t243 -164t296.5 -60.5q158 0 297.5 60.5t242.5 165t163.5 243.5t60.5 297t-60.5 297.5t-163.5 242.5t-242.5 163.5t-297.5 60.5t-297 -60.5t-242.5 -164.5t-164 -243.5t-60.5 -297.5zM178 739q0 133 50.5 253t137.5 209t204.5 141.5 t252.5 52.5t253 -52.5t205 -141.5t137 -209t50 -253q0 -135 -50 -253.5t-137 -209t-205 -142.5t-253 -52t-252.5 52t-204.5 142.5t-137.5 209t-50.5 253.5zM524 379q0 -41 30 -72t71 -31t70.5 29t29.5 70v278l291 -364q4 -4 15 -16.5t20 -12.5q6 0 30.5 14.5t50 32t47 35 t21.5 23.5q0 4 -6 15t-10 15l-230 269q88 16 152.5 75.5t64.5 163.5q0 66 -23.5 118t-64.5 88t-96 55.5t-119 19.5h-313q-6 0 -11 -9.5t-10.5 -21.5t-7.5 -24.5t-2 -18.5v-731zM727 799v207h137q41 0 73 -31t32 -72q0 -43 -28 -73.5t-73 -30.5h-141z" />
<glyph unicode="&#xaf;" horiz-adv-x="774" d="M16 1327q0 -47 30 -80t77 -33h493q47 0 80 32t33 79t-32.5 79t-80.5 32h-493q-45 0 -76 -33t-31 -76z" />
<glyph unicode="&#xb0;" horiz-adv-x="704" d="M55 1219q0 -57 22.5 -108.5t61.5 -90.5t90.5 -61.5t110.5 -22.5q57 0 109.5 22.5t91.5 60.5t61.5 90.5t22.5 111.5q0 57 -22.5 109t-60.5 90t-90.5 60.5t-111.5 22.5t-110.5 -22.5t-90.5 -60.5t-61.5 -90t-22.5 -111zM152 1221q0 39 14 72.5t39.5 59t60.5 41t74 15.5 t74 -15.5t60.5 -41t39.5 -59t14 -72.5t-14 -74t-39.5 -60.5t-60.5 -40t-74 -14.5t-73 14.5t-59.5 40t-40.5 60.5t-15 74z" />
<glyph unicode="&#xb1;" />
<glyph unicode="&#xb2;" />
<glyph unicode="&#xb3;" />
<glyph unicode="&#xb4;" horiz-adv-x="622" d="M6 1298q0 -49 36 -81.5t83 -32.5q23 0 45 8q10 2 56 16.5t98.5 34t96.5 38.5t54 34q18 8 43 24.5t45.5 40t29.5 50t-3 55.5q-16 37 -54 52t-69 15q-6 0 -23.5 -4t-23.5 -8l-338 -133q-35 -14 -55.5 -44t-20.5 -65z" />
<glyph unicode="&#xb5;" />
<glyph unicode="&#xb6;" horiz-adv-x="1243" d="M43 1049q0 -88 33 -165t90 -135.5t134 -92t165 -33.5h133v-1067h143l2 1783h125v-1785l148 2l-2 1783h43q27 0 49 5.5t37.5 19.5t15.5 43t-20.5 48.5t-48.5 19.5h-625q-88 0 -165 -34t-134 -92.5t-90 -135t-33 -164.5z" />
<glyph unicode="&#xb7;" horiz-adv-x="497" d="M59 549q0 -37 14.5 -70t40 -56.5t58.5 -37.5t70 -14t68.5 14t56 39t39 56.5t14.5 68.5q0 76 -53.5 128t-126.5 52q-74 0 -127.5 -52t-53.5 -128z" />
<glyph unicode="&#xb8;" horiz-adv-x="430" d="M33 -217q0 -41 25.5 -77t68.5 -36q23 0 44.5 11.5t31.5 33.5l180 348h-221q-6 -10 -21.5 -36.5t-33 -56t-33 -57.5t-21.5 -40q-20 -41 -20 -90z" />
<glyph unicode="&#xb9;" />
<glyph unicode="&#xba;" horiz-adv-x="821" d="M53 1120q0 -74 23.5 -143.5t68.5 -123.5t107.5 -86t142.5 -32q78 0 141.5 32t107.5 85t68.5 121.5t24.5 142.5t-23.5 142.5t-67.5 123t-107.5 86t-141.5 31.5t-141 -31.5t-108.5 -84t-70 -121t-24.5 -142.5zM76 584q0 -23 17.5 -48.5t39.5 -25.5h533q10 0 34.5 7t24.5 18 q0 6 -2 25.5t-6 41t-8 38.5t-11 17h2h-569q-20 0 -37.5 -25.5t-17.5 -47.5zM219 1122q0 39 10.5 80t32 74t55 54.5t78.5 21.5q47 0 81 -22.5t55.5 -57.5t30.5 -77t9 -83t-10 -82t-31.5 -74.5t-55.5 -54t-81 -20.5t-80.5 22.5t-54 58t-30 77.5t-9.5 83z" />
<glyph unicode="&#xbb;" horiz-adv-x="999" d="M25 858q14 -18 45.5 -65.5t67.5 -99.5t68 -99t48 -64l-176 -233q-16 -23 -28.5 -46.5t-12.5 -51.5q0 -51 36 -88t87 -37q37 0 67.5 19.5t51.5 47.5l196 291q14 23 26.5 46t12.5 50q0 25 -19.5 66t-49 89t-65.5 100.5t-71 98.5t-64.5 80.5t-43.5 49.5zM453 858 q14 -18 45.5 -65.5t67.5 -99.5t69 -99t49 -64l-178 -233q-16 -23 -27.5 -46.5t-11.5 -51.5q0 -51 35 -88t88 -37q35 0 66.5 19.5t52.5 47.5l196 291q14 23 25.5 46t11.5 52q0 23 -19.5 64t-49 89t-66.5 100.5t-72 98.5t-63.5 80.5t-42.5 49.5z" />
<glyph unicode="&#xbc;" />
<glyph unicode="&#xbd;" />
<glyph unicode="&#xbe;" />
<glyph unicode="&#xbf;" horiz-adv-x="993" d="M4 381q0 -104 42 -181t111.5 -129.5t159 -78t183.5 -25.5q45 0 95 8.5t99 25.5t94.5 44t82 63.5t61 84t24.5 100.5q0 55 -33.5 97t-93.5 42q-41 0 -62.5 -20.5t-41.5 -44.5q-2 0 -2 -2q-43 -53 -100.5 -85t-128.5 -32q-66 0 -115 35.5t-49 107.5q0 49 23.5 77t58 45 t76.5 28.5t77 29t58.5 44t23.5 73.5v387h-84h-229l4 -315q-72 -14 -133.5 -47t-106.5 -82t-69.5 -112.5t-24.5 -137.5zM313 1333q0 -76 53.5 -127t127.5 -51q76 0 127 52.5t51 127.5q0 37 -14.5 69t-39 55.5t-56.5 37.5t-68 14q-74 0 -127.5 -52t-53.5 -126z" />
<glyph unicode="&#xc0;" horiz-adv-x="1335" d="M-49 133q0 -68 48 -112t114 -44q29 0 52 12.5t40 30.5q14 6 33.5 39t38 73t34 78t21.5 56h588l100 -301l319 84l-471 1256q-33 86 -92 135t-155 49q-90 0 -149.5 -52.5t-90.5 -131.5l-412 -1086q-8 -20 -13 -41.5t-5 -44.5zM342 1806q0 -35 20.5 -64.5t55.5 -43.5 q6 -8 51 -27.5t101.5 -41t106.5 -39t66 -19.5q14 -6 25.5 -8t22.5 -2q47 0 80.5 32.5t33.5 79.5q0 35 -19.5 63.5t-54.5 43.5q-6 8 -51 28.5t-101 42t-107.5 39t-65.5 21.5q-23 10 -49 10q-47 0 -81 -34t-34 -81zM424 547l201 600l198 -600h-399z" />
<glyph unicode="&#xc1;" horiz-adv-x="1335" d="M-49 133q0 -68 48 -112t114 -44q29 0 52 12.5t40 30.5q14 6 33.5 39t38 73t34 78t21.5 56h588l100 -301l319 84l-471 1256q-33 86 -92 135t-155 49q-90 0 -149.5 -52.5t-90.5 -131.5l-412 -1086q-8 -20 -13 -41.5t-5 -44.5zM346 1671q0 -47 36 -81t83 -34q20 0 47 11 q10 2 36.5 11t62.5 21.5t74 27.5t70.5 29.5t55.5 25t27 16.5q33 12 53 41.5t20 64.5q0 47 -33.5 81t-80.5 34q-27 0 -47 -10q-16 -2 -66.5 -19.5t-107 -39t-102.5 -42t-52 -28.5q-35 -14 -55.5 -44t-20.5 -65zM424 547l201 600l198 -600h-399z" />
<glyph unicode="&#xc2;" horiz-adv-x="1335" d="M-49 133q0 -68 48 -112t114 -44q29 0 52 12.5t40 30.5q14 6 33.5 39t38 73t34 78t21.5 56h588l100 -301l319 84l-471 1256q-33 86 -92 135t-155 49q-90 0 -149.5 -52.5t-90.5 -131.5l-412 -1086q-8 -20 -13 -41.5t-5 -44.5zM240 1673q0 -47 33.5 -82t80.5 -35 q20 0 58.5 13.5t78 30t77.5 34t59 25.5q20 -8 56 -24.5t76 -34t75.5 -29.5t58.5 -12q47 0 83 34.5t36 81.5q0 35 -19.5 64.5t-54.5 44.5l-252 98q-12 4 -28.5 10t-32.5 6q-14 0 -29.5 -6t-32.5 -12l-252 -100q-33 -12 -52 -42t-19 -65zM424 547l201 600l198 -600h-399z" />
<glyph unicode="&#xc3;" horiz-adv-x="1335" d="M-49 133q0 -68 48 -112t114 -44q29 0 52 12.5t40 30.5q14 6 33.5 39t38 73t34 78t21.5 56h588l100 -301l319 84l-471 1256q-33 86 -92 135t-155 49q-90 0 -149.5 -52.5t-90.5 -131.5l-412 -1086q-8 -20 -13 -41.5t-5 -44.5zM270 1642h138q0 14 3 32t11 33t19.5 25.5 t29.5 10.5q31 0 70 -15.5t81 -34t86 -33.5t87 -15q55 0 93 26.5t61.5 68.5t34.5 92t11 97h-18h-119q0 -14 -4 -31.5t-11 -33t-19.5 -25.5t-28.5 -10q-35 0 -74 15.5t-80 33.5t-84 33.5t-86 15.5q-53 0 -90 -23.5t-61.5 -61.5t-36 -84t-13.5 -91v-25zM424 547l201 600 l198 -600h-399z" />
<glyph unicode="&#xc4;" horiz-adv-x="1335" d="M-49 133q0 -68 48 -112t114 -44q29 0 52 12.5t40 30.5q14 6 33.5 39t38 73t34 78t21.5 56h588l100 -301l319 84l-471 1256q-33 86 -92 135t-155 49q-90 0 -149.5 -52.5t-90.5 -131.5l-412 -1086q-8 -20 -13 -41.5t-5 -44.5zM188 1507q0 -51 37 -87t90 -36q51 0 87 38 t36 89t-35.5 88t-87.5 37q-53 0 -90 -37.5t-37 -91.5zM424 547l201 600l198 -600h-399zM809 1507q0 -49 38 -85t87 -36q53 0 89 35t36 88t-36 90t-89 37t-89 -37.5t-36 -91.5z" />
<glyph unicode="&#xc5;" horiz-adv-x="1335" d="M-49 133q0 -68 48 -112t114 -44q29 0 52 12.5t40 30.5q14 6 33.5 39t38 73t34 78t21.5 56h588l112 -295l307 117l-471 1217q-23 55 -58.5 100t-92.5 68q59 20 98 67t39 111q0 45 -19.5 80.5t-52 62.5t-72.5 41t-83 14t-83 -14t-72 -41t-51.5 -63.5t-19.5 -81.5 q0 -61 36 -109.5t95 -69.5q-57 -23 -93 -66.5t-58 -98.5l-412 -1086q-8 -20 -13 -41.5t-5 -44.5zM424 547l201 600l200 -600h-401zM561 1655q0 27 19.5 45t46.5 18q29 0 47 -18.5t18 -46.5q0 -29 -18.5 -46.5t-46.5 -17.5q-29 0 -47.5 19.5t-18.5 46.5z" />
<glyph unicode="&#xc6;" horiz-adv-x="1738" d="M0 113l289 -140l139 312l397 6l5 -29q4 -29 9 -65.5t10 -70.5t7 -42q12 -35 53 -59.5t80 -24.5h574q8 0 26.5 3t38 9t34.5 13.5t15 15.5t-3 48t-9 84t-14.5 79t-16.5 35h-489v305h346q59 0 101 43t42 102t-42 100.5t-101 41.5h-346v311h381q43 0 69.5 40t26.5 81 q0 20 -8 49t-21.5 54.5t-33 43t-39.5 17.5h-801q-66 0 -98.5 -28t-61.5 -87zM530 545l289 643v-643h-289z" />
<glyph unicode="&#xc7;" horiz-adv-x="1308" d="M29 733q0 -135 43 -260t121.5 -224t190.5 -167t249 -88q-14 -16 -37 -38t-44.5 -47.5t-37.5 -51t-16 -45.5q0 -35 27.5 -60.5t62.5 -25.5q47 0 76 34l165 203l-10 23q49 2 121 18t137.5 47t111.5 78.5t46 110.5q0 59 -41 99t-100 40q-31 0 -67 -15.5t-79 -34t-94 -33.5 t-115 -15q-96 0 -168.5 38.5t-121 102t-72 146.5t-23.5 173q0 84 23.5 161t69 137.5t110 101.5t148.5 57q31 6 65 6q94 0 174 -34.5t152 -92.5l114 232q-43 37 -102 69.5t-127 57t-136.5 39t-127.5 14.5h-23q-12 0 -22 -2q-145 -14 -263 -80t-203 -167t-131 -232t-46 -275z " />
<glyph unicode="&#xc8;" horiz-adv-x="933" d="M16 168q0 -33 12.5 -63.5t34 -53t51 -37t64.5 -14.5h709v287h-545v309h338q59 0 103 40t44 101q0 59 -41 97q-23 20 -50 32.5t-60 12.5h-334v309h375q59 0 101 42t42 101t-41 101.5t-100 42.5h-316h-65h-129q-70 0 -128 1t-65 1v-1309zM135 1806q0 -35 20.5 -64.5 t55.5 -43.5q4 -8 50 -27.5t102.5 -41t106.5 -39t67 -19.5q14 -6 25 -8t22 -2q47 0 80.5 32.5t33.5 79.5q0 35 -20.5 63.5t-52.5 43.5q-6 8 -51.5 28.5t-101.5 42t-107.5 39t-65.5 21.5q-23 10 -49 10q-47 0 -81 -34t-34 -81z" />
<glyph unicode="&#xc9;" horiz-adv-x="956" d="M27 168q0 -33 12 -63.5t33.5 -53t51 -37t64.5 -14.5h709v287h-545v309h338q59 0 103.5 40t44.5 101q0 59 -41 97q-23 20 -50.5 32.5t-60.5 12.5h-334v309h375q59 0 101 42t42 101t-41 101.5t-100 42.5h-315h-66h-129q-70 0 -128 1t-64 1v-1309zM150 1671q0 -47 35.5 -81 t82.5 -34q20 0 47 11q10 2 37 11t63 21.5t73.5 27.5t70.5 29.5t55.5 25t26.5 16.5q33 12 53.5 41.5t20.5 64.5q0 47 -34 81t-81 34q-27 0 -47 -10q-16 -2 -66.5 -19.5t-106.5 -39t-102.5 -42t-52.5 -28.5q-35 -14 -55 -44t-20 -65z" />
<glyph unicode="&#xca;" horiz-adv-x="933" d="M16 168q0 -33 12.5 -63.5t34 -53t51 -37t64.5 -14.5h709v287h-545v309h338q59 0 103 40t44 101q0 59 -41 97q-23 20 -50 32.5t-60 12.5h-334v309h375q59 0 101 42t42 101t-41 101.5t-100 42.5h-316h-65h-129q-70 0 -128 1t-65 1v-1309zM33 1673q0 -47 33.5 -82t80.5 -35 q20 0 58.5 13.5t78.5 30t77.5 34t58.5 25.5q20 -8 56 -24.5t76 -34t76 -29.5t58 -12q47 0 83 34.5t36 81.5q0 35 -19.5 64.5t-54.5 44.5l-252 98q-12 4 -28.5 10t-32.5 6q-14 0 -29.5 -6t-32.5 -12l-252 -100q-33 -12 -52 -42t-19 -65z" />
<glyph unicode="&#xcb;" horiz-adv-x="933" d="M16 168q0 -33 12.5 -63.5t34 -53t51 -37t64.5 -14.5h709v287h-545v309h338q59 0 103 40t44 101q0 59 -41 97q-23 20 -50 32.5t-60 12.5h-334v309h375q59 0 101 42t42 101t-41 101.5t-100 42.5h-316h-65h-129q-70 0 -128 1t-65 1v-1309zM63 1718q0 -66 43.5 -109.5 t108.5 -43.5q63 0 107.5 45t44.5 106q0 63 -44.5 107.5t-105.5 44.5q-63 0 -108.5 -43t-45.5 -107zM475 1714q0 -59 44 -104t106 -45q63 0 108 42.5t45 108.5q0 63 -45 107.5t-108 44.5t-106.5 -45t-43.5 -109z" />
<glyph unicode="&#xcc;" horiz-adv-x="516" d="M-33 1806q0 -35 20.5 -64.5t55.5 -43.5q6 -8 52 -27.5t102.5 -41t106.5 -39t67 -19.5q20 -10 47 -10q47 0 79.5 32.5t32.5 79.5q0 35 -19 64.5t-52 42.5q-6 8 -51.5 28.5t-101.5 42t-107.5 39t-67.5 21.5q-27 10 -49 10q-47 0 -81 -34t-34 -81zM90 -2h326v1329 q0 66 -47 114t-115 48q-66 0 -115 -47t-49 -115v-1329z" />
<glyph unicode="&#xcd;" horiz-adv-x="522" d="M-29 1671q0 -47 35 -81t82 -34q27 0 49 11q10 2 37 11t62.5 21.5t73.5 27.5t71 29.5t55.5 25t26.5 16.5q33 12 52.5 41.5t19.5 64.5q0 47 -34 81t-81 34q-10 0 -21.5 -2t-25.5 -8q-16 -4 -66.5 -20.5t-107 -38t-102.5 -42t-52 -28.5q-33 -12 -53.5 -43t-20.5 -66zM88 -2 h326v1329q0 66 -47.5 114t-114.5 48q-66 0 -115 -47t-49 -115v-1329z" />
<glyph unicode="&#xce;" horiz-adv-x="761" d="M-16 1673q0 -47 32.5 -82t79.5 -35q20 0 58.5 13.5t79 30t77.5 34t58 25.5q20 -8 56 -24.5t76 -34t76.5 -29.5t59.5 -12q47 0 82 34.5t35 81.5q0 35 -19.5 64.5t-54.5 44.5l-250 98q-14 4 -29.5 10t-31.5 6t-31.5 -6t-30.5 -12l-254 -100q-33 -12 -51 -42t-18 -65z M207 -2h325v1329q0 66 -47 114t-114 48q-66 0 -115 -47t-49 -115v-1329z" />
<glyph unicode="&#xcf;" horiz-adv-x="593" d="M-70 1718q0 -66 44 -109.5t110 -43.5q63 0 106 45t43 106q0 63 -43 107.5t-106 44.5q-61 0 -107.5 -43t-46.5 -107zM125 -2h326v1329q0 66 -47.5 114t-114.5 48q-66 0 -115 -47t-49 -115v-1329zM342 1714q0 -59 45 -104t105 -45q66 0 109.5 42.5t43.5 108.5 q0 63 -44 107.5t-109 44.5q-63 0 -106.5 -45t-43.5 -109z" />
<glyph unicode="&#xd0;" />
<glyph unicode="&#xd1;" horiz-adv-x="1419" d="M45 0h326v946l665 -903q23 -29 56.5 -45t70.5 -16q70 0 117 46.5t47 114.5v1184q0 33 -13.5 62.5t-35 52t-52 36t-63.5 13.5t-62.5 -13.5t-51 -36t-35 -53t-13.5 -63.5v-788l-655 880q-25 33 -60.5 54.5t-76.5 21.5q-70 0 -117 -49t-47 -117v-1327zM346 1438h137 q0 14 3 31.5t11.5 33t19.5 25.5t30 10q31 0 69.5 -15.5t80.5 -34t86 -33.5t87 -15q55 0 93 26.5t62 68.5t35 92t11 97h-18h-119q0 -14 -4 -31.5t-11.5 -32.5t-19.5 -25.5t-29 -10.5q-35 0 -73.5 15.5t-79.5 34t-84 33.5t-86 15q-53 0 -90 -23.5t-61.5 -61.5t-36 -84 t-13.5 -91v-24z" />
<glyph unicode="&#xd2;" horiz-adv-x="1503" d="M12 737q0 -152 53.5 -289t147.5 -241.5t225 -165.5t289 -61q156 0 287 61t226 165.5t147.5 242t52.5 288.5q0 152 -52.5 289t-146.5 241.5t-225 166t-287 61.5q-158 0 -289 -61.5t-226 -165t-148.5 -240.5t-53.5 -291zM344 737q0 86 22.5 170t69.5 151.5t119 109.5 t168 42q100 0 174 -42t121 -110.5t69.5 -155.5t22.5 -175t-24.5 -171t-72.5 -147.5t-121 -104.5t-169 -40t-168 42t-119 109.5t-69.5 151.5t-22.5 170zM442 1806q0 -35 20.5 -64.5t55.5 -43.5q6 -8 51 -27.5t101.5 -41t106.5 -39t67 -19.5q14 -6 25.5 -8t21.5 -2 q47 0 81 32.5t34 79.5q0 35 -19.5 63.5t-54.5 43.5q-6 8 -51 28.5t-101.5 42t-107.5 39t-66 21.5q-23 10 -49 10q-47 0 -81 -34t-34 -81z" />
<glyph unicode="&#xd3;" horiz-adv-x="1523" d="M23 737q0 -152 53 -289t147 -241.5t225.5 -165.5t288.5 -61q156 0 287 61t226.5 165.5t147.5 242t52 288.5q0 152 -52 289t-146.5 241.5t-225.5 166t-287 61.5q-158 0 -289 -61.5t-226 -165t-148 -240.5t-53 -291zM354 737q0 86 22.5 170t70 151.5t119 109.5t167.5 42 q100 0 174 -42t121 -110.5t69.5 -155.5t22.5 -175t-24.5 -171t-72.5 -147.5t-121 -104.5t-169 -40t-167.5 42t-119 109.5t-70 151.5t-22.5 170zM457 1671q0 -47 35.5 -81t82.5 -34q20 0 48 11q10 2 36.5 11t62.5 21.5t74 27.5t70.5 29.5t55 25t26.5 16.5q33 12 53.5 41.5 t20.5 64.5q0 47 -34 81t-81 34q-27 0 -47 -10q-16 -2 -66.5 -19.5t-106.5 -39t-102 -42t-53 -28.5q-35 -14 -55 -44t-20 -65z" />
<glyph unicode="&#xd4;" horiz-adv-x="1503" d="M12 737q0 -152 53.5 -289t147.5 -241.5t225 -165.5t289 -61q156 0 287 61t226 165.5t147.5 242t52.5 288.5q0 152 -52.5 289t-146.5 241.5t-225 166t-287 61.5q-158 0 -289 -61.5t-226 -165t-148.5 -240.5t-53.5 -291zM340 1673q0 -47 34 -82t81 -35q20 0 58 13.5t78 30 t78 34t58 25.5q20 -8 56 -24.5t76 -34t76 -29.5t58 -12q47 0 83 34.5t36 81.5q0 35 -19.5 64.5t-54.5 44.5l-252 98q-12 4 -28.5 10t-32.5 6q-14 0 -29.5 -6t-31.5 -12l-252 -100q-33 -12 -52.5 -42t-19.5 -65zM344 737q0 86 22.5 170t69.5 151.5t119 109.5t168 42 q100 0 174 -42t121 -110.5t69.5 -155.5t22.5 -175t-24.5 -171t-72.5 -147.5t-121 -104.5t-169 -40t-168 42t-119 109.5t-69.5 151.5t-22.5 170z" />
<glyph unicode="&#xd5;" horiz-adv-x="1503" d="M12 737q0 -152 53.5 -289t147.5 -241.5t225 -165.5t289 -61q156 0 287 61t226 165.5t147.5 242t52.5 288.5q0 152 -52.5 289t-146.5 241.5t-225 166t-287 61.5q-158 0 -289 -61.5t-226 -165t-148.5 -240.5t-53.5 -291zM344 737q0 86 22.5 170t69.5 151.5t119 109.5 t168 42q100 0 174 -42t121 -110.5t69.5 -155.5t22.5 -175t-24.5 -171t-72.5 -147.5t-121 -104.5t-169 -40t-168 42t-119 109.5t-69.5 151.5t-22.5 170zM391 1642h137q0 14 3.5 32t11.5 33t19 25.5t30 10.5q31 0 69.5 -15.5t80.5 -34t86 -33.5t87 -15q55 0 93.5 26.5t62 68.5 t34.5 92t11 97h-18h-119q0 -14 -4 -31.5t-11.5 -33t-19.5 -25.5t-29 -10q-35 0 -73.5 15.5t-79.5 33.5t-84 33.5t-86 15.5q-53 0 -90 -23.5t-61.5 -61.5t-36 -84t-13.5 -91v-25z" />
<glyph unicode="&#xd6;" horiz-adv-x="1542" d="M31 737q0 -152 53 -289t147.5 -241.5t225.5 -165.5t288 -61q156 0 287 61t226.5 165.5t147.5 242t52 288.5q0 152 -52 289t-146.5 241.5t-225 166t-286.5 61.5q-158 0 -289 -61.5t-226.5 -165t-148.5 -240.5t-53 -291zM76 1511q0 -53 35.5 -90t89.5 -37q53 0 89 37t36 88 t-36 88t-87 37q-53 0 -90 -34.5t-37 -88.5zM362 737q0 86 23 170t70 151.5t118.5 109.5t167.5 42q100 0 174 -42t121 -110.5t69.5 -155.5t22.5 -175t-24.5 -171t-72.5 -147.5t-120.5 -104.5t-169.5 -40q-96 0 -167.5 42t-118.5 109.5t-70 151.5t-23 170zM1165 1507v2 q0 -51 38 -88t87 -37q51 0 88 37t37 90t-37 89t-90 36t-88 -37.5t-35 -91.5z" />
<glyph unicode="&#xd7;" />
<glyph unicode="&#xd8;" horiz-adv-x="1566" d="M29 37l84 -84l184 201q92 -86 209 -130t244 -44q156 0 286.5 60t226 162.5t149.5 239t54 287.5q0 133 -41 262t-116 240q12 14 41.5 43t60.5 60.5t53.5 62.5t22.5 49q0 23 -17.5 40t-42.5 17q-18 0 -46.5 -23.5t-58.5 -55t-56.5 -63.5t-40.5 -46q-98 88 -219 135t-254 47 q-158 0 -289 -62.5t-224.5 -167t-145.5 -242.5t-52 -290q0 -137 43 -263t133 -232zM371 731q0 86 22.5 171t68.5 153.5t117.5 110.5t168.5 42q156 0 270 -108h-2l-582 -635q-35 63 -49 128.5t-14 137.5zM508 371l575 628q29 -66 41.5 -133t12.5 -137q0 -84 -25 -167 t-73 -148.5t-118.5 -105.5t-164.5 -40q-72 0 -135.5 24.5t-112.5 78.5z" />
<glyph unicode="&#xd9;" horiz-adv-x="1492" d="M72 592q0 -143 49 -256t136 -191.5t206 -120.5t258 -42t258 42t206 120.5t136 191.5t49 256v733q0 68 -48 117t-116 49t-115 -48t-47 -116v-743q0 -147 -88 -235.5t-235 -88.5t-235.5 88t-88.5 236v895h-325v-887zM434 1806q0 -35 20.5 -64.5t55.5 -43.5q6 -8 52 -27.5 t102.5 -41t106.5 -39t67 -19.5q20 -10 47 -10q47 0 79.5 32.5t32.5 79.5q0 35 -19.5 64.5t-51.5 42.5q-6 8 -51.5 28.5t-101.5 42t-107.5 39t-67.5 21.5q-27 10 -49 10q-47 0 -81 -34t-34 -81z" />
<glyph unicode="&#xda;" horiz-adv-x="1492" d="M72 592q0 -143 49 -256t136 -191.5t206 -120.5t258 -42t258 42t206 120.5t136 191.5t49 256v733q0 68 -48 117t-116 49t-115 -48t-47 -116v-743q0 -147 -88 -235.5t-235 -88.5t-235.5 88t-88.5 236v895h-325v-887zM440 1671q0 -47 35 -81t82 -34q27 0 49 11q10 2 37 11 t62.5 21.5t73.5 27.5t71 29.5t55.5 25t26.5 16.5q33 12 52.5 41.5t19.5 64.5q0 47 -34 81t-81 34q-10 0 -21.5 -2t-25.5 -8q-16 -4 -66.5 -20.5t-107 -38t-102.5 -42t-52 -28.5q-33 -12 -53.5 -43t-20.5 -66z" />
<glyph unicode="&#xdb;" horiz-adv-x="1492" d="M72 592q0 -143 49 -256t136 -191.5t206 -120.5t258 -42t258 42t206 120.5t136 191.5t49 256v733q0 68 -48 117t-116 49t-115 -48t-47 -116v-743q0 -147 -88 -235.5t-235 -88.5t-235.5 88t-88.5 236v895h-325v-887zM334 1673q0 -47 32.5 -82t79.5 -35q20 0 58.5 13.5 t79.5 30t77.5 34t57.5 25.5q20 -8 56 -24.5t76 -34t77 -29.5t59 -12q47 0 82 34.5t35 81.5q0 35 -19.5 64.5t-54.5 44.5l-250 98q-14 4 -29.5 10t-31.5 6t-31.5 -6t-30.5 -12l-254 -100q-33 -12 -51 -42t-18 -65z" />
<glyph unicode="&#xdc;" horiz-adv-x="1427" d="M39 592q0 -143 49 -256t136 -191.5t206 -120.5t258 -42t258 42t206 120.5t136 191.5t49 256v733q0 68 -48 117t-115 49q-27 0 -48 -6q2 8 2 24q0 53 -35.5 90t-88.5 37t-89 -37.5t-36 -91.5q0 -49 37.5 -85t87.5 -36h18q-10 -31 -10 -59v-743q0 -147 -88 -235.5 t-236 -88.5q-147 0 -235 88t-88 236v802q4 0 9 -1t11 -1q51 0 87 38t36 89t-36 88t-87 37q-53 0 -90 -37.5t-37 -91.5q0 -8 1 -14t3 -14h-223v-887z" />
<glyph unicode="&#xdd;" />
<glyph unicode="&#xde;" />
<glyph unicode="&#xdf;" horiz-adv-x="1120" d="M8 -461h316v1557q0 43 9 83t29.5 69.5t54.5 48t83 18.5q72 0 119 -50.5t47 -121.5q0 -43 -17.5 -72t-46.5 -51.5t-63.5 -45t-67.5 -52.5q-14 -18 -22.5 -33t-8.5 -43q0 -49 23.5 -73.5t59.5 -40t78 -27t78 -34t59.5 -62.5t23.5 -109q0 -74 -23.5 -115t-58.5 -63.5 t-75 -35t-74.5 -27.5t-58 -40.5t-23.5 -75.5q0 -80 56 -120.5t130 -40.5q94 0 174 47t138.5 120.5t92 163.5t33.5 176q0 61 -17.5 122t-49 113t-78.5 91t-109 59q68 53 102.5 130t34.5 163q0 94 -35.5 172t-96 133.5t-142.5 86t-174 30.5q-117 0 -209 -38t-156.5 -106.5 t-99.5 -163.5t-35 -208v-1534z" />
<glyph unicode="&#xe0;" horiz-adv-x="1150" d="M16 545q0 -113 36 -214.5t102.5 -179t162 -123.5t211.5 -46q88 0 162 36.5t121 114.5l-1 -17q-1 -18 -1 -40q0 -23 1 -45.5t1 -34.5h285v967q0 53 -28 92t-83 43q-33 4 -69.5 -1t-77.5 -32q-41 -25 -52 -53l-12 -29l-37 19q-37 20 -95 38.5t-133 27.5t-149 -9 q-82 -23 -145 -73t-107.5 -118.5t-68 -152.5t-23.5 -170zM289 1432q0 -35 20.5 -65t55.5 -44q6 -8 52 -27.5t102 -41t106.5 -39t66.5 -19.5q23 -8 47 -8q47 0 80 32.5t33 79.5q0 35 -19.5 65t-52.5 42q-6 8 -51 28.5t-101.5 42t-107.5 39t-67 21.5q-23 8 -50 8 q-47 0 -80.5 -32.5t-33.5 -81.5zM334 547q0 51 13 104.5t42 96.5t73 69.5t105 26.5t104.5 -25.5t70 -66.5t39 -92.5t12.5 -104.5q0 -55 -11.5 -109.5t-39 -98.5t-71.5 -71.5t-108 -27.5q-61 0 -104 26.5t-71 69.5t-41 96.5t-13 106.5z" />
<glyph unicode="&#xe1;" horiz-adv-x="1167" d="M25 545q0 -113 35.5 -214.5t102 -179t162 -123.5t212.5 -46q88 0 161.5 36.5t120.5 114.5l-1 -17q-1 -18 -1 -40q0 -23 1 -45.5t1 -34.5h285v967q0 53 -27.5 92t-83.5 43q-33 4 -69.5 -1t-77.5 -32q-41 -25 -52 -53l-12 -29l-36 19q-37 20 -95.5 38.5t-133.5 27.5 t-148 -9q-82 -23 -145.5 -73t-107.5 -118.5t-67.5 -152.5t-23.5 -170zM303 1298q0 -49 35 -81.5t82 -32.5q27 0 49 10q10 2 36.5 11t62.5 21.5t74 28t70.5 29.5t55.5 24.5t27 16.5q33 12 52 42t19 65q0 47 -33.5 79.5t-80.5 32.5q-23 0 -47 -8q-10 -2 -38 -10t-63 -21.5 t-73.5 -28t-71.5 -28.5t-55.5 -24.5t-26.5 -16.5q-33 -12 -53.5 -43t-20.5 -66zM342 547q0 51 13.5 104.5t42 96.5t72.5 69.5t105 26.5t104.5 -25.5t70 -66.5t39 -92.5t12.5 -104.5q0 -55 -11.5 -109.5t-39 -98.5t-71.5 -71.5t-108 -27.5q-61 0 -104 26.5t-70.5 69.5 t-41 96.5t-13.5 106.5z" />
<glyph unicode="&#xe2;" horiz-adv-x="1253" d="M66 545q0 -113 35.5 -214.5t102 -179t162 -123.5t212.5 -46q88 0 161.5 36.5t120.5 114.5l-1 -17q-1 -18 -1 -40q0 -23 1 -45.5t1 -34.5h285v967q0 53 -27.5 92t-83.5 43q-33 4 -69.5 -1t-77.5 -32q-41 -25 -53 -53l-11 -29l-37 19q-36 20 -94.5 38.5t-133.5 27.5 t-148 -9q-82 -23 -145.5 -73t-107.5 -118.5t-67.5 -152.5t-23.5 -170zM238 1300q0 -47 32.5 -81.5t79.5 -34.5q20 0 58 13t79 29.5t78 34t58 25.5q20 -10 56 -26.5t76 -33t76.5 -28.5t59.5 -12q47 0 82 33.5t35 80.5q0 37 -19.5 66t-54.5 43l-250 98q-14 6 -29.5 11.5 t-31.5 5.5t-32 -5.5t-30 -11.5l-254 -102q-33 -12 -51 -41t-18 -64zM383 547q0 51 13.5 104.5t42 96.5t72.5 69.5t105 26.5t104.5 -25.5t70 -66.5t39 -92.5t12.5 -104.5q0 -55 -11.5 -109.5t-39 -98.5t-71.5 -71.5t-108 -27.5q-61 0 -104 26.5t-70.5 69.5t-41 96.5 t-13.5 106.5z" />
<glyph unicode="&#xe3;" horiz-adv-x="1191" d="M35 545q0 -113 35.5 -214.5t102.5 -179t162 -123.5t212 -46q88 0 161.5 36.5t120.5 114.5l-1 -17q-1 -18 -1 -40q0 -23 1 -45.5t1 -34.5h285v967q0 53 -27.5 92t-82.5 43q-33 4 -70 -1t-78 -32q-39 -25 -51 -53l-12 -29l-37 19q-37 20 -95.5 38.5t-133 27.5t-148.5 -9 q-82 -23 -145.5 -73t-107.5 -118.5t-67.5 -152.5t-23.5 -170zM270 1233h138q0 14 3 31.5t11 33t19.5 25.5t29.5 10q31 0 70 -15t81 -33.5t86 -34t87 -15.5q55 0 93 26.5t61.5 68.5t34.5 92.5t11 97.5h-18h-119q0 -14 -4 -32t-11 -33t-19.5 -25.5t-28.5 -10.5q-35 0 -74 15.5 t-80 34t-84 34t-86 15.5q-53 0 -90 -24t-61.5 -61.5t-36 -83.5t-13.5 -92v-24zM352 547q0 51 13.5 104.5t42 96.5t72.5 69.5t106 26.5q61 0 104 -25.5t69.5 -66.5t39 -92.5t12.5 -104.5q0 -55 -11.5 -109.5t-39 -98.5t-71.5 -71.5t-107 -27.5q-61 0 -104.5 26.5t-71 69.5 t-41 96.5t-13.5 106.5z" />
<glyph unicode="&#xe4;" horiz-adv-x="1210" d="M45 545q0 -113 36 -214.5t102.5 -179t161.5 -123.5t212 -46q88 0 162 36.5t121 114.5l-1 -17q-1 -18 -1 -40q0 -23 1 -45.5t1 -34.5h284v967q0 53 -27.5 92t-82.5 43q-33 4 -70 -1t-78 -32q-41 -25 -52 -53l-11 -29l-37 19q-37 20 -95.5 38.5t-133 27.5t-148.5 -9 q-82 -23 -145.5 -73t-107.5 -118.5t-67.5 -152.5t-23.5 -170zM268 1350q0 -63 45 -107.5t109 -44.5q63 0 107 44t44 108q0 63 -44 108t-107 45t-108.5 -45t-45.5 -108zM362 547q0 51 13.5 104.5t42 96.5t73 69.5t105.5 26.5t104 -25.5t70 -66.5t39 -92.5t12 -104.5 q0 -55 -11 -109.5t-39 -98.5t-72 -71.5t-107 -27.5q-61 0 -104.5 26.5t-71 69.5t-41 96.5t-13.5 106.5zM676 1348q0 -61 46 -105.5t107 -44.5q63 0 107.5 45t44.5 109q0 63 -45.5 107t-108.5 44q-66 0 -108.5 -46t-42.5 -109z" />
<glyph unicode="&#xe5;" horiz-adv-x="1153" d="M16 545q0 -113 36 -214.5t102.5 -179t162 -123.5t211.5 -46q88 0 162 36.5t121 114.5l-1 -17q-1 -18 -1 -40q0 -23 1 -45.5t1 -34.5h285v967q0 53 -28 92t-83 43q-33 4 -69.5 -1t-77.5 -32q-41 -25 -52 -53l-12 -29l-37 19q-37 20 -95 38.5t-133 27.5t-149 -9 q-82 -23 -145 -73t-107.5 -118.5t-68 -152.5t-23.5 -170zM334 547q0 51 13 104.5t42 96.5t73 69.5t105 26.5t104.5 -25.5t70 -66.5t39 -92.5t12.5 -104.5q0 -55 -11.5 -109.5t-39 -98.5t-71.5 -71.5t-108 -27.5q-61 0 -104 26.5t-71 69.5t-41 96.5t-13 106.5zM377 1368 q0 -43 18.5 -79t49 -61.5t69.5 -38.5t80 -13q39 0 78 14t68.5 39.5t48 60.5t18.5 78t-18.5 79t-48 60.5t-68.5 39t-80 14.5h2q-41 0 -80 -13.5t-69.5 -39t-49 -61.5t-18.5 -79zM524 1370q0 29 19.5 46.5t48.5 17.5q27 0 46 -18.5t19 -47.5q0 -27 -19.5 -46t-45.5 -19 q-27 0 -47.5 19t-20.5 48z" />
<glyph unicode="&#xe6;" horiz-adv-x="1906" d="M8 541q0 -111 35 -211.5t100.5 -178t157.5 -123.5t209 -46q84 0 161 31.5t124 103.5q0 -10 3 -41t5 -53.5t2 -26.5h207l20 86q66 -53 143.5 -77.5t165.5 -24.5q90 0 159 14t151 43q-2 16 -7.5 44t-11.5 57.5t-13 56t-11 43.5q-2 10 -9.5 15t-13.5 11l-6 6h-2v2 q-14 -2 -29.5 -6t-29.5 -6q-23 -4 -44.5 -6t-43.5 -4q-14 -2 -29 -2h-27q-106 0 -185 60.5t-102 160.5h609q18 0 35.5 1t33.5 5q37 14 52.5 44t15.5 75q0 33 -5 65.5t-16 63.5q-25 84 -71.5 155.5t-111 125t-144.5 84t-168 30.5q-78 0 -152.5 -25.5t-134.5 -74.5 q-8 20 -16 39.5t-20.5 34t-32 23.5t-48.5 9q-63 0 -92.5 -40t-29.5 -99q-20 35 -53 59.5t-72 41t-81 23.5t-81 7q-117 0 -208 -49t-155.5 -131t-98.5 -185.5t-34 -209.5zM324 551q0 51 14 102.5t42 93t70 68.5t99 27q61 0 104 -23.5t72 -62.5t42 -90.5t13 -104.5t-12 -105.5 t-40 -94.5t-71 -68.5t-104 -26.5q-59 0 -103 24.5t-72 64.5t-41 91.5t-13 104.5zM1090 668q2 41 19 78.5t46 66.5t67 46.5t81 17.5q49 0 85.5 -19.5t61.5 -52.5t40 -75t21 -85l-2 2h-411z" />
<glyph unicode="&#xe7;" horiz-adv-x="1009" d="M25 543q0 -96 29.5 -185.5t85 -163t134 -125t175.5 -71.5q-12 -14 -32 -36.5t-38.5 -48.5t-31.5 -50.5t-13 -42.5q0 -35 27.5 -60.5t62.5 -25.5q20 0 40.5 9t35.5 28l159 215q43 4 93.5 14t93.5 32.5t72.5 58.5t29.5 89t-41 94t-96 41q-20 0 -47 -8t-57.5 -17 t-62.5 -16.5t-62 -7.5q-57 0 -101.5 25.5t-75 65.5t-46 91.5t-15.5 102.5q0 55 16.5 105.5t47 88t76.5 60t106 22.5q29 0 63.5 -7t71.5 -17t73 -22.5t64 -22.5l84 266q-92 35 -177 60.5t-185 25.5q-121 0 -223.5 -43t-177 -120t-116.5 -180t-42 -224z" />
<glyph unicode="&#xe8;" horiz-adv-x="1114" d="M-2 551q0 -129 45 -233.5t125 -179.5t187.5 -115.5t232.5 -40.5q78 0 148.5 13t142.5 42l-43 242q-55 -12 -111.5 -23.5t-112.5 -11.5q-104 0 -180 59t-98 158h598q72 0 109.5 25.5t37.5 103.5q0 106 -43 201.5t-114.5 167t-168 113.5t-200.5 42q-119 0 -220.5 -44 t-176 -120t-116.5 -178t-42 -221zM248 1432q0 -35 20.5 -65t55.5 -44q6 -8 52 -27.5t102.5 -41t106.5 -39t66 -19.5q23 -8 47 -8q47 0 80 32.5t33 79.5q0 35 -19.5 65t-52.5 42q-6 8 -51 28.5t-101.5 42t-107.5 39t-67 21.5q-23 8 -50 8q-47 0 -80.5 -32.5t-33.5 -81.5z M334 639q6 45 21.5 87t41 75t63.5 52t89 19q47 0 84 -20.5t62.5 -53t41 -74.5t17.5 -85h-2h-418z" />
<glyph unicode="&#xe9;" horiz-adv-x="1099" d="M-10 551q0 -129 45 -233.5t125 -179.5t187.5 -115.5t232.5 -40.5q78 0 148.5 13t141.5 42l-43 242q-55 -12 -111.5 -23.5t-111.5 -11.5q-104 0 -180 59t-98 158h598q72 0 109.5 25.5t37.5 103.5q0 106 -43 201.5t-114.5 167t-168 113.5t-200.5 42q-119 0 -220.5 -44 t-176 -120t-116.5 -178t-42 -221zM246 1298q0 -49 34.5 -81.5t81.5 -32.5q27 0 50 10q10 2 37.5 11t62.5 21.5t74 28t71.5 29.5t55 24.5t24.5 16.5q33 12 52.5 42t19.5 65q0 47 -34 79.5t-81 32.5q-23 0 -47 -8q-10 -2 -37.5 -10t-62.5 -21.5t-74 -28t-71.5 -28.5t-55 -24.5 t-27.5 -16.5q-31 -12 -52 -43t-21 -66zM326 639q6 45 21 87t41 75t63.5 52t89.5 19q47 0 84 -20.5t62.5 -53t40.5 -74.5t17 -85h-2h-417z" />
<glyph unicode="&#xea;" horiz-adv-x="1169" d="M23 551q0 -129 45 -233.5t124.5 -179.5t187 -115.5t232.5 -40.5q78 0 148.5 13t142.5 42l-43 242q-55 -12 -111.5 -23.5t-111.5 -11.5q-104 0 -180 59t-99 158h598q72 0 110 25.5t38 103.5q0 106 -43 201.5t-115 167t-168 113.5t-200 42q-119 0 -220.5 -44t-176.5 -120 t-116.5 -178t-41.5 -221zM172 1300q0 -47 33 -81.5t80 -34.5q20 0 58 13t79 29.5t78 34t57 25.5q20 -10 56 -26.5t76 -33t77 -28.5t59 -12q47 0 82 33.5t35 80.5q0 37 -19.5 66t-54.5 43l-250 98q-14 6 -29.5 11.5t-31.5 5.5t-30.5 -5.5t-30.5 -11.5l-254 -102 q-31 -12 -50.5 -41t-19.5 -64zM358 639q6 45 21.5 87t41 75t63.5 52t89 19q47 0 84 -20.5t62.5 -53t41 -74.5t17.5 -85h-2h-418z" />
<glyph unicode="&#xeb;" horiz-adv-x="1159" d="M20 551q0 -129 45.5 -233.5t125 -179.5t187 -115.5t232.5 -40.5q78 0 148.5 13t142.5 42l-43 242q-55 -12 -111.5 -23.5t-111.5 -11.5q-104 0 -180 59t-99 158h598q72 0 110 25.5t38 103.5q0 106 -43 201.5t-115 167t-168 113.5t-201 42q-119 0 -220 -44t-176 -120 t-117 -178t-42 -221zM199 1346q0 -66 44 -110t109 -44q63 0 106.5 44t43.5 107q0 61 -43.5 106.5t-106.5 45.5q-61 0 -107 -43t-46 -106zM356 639q6 45 21.5 87t41 75t63.5 52t89 19q47 0 84 -20.5t62.5 -53t41 -74.5t17.5 -85h-2h-418zM610 1341q0 -61 45 -105t105 -44 q66 0 109.5 43t43.5 106q0 66 -44 110t-109 44q-63 0 -106.5 -45t-43.5 -109z" />
<glyph unicode="&#xec;" horiz-adv-x="499" d="M-41 1432q0 -35 20.5 -65t55.5 -44q6 -8 51 -27.5t101.5 -41t106.5 -39t66 -19.5q25 -8 48 -8q47 0 80.5 32.5t33.5 79.5q0 35 -19.5 64t-53.5 43q-6 8 -51.5 28.5t-101.5 42t-107.5 40t-65.5 20.5q-14 6 -26.5 7t-22.5 1q-47 0 -81 -32.5t-34 -81.5zM104 0h316v958 q0 31 -12.5 60t-34 50.5t-49 34.5t-60.5 13q-66 0 -113 -45t-47 -113v-958z" />
<glyph unicode="&#xed;" horiz-adv-x="503" d="M-39 1298q0 -49 36 -81.5t83 -32.5q20 0 47 10q10 2 36.5 11t62.5 21.5t74 28t70.5 29.5t55.5 24.5t27 16.5q33 12 53 42t20 65q0 47 -33.5 79.5t-80.5 32.5q-25 0 -47 -8q-10 -2 -38 -10t-63 -21.5t-73.5 -28t-71.5 -28.5t-55.5 -24.5t-26.5 -16.5q-35 -14 -55.5 -44 t-20.5 -65zM102 0h316v958q0 31 -12.5 60t-34 50.5t-49 34.5t-60.5 13q-66 0 -113 -45t-47 -113v-958z" />
<glyph unicode="&#xee;" horiz-adv-x="811" d="M6 1300q0 -47 34 -81.5t81 -34.5q20 0 58 13t78 29.5t78 34t58 25.5q20 -10 56 -26.5t76 -33t76 -28.5t58 -12q47 0 83 33.5t36 80.5q0 37 -19.5 66t-53.5 43l-252 98q-12 6 -28.5 11.5t-33.5 5.5q-14 0 -29.5 -5.5t-31.5 -11.5l-252 -102q-33 -12 -52.5 -41t-19.5 -64z M254 0h315v958q0 31 -12 60t-33.5 50.5t-49.5 34.5t-60 13q-66 0 -113 -45t-47 -113v-958z" />
<glyph unicode="&#xef;" horiz-adv-x="716" d="M-12 1346q0 -66 43 -110t108 -44q63 0 107.5 44t44.5 107q0 61 -44.5 106.5t-105.5 45.5q-63 0 -108 -43t-45 -106zM205 0h315v958q0 31 -12 60t-33.5 50.5t-49.5 34.5t-60 13q-66 0 -113 -45t-47 -113v-958zM399 1341q0 -61 44 -105t106 -44q63 0 108 43t45 106 q0 66 -45 110t-108 44t-106.5 -45t-43.5 -109z" />
<glyph unicode="&#xf0;" />
<glyph unicode="&#xf1;" horiz-adv-x="1216" d="M86 -2h315v668q0 78 53.5 132t131.5 54t133 -55.5t55 -132.5v-529q0 -66 46 -110.5t112 -44.5q33 0 61.5 12t50 33.5t34 51t12.5 62.5v576q0 92 -33 165.5t-91.5 126t-136 81t-165.5 28.5q-86 0 -164 -34.5t-127 -106.5q-8 55 -37 100t-94 45q-33 0 -61.5 -13t-49 -35.5 t-33 -51.5t-12.5 -62v-960zM223 1192h137q0 14 3.5 31.5t11.5 33t19.5 25.5t29.5 10q31 0 69.5 -15t80.5 -33.5t86.5 -34t87.5 -15.5q55 0 93 26.5t61.5 68.5t34.5 92.5t11 97.5h-18h-119q0 -14 -4 -31.5t-11.5 -33t-19.5 -26t-28 -10.5q-35 0 -74 15.5t-80 34t-84 34 t-86 15.5q-53 0 -90 -23.5t-61.5 -61.5t-36 -84t-13.5 -91v-25z" />
<glyph unicode="&#xf2;" horiz-adv-x="1107" d="M-10 547q0 -115 41 -218.5t113.5 -181t173 -124t219.5 -46.5t218 46.5t170.5 125t112.5 182t41 220.5q0 115 -41 218t-113.5 181t-172 123t-217.5 45q-119 0 -218.5 -46t-172 -124t-113.5 -181t-41 -220zM250 1432q0 -35 20.5 -65t55.5 -44q6 -8 52 -27.5t102.5 -41 t106.5 -39t66 -19.5q23 -8 47 -8q47 0 80 32.5t33 79.5q0 35 -18.5 65t-53.5 42q-4 8 -50 28.5t-102.5 42t-107.5 39t-67 21.5q-23 8 -49 8q-47 0 -81 -32.5t-34 -81.5zM305 549q0 51 14.5 103.5t42 95.5t70.5 69.5t103 26.5q59 0 103 -26.5t72.5 -68.5t42 -95.5 t13.5 -104.5q0 -53 -13.5 -107.5t-41 -97.5t-71.5 -70.5t-105 -27.5q-59 0 -103.5 27.5t-72 71.5t-41 98.5t-13.5 105.5z" />
<glyph unicode="&#xf3;" horiz-adv-x="1107" d="M-10 547q0 -115 41 -218.5t113.5 -181t173 -124t219.5 -46.5t218 46.5t170.5 125t112.5 182t41 220.5q0 115 -41 218t-113.5 181t-172 123t-217.5 45q-119 0 -218.5 -46t-172 -124t-113.5 -181t-41 -220zM256 1298q0 -49 35 -81.5t82 -32.5q27 0 49 10q10 2 37.5 11 t62.5 21.5t74 28t71.5 29.5t54 24.5t26.5 16.5q33 12 52 42t19 65q0 47 -33.5 79.5t-80.5 32.5q-23 0 -48 -8q-10 -2 -37.5 -10t-62.5 -21.5t-74 -28t-71.5 -28.5t-55 -24.5t-26.5 -16.5q-33 -12 -53.5 -43t-20.5 -66zM305 549q0 51 14.5 103.5t42 95.5t70.5 69.5t103 26.5 q59 0 103 -26.5t72.5 -68.5t42 -95.5t13.5 -104.5q0 -53 -13.5 -107.5t-41 -97.5t-71.5 -70.5t-105 -27.5q-59 0 -103.5 27.5t-72 71.5t-41 98.5t-13.5 105.5z" />
<glyph unicode="&#xf4;" horiz-adv-x="1189" d="M31 547q0 -115 41 -218.5t113.5 -181t173 -124t219.5 -46.5t218 46.5t170.5 125t112.5 182t41 220.5q0 115 -41 218t-113.5 181t-172 123t-218.5 45t-218 -46t-171.5 -124t-113.5 -181t-41 -220zM190 1300q0 -47 33 -81.5t80 -34.5q20 0 58 13t79 29.5t78 34t57 25.5 q20 -10 56.5 -26.5t76.5 -33t76.5 -28.5t59.5 -12q47 0 82 33.5t35 80.5q0 37 -20.5 66t-53.5 43l-250 98q-16 6 -30.5 11.5t-31.5 5.5q-16 0 -31.5 -5.5t-29.5 -11.5l-254 -102q-33 -12 -51.5 -41t-18.5 -64zM346 549q0 51 14.5 103.5t42 95.5t70.5 69.5t102 26.5 t103.5 -26.5t73 -68.5t42 -95.5t13.5 -104.5q0 -53 -13.5 -107.5t-41 -97.5t-71.5 -70.5t-106 -27.5q-59 0 -103 27.5t-71.5 71.5t-41 98.5t-13.5 105.5z" />
<glyph unicode="&#xf5;" horiz-adv-x="1185" d="M29 547q0 -115 41 -218.5t113.5 -181t173 -124t218.5 -46.5q119 0 218.5 46.5t171 125t112.5 182t41 220.5q0 115 -41 218t-113.5 181t-172 123t-218.5 45t-218 -46t-171.5 -124t-113.5 -181t-41 -220zM202 1245q1 -8 1 -12h137q0 14 3 31.5t11 33t19.5 25.5t29.5 10 q31 0 70 -15t81 -33.5t86 -34t87 -15.5q55 0 93 26.5t61.5 68.5t35 92.5t11.5 97.5h-19h-118q0 -14 -4.5 -32t-11.5 -33t-19.5 -25.5t-28.5 -10.5q-35 0 -74 15.5t-80 34t-84 34t-86 15.5q-53 0 -91 -24t-61.5 -61.5t-35.5 -83.5t-12 -92q-2 -4 -1 -12zM344 549 q0 51 14.5 103.5t42 95.5t70.5 69.5t102 26.5t103.5 -26.5t73 -68.5t42 -95.5t13.5 -104.5q0 -53 -13.5 -107.5t-41 -97.5t-71.5 -70.5t-106 -27.5q-59 0 -103 27.5t-71.5 71.5t-41 98.5t-13.5 105.5z" />
<glyph unicode="&#xf6;" horiz-adv-x="1173" d="M23 549q0 -117 40.5 -220.5t113.5 -181t173.5 -124t218.5 -46.5q119 0 218.5 46.5t171 125t112.5 182t41 220.5q0 115 -41 218t-113.5 181t-172 123t-218.5 45t-218 -45t-172 -123t-113.5 -181t-40.5 -220zM213 1350q0 -61 45 -104.5t107 -43.5q63 0 107 44.5t44 107.5 q0 61 -44 106t-107 45q-66 0 -109 -45t-43 -110zM338 545q0 51 13.5 104t42 96t72.5 71t103 28t102.5 -26.5t72 -69.5t42 -96.5t13.5 -104.5q0 -55 -13.5 -108.5t-41 -96.5t-72.5 -69.5t-107 -26.5q-59 0 -102 27.5t-70.5 70.5t-41 96.5t-13.5 104.5zM621 1352h2 q0 -61 44 -105.5t105 -44.5q63 0 107.5 44t44.5 108q0 63 -44 107t-106 44q-66 0 -109.5 -45t-43.5 -108z" />
<glyph unicode="&#xf7;" />
<glyph unicode="&#xf8;" horiz-adv-x="1228" d="M33 4l73 -61l144 159q70 -61 157 -93t179 -32q119 0 219 45.5t174 122t115 180t41 220.5q0 104 -32 199.5t-95 177.5q10 10 33.5 34.5t48 51t44 52.5t19.5 38q0 20 -13.5 36.5t-35.5 16.5q-18 0 -42 -18.5t-47.5 -44t-45 -51t-33.5 -40.5q-145 123 -338 123 q-119 0 -219 -45t-174 -121.5t-115 -180t-41 -220.5q0 -102 33 -199.5t94 -179.5zM362 549q0 51 14.5 103.5t42 95.5t70.5 69.5t103 26.5q84 -1 141 -58l-342 -387q-12 35 -20.5 73t-8.5 77zM446 305l347 391q16 -37 22 -75.5t6 -79.5q0 -53 -13 -105.5t-42 -94.5t-73 -67.5 t-103 -25.5q-39 0 -77 14t-67 43z" />
<glyph unicode="&#xf9;" horiz-adv-x="1103" d="M33 451q0 -242 133 -356.5t369 -114.5t367.5 114.5t131.5 358.5v-2v505q0 66 -46 112t-111 46q-33 0 -62 -12t-50.5 -33.5t-33.5 -51.5t-12 -63v-499q0 -92 -45 -145.5t-139 -53.5q-96 0 -141.5 54.5t-45.5 144.5v630h-227h-88v-634zM248 1432q0 -35 20.5 -65t55.5 -44 q6 -8 52 -27.5t102.5 -41t106.5 -39t66 -19.5q23 -8 47 -8q47 0 80 32.5t33 79.5q0 35 -19.5 65t-52.5 42q-6 8 -51 28.5t-101.5 42t-107.5 39t-67 21.5q-23 8 -50 8q-47 0 -80.5 -32.5t-33.5 -81.5z" />
<glyph unicode="&#xfa;" horiz-adv-x="1103" d="M33 451q0 -242 133 -356.5t369 -114.5t367.5 114.5t131.5 358.5v-2v505q0 66 -46 112t-111 46q-33 0 -62 -12t-50.5 -33.5t-33.5 -51.5t-12 -63v-499q0 -92 -45 -145.5t-139 -53.5q-96 0 -141.5 54.5t-45.5 144.5v630h-227h-88v-634zM254 1298q0 -49 35 -81.5t82 -32.5 q27 0 49 10q10 2 36.5 11t62.5 21.5t74 28t70.5 29.5t55 24.5t26.5 16.5q33 12 52.5 42t19.5 65q0 47 -33.5 79.5t-81.5 32.5q-23 0 -47 -8q-10 -2 -37.5 -10t-62.5 -21.5t-74 -28t-71.5 -28.5t-55 -24.5t-26.5 -16.5q-33 -12 -53.5 -43t-20.5 -66z" />
<glyph unicode="&#xfb;" horiz-adv-x="1167" d="M63 451q0 -242 133.5 -356.5t368.5 -114.5q236 0 368 114.5t132 358.5v-2v505q0 66 -46 112t-112 46q-33 0 -61.5 -12t-50 -33.5t-33.5 -51.5t-12 -63v-499q0 -92 -45.5 -145.5t-139.5 -53.5q-96 0 -141 54.5t-45 144.5v630h-227h-89v-634zM178 1300q0 -47 33 -81.5 t80 -34.5q20 0 58 13t79 29.5t78 34t57 25.5q20 -10 56 -26.5t76 -33t77 -28.5t59 -12q47 0 82 33.5t35 80.5q0 37 -20.5 66t-53.5 43l-249 98q-16 6 -30.5 11.5t-31.5 5.5q-16 0 -31.5 -5.5t-29.5 -11.5l-254 -102q-33 -12 -51.5 -41t-18.5 -64z" />
<glyph unicode="&#xfc;" horiz-adv-x="1163" d="M61 451q0 -242 133.5 -356.5t368.5 -114.5q236 0 368 114.5t132 358.5v-2v505q0 66 -46 112t-112 46q-33 0 -61.5 -12t-50 -33.5t-33.5 -51.5t-12 -63v-499q0 -92 -45.5 -145.5t-139.5 -53.5q-96 0 -141 54.5t-45 144.5v630h-227h-89v-634zM207 1348q0 -61 45 -104.5 t106 -43.5t106.5 44t45.5 108q0 61 -45 106t-107 45q-66 0 -108.5 -44.5t-42.5 -110.5zM616 1348q0 -63 45.5 -105.5t108.5 -42.5q61 0 105.5 44.5t44.5 107.5t-44.5 107t-107.5 44q-66 0 -109 -45t-43 -110z" />
<glyph unicode="&#xfd;" />
<glyph unicode="&#xfe;" />
<glyph unicode="&#xff;" horiz-adv-x="1009" d="M-12 981l354 -909q-4 -8 -24.5 -53.5t-45 -99.5t-46 -105.5t-25.5 -71.5q-23 -55 -23 -92q0 -61 48 -101.5t108 -40.5q57 0 93 34t56 85q8 6 32 56.5t56.5 129t72.5 178t81 205t80 211t70.5 195.5t54 156.5t31.5 97.5q14 35 20 64t6 45q0 66 -47 108.5t-111 42.5 q-61 0 -97 -38t-52 -91l-178 -538l-230 649zM143 1346q0 -66 43 -110t109 -44q63 0 107 44t44 107q0 61 -44 106.5t-105 45.5q-63 0 -108.5 -43t-45.5 -106zM555 1341q0 -61 44 -105t106 -44q63 0 108 43t45 106q0 66 -45 110t-108 44t-106.5 -45t-43.5 -109z" />
<glyph unicode="&#x152;" horiz-adv-x="2021" d="M-4 723q0 -147 53 -283.5t146.5 -239t223.5 -164t283 -61.5q57 0 119 11.5t119 34t107.5 56.5t87.5 79v2q2 -8 6 -26.5t7 -38t7 -35t8 -17.5q4 -20 26.5 -30.5t51.5 -10.5l571 -4q59 0 102.5 42t43.5 101t-42 101.5t-101 42.5h-404v307h344q59 0 101 42t42 101 t-40.5 101.5t-102.5 42.5h-344v309h451v284l-74 5h-541q-37 0 -58.5 -13.5t-32.5 -36t-15 -52.5t-4 -60q-37 49 -84 85t-102.5 59.5t-116 33.5t-119.5 10q-76 0 -146 -12q-133 -23 -239.5 -95.5t-180 -177t-113.5 -232.5t-40 -261zM326 737q0 88 21.5 174t67.5 155 t117.5 111t172.5 42q98 0 170.5 -41t119.5 -109t71 -153t24 -173q0 -90 -21.5 -175t-68 -152.5t-118 -108.5t-171.5 -41q-98 0 -171 41t-121 106.5t-70.5 150.5t-22.5 173z" />
<glyph unicode="&#x153;" horiz-adv-x="1916" d="M10 551q0 -117 39 -220.5t110.5 -181t170 -123.5t219.5 -46q111 0 209 43t170 127q76 -86 180 -128t221 -42q37 0 81 4t89 10t88 16t76 23q-8 39 -20.5 87t-22.5 95q-2 4 -6 23.5t-4 23.5q-4 8 -4 17v2q-14 -2 -30.5 -7.5t-29.5 -9.5q-47 -12 -92 -21.5t-92 -9.5 q-111 0 -180.5 62.5t-89.5 167.5h608q68 0 103.5 26.5t35.5 98.5q0 82 -28.5 164t-78 150.5t-115 115.5t-146 73.5t-171.5 26.5q-121 0 -206.5 -44t-165.5 -126q-72 78 -167 124t-206 46q-119 0 -218 -45t-172 -123t-114 -180t-41 -219zM324 543q0 49 13 103t41 98t69.5 73 t101.5 29q61 0 104 -24.5t72 -65.5t42 -92.5t13 -106.5q0 -53 -12 -107.5t-39 -98.5t-70 -71.5t-106 -27.5q-59 0 -102 25.5t-72 67.5t-42 93t-13 105zM1092 641q6 43 21 85t40 73.5t61.5 52t85.5 20.5q47 0 86 -19t67 -51t42 -74t14 -87h-417z" />
<glyph unicode="&#x178;" horiz-adv-x="1236" d="M0 1305q0 -4 5 -11.5t7 -11.5l428 -590v-545q0 -68 47.5 -116.5t116.5 -48.5q68 0 116 49t48 116v545l397 545q14 20 22.5 42.5t8.5 47.5q0 33 -12.5 61.5t-34 51t-51 36t-62.5 13.5q-43 0 -82 -22.5t-61 -57.5l-291 -428l-348 518zM246 1718q0 -66 44 -109.5t109 -43.5 q63 0 106.5 45t43.5 106q0 63 -43.5 107.5t-106.5 44.5q-61 0 -107 -43t-46 -107zM657 1714q0 -59 45.5 -104t104.5 -45q66 0 110 42.5t44 108.5q0 63 -44.5 107.5t-109.5 44.5q-63 0 -106.5 -45t-43.5 -109z" />
<glyph unicode="&#x2c6;" horiz-adv-x="737" d="M-29 1300q0 -47 33 -81.5t80 -34.5q20 0 58 13t79 29.5t78 34t57 25.5q20 -10 56.5 -26.5t76 -33t76.5 -28.5t60 -12q47 0 81.5 33.5t34.5 80.5q0 37 -20.5 66t-52.5 43l-250 98q-16 6 -30.5 11.5t-31.5 5.5q-16 0 -31.5 -5.5t-29.5 -11.5l-254 -102q-33 -12 -51.5 -41 t-18.5 -64z" />
<glyph unicode="&#x2dc;" horiz-adv-x="770" d="M10 1171h137q0 14 3.5 32t11.5 33t19.5 25.5t29.5 10.5q31 0 69.5 -15.5t80.5 -34t86.5 -33.5t87.5 -15q55 0 93 26.5t61.5 68.5t34.5 92t11 97h-18h-119q0 -14 -4 -31.5t-11.5 -33t-19.5 -25.5t-28 -10q-35 0 -74 15.5t-80 33.5t-84 33.5t-86 15.5q-53 0 -90 -23.5 t-61.5 -61.5t-36 -84t-13.5 -91v-25z" />
<glyph unicode="&#x2000;" horiz-adv-x="964" />
<glyph unicode="&#x2001;" horiz-adv-x="1929" />
<glyph unicode="&#x2002;" horiz-adv-x="964" />
<glyph unicode="&#x2003;" horiz-adv-x="1929" />
<glyph unicode="&#x2004;" horiz-adv-x="643" />
<glyph unicode="&#x2005;" horiz-adv-x="482" />
<glyph unicode="&#x2006;" horiz-adv-x="321" />
<glyph unicode="&#x2007;" horiz-adv-x="321" />
<glyph unicode="&#x2008;" horiz-adv-x="241" />
<glyph unicode="&#x2009;" horiz-adv-x="385" />
<glyph unicode="&#x200a;" horiz-adv-x="107" />
<glyph unicode="&#x2010;" horiz-adv-x="829" d="M23 643q-4 -27 3 -53.5t20 -48t32.5 -35.5t38.5 -14h596l-2 264h-523q-18 0 -45.5 -7.5t-52 -20.5t-44 -34.5t-23.5 -50.5z" />
<glyph unicode="&#x2011;" horiz-adv-x="829" d="M23 643q-4 -27 3 -53.5t20 -48t32.5 -35.5t38.5 -14h596l-2 264h-523q-18 0 -45.5 -7.5t-52 -20.5t-44 -34.5t-23.5 -50.5z" />
<glyph unicode="&#x2012;" horiz-adv-x="829" d="M23 643q-4 -27 3 -53.5t20 -48t32.5 -35.5t38.5 -14h596l-2 264h-523q-18 0 -45.5 -7.5t-52 -20.5t-44 -34.5t-23.5 -50.5z" />
<glyph unicode="&#x2013;" horiz-adv-x="1189" d="M68 715q0 -47 30.5 -87t81.5 -40h846h51l2 252h-899q-49 0 -80.5 -39t-31.5 -86z" />
<glyph unicode="&#x2014;" horiz-adv-x="1150" d="M59 457l992 2l-2 295h-990v-297z" />
<glyph unicode="&#x2018;" horiz-adv-x="495" d="M-2 1055l281 -131l188 428q14 29 14 65q0 61 -42 106.5t-103 45.5q-43 0 -82 -24.5t-57 -65.5z" />
<glyph unicode="&#x2019;" horiz-adv-x="491" d="M-4 1053q0 -59 42 -104.5t103 -45.5q43 0 82 24.5t58 63.5l198 426l-280 131l-191 -430q-8 -16 -10 -32.5t-2 -32.5z" />
<glyph unicode="&#x201a;" horiz-adv-x="499" d="M0 -174q0 -61 42 -106.5t103 -45.5q43 0 82 23.5t58 64.5q8 4 30.5 51.5t50 110t55.5 127t44 104.5t18 44l-245 135l-24 -45t-53.5 -100.5t-54 -103.5t-26.5 -54q-8 -14 -21.5 -43t-27 -59.5t-22.5 -59.5t-9 -43z" />
<glyph unicode="&#x201c;" horiz-adv-x="964" d="M-2 1034l278 -131l218 477q14 35 14 66q0 61 -42 106t-106 45q-43 0 -81.5 -24.5t-55.5 -63.5zM426 1034l281 -131l217 477q12 31 12 66q0 61 -41 106t-104 45q-43 0 -83 -24.5t-57 -63.5z" />
<glyph unicode="&#x201d;" horiz-adv-x="958" d="M-6 1055q0 -61 42 -106.5t103 -45.5q43 0 82 24.5t58 63.5l225 475l-281 131l-217 -479q-12 -29 -12 -63zM422 1055q0 -61 43 -106.5t104 -45.5q43 0 82 23.5t58 64.5l223 475l-279 131l-217 -479q-14 -33 -14 -63z" />
<glyph unicode="&#x201e;" horiz-adv-x="966" d="M-2 -174q0 -61 42 -106.5t103 -45.5q43 0 82 25t58 63l225 476l-281 131l-217 -480q-12 -29 -12 -63zM426 -174q0 -61 43 -106.5t104 -45.5q43 0 82 23.5t58 64.5l223 476l-279 131l-217 -480q-14 -33 -14 -63z" />
<glyph unicode="&#x2022;" horiz-adv-x="704" d="M20 737q0 -59 23 -110.5t61.5 -90t90 -61t110.5 -22.5q57 0 109.5 22.5t91.5 61t61.5 90t22.5 110.5q0 57 -22.5 109.5t-61.5 91.5t-91.5 61.5t-109.5 22.5q-59 0 -110.5 -22.5t-90 -61.5t-61.5 -91t-23 -110z" />
<glyph unicode="&#x2026;" horiz-adv-x="1478" d="M57 141q0 -68 49.5 -117t118.5 -49q68 0 117 49.5t49 118.5h-2q0 68 -48 117t-118 49q-68 0 -117 -49t-49 -119zM549 141q0 -68 48 -117t118 -49t118 49t48 119q0 68 -48.5 117t-117.5 49q-70 0 -118 -49t-48 -119zM1038 141q0 -68 49.5 -117t118.5 -49q68 0 117 49 t49 119q0 68 -49 117t-119 49q-68 0 -117 -49t-49 -119z" />
<glyph unicode="&#x202f;" horiz-adv-x="385" />
<glyph unicode="&#x2039;" horiz-adv-x="589" d="M49 481q0 -4 5 -13t12.5 -18.5t13.5 -18.5t8 -13l195 -268q20 -29 48.5 -46.5t63.5 -17.5q51 0 89 37t38 88q0 29 -13 53.5t-30 46.5l-174 236l178 231q16 23 27.5 46.5t11.5 52.5q0 49 -34 86.5t-85 37.5q-35 0 -67.5 -19t-54.5 -48l-228 -291q-2 -2 -3 -26.5t-1 -53.5 v-53v-29z" />
<glyph unicode="&#x203a;" horiz-adv-x="557" d="M41 211q0 -51 36 -88t87 -37q35 0 66.5 19.5t52.5 48.5l209 290q2 2 3 27t1 53v54v28q0 10 -16.5 34t-20.5 30l-178 268q-16 29 -46 45t-65 16q-51 0 -89 -35.5t-38 -86.5q0 -29 12.5 -53.5t28.5 -47.5l174 -233l-176 -234q-16 -23 -28.5 -46t-12.5 -52z" />
<glyph unicode="&#x205f;" horiz-adv-x="482" />
<glyph unicode="&#x2122;" horiz-adv-x="1527" d="M51 1413q0 -23 13.5 -38t31.5 -19q8 -4 29.5 -5t46.5 -1t45.5 1t28.5 1v-600h135v600q6 0 27.5 -1t46.5 -1t46 1t29 5q18 4 31.5 18t13.5 39t-17 43.5t-44 18.5h-401q-25 0 -43.5 -17.5t-18.5 -44.5zM545 756l133 -11l80 531l157 -539h140l157 539l78 -531l135 11 q0 4 -1 11t-1 11l-106 631q-6 33 -31.5 54.5t-60.5 21.5t-59.5 -19.5t-35.5 -54.5l-147 -496l-145 496q-10 33 -34 53.5t-59 20.5t-62.5 -21.5t-31.5 -56.5l-106 -629v-22z" />
<glyph unicode="&#x25fc;" horiz-adv-x="1126" d="M0 0v1126h1126v-1126h-1126z" />
</font>
</defs>
</svg>
