<?xml version="1.0" standalone="no"?>
<!DOCTYPE svg PUBLIC "-//W3C//DTD SVG 1.1//EN" "http://www.w3.org/Graphics/SVG/1.1/DTD/svg11.dtd" >
<svg xmlns="http://www.w3.org/2000/svg">
<metadata></metadata>
<defs>
<font id="folks-heavyregular" horiz-adv-x="0" >
<font-face units-per-em="2048" ascent="1638" descent="-410" />
<missing-glyph horiz-adv-x="593" />
<glyph horiz-adv-x="2048" />
<glyph horiz-adv-x="2048" />
<glyph horiz-adv-x="682" />
<glyph horiz-adv-x="800" d="M2 1448q0 -72 48 -121t118 -79.5t146.5 -44t131.5 -13.5q59 0 139.5 13.5t153 44t122.5 81.5t50 129q0 59 -34.5 102.5t-98.5 43.5q-10 0 -21.5 -1t-21.5 -8q-61 -45 -123.5 -72.5t-140.5 -27.5q-68 0 -119 17.5t-91 37t-71.5 37t-58.5 17.5q-29 0 -53.5 -14.5t-41 -37 t-25.5 -50t-9 -54.5z" />
<glyph />
<glyph horiz-adv-x="616" d="M49 1411q0 -53 23.5 -95t60.5 -70.5t85 -44t97 -15.5q47 0 94.5 16.5t84 45t59 70.5t22.5 93t-23.5 93t-60 71t-84 44t-96.5 15q-47 0 -94 -15t-84 -44t-60.5 -71t-23.5 -93zM254 1411q0 23 18.5 39t40.5 16q23 0 39.5 -17t16.5 -40t-16.5 -39t-39.5 -16q-27 0 -43 15 t-16 42z" />
<glyph unicode="&#xa;" horiz-adv-x="942" d="M59 426q20 -27 44 -51.5t47 -46.5l116 108q45 -33 98.5 -50t108.5 -17t108.5 17t98.5 50l111 -110q23 23 47 46t45 50l-109 106q33 45 51.5 99.5t18.5 109.5q0 59 -16.5 114.5t-51.5 102.5l107 101q-16 27 -41 55.5t-51 44.5l-111 -115q-45 33 -98.5 49.5t-108.5 16.5 q-113 0 -209 -68l-112 115q-27 -23 -48.5 -46.5t-40.5 -49.5l105 -105q-59 -96 -59 -211t59 -209zM236 737q0 49 19 93t51 76t76 51.5t93 19.5t93 -18.5t77 -51.5t51.5 -77t18.5 -93t-18.5 -93t-51.5 -76.5t-77 -51t-93 -18.5t-93 19.5t-76 51t-51 75.5t-19 93z" />
<glyph />
<glyph horiz-adv-x="768" d="M-8 1477q0 -45 23.5 -82t64.5 -54l289 -116q18 -8 37.5 -14.5t42.5 -6.5q18 0 37.5 5t35.5 14l281 114q41 16 67.5 54.5t26.5 85.5q0 61 -44 104t-103 43q-25 0 -67 -14.5t-87 -32.5t-86 -37t-66 -27q-23 8 -64.5 28t-87.5 38t-88 32.5t-67 14.5q-61 0 -103 -44t-42 -105 z" />
<glyph unicode="&#xd;" horiz-adv-x="499" d="M66 4l456 -2v889q0 45 -18.5 87t-49 73.5t-71.5 50t-88 18.5t-89 -17.5t-73 -48t-49 -71.5t-18 -90v-889z" />
<glyph horiz-adv-x="550" d="M-254 86l272 -162l762 1368q20 35 21 78q0 66 -47 114t-113 48q-41 0 -78 -21.5t-57 -58.5z" />
<glyph horiz-adv-x="1288" d="M209 524l258 -256l227 211l129 -131q53 -53 131 -53q76 0 127.5 53t51.5 129q0 43 -18.5 79t-46.5 66.5t-59.5 58.5t-58.5 54l133 133q53 53 54 129q0 78 -51.5 131.5t-129.5 53.5q-43 0 -78.5 -18.5t-66.5 -45t-59.5 -59.5t-55.5 -60l-133 134q-53 53 -129 53 t-129 -54.5t-53 -130.5q0 -78 53 -131l133 -133z" />
<glyph horiz-adv-x="935" />
<glyph />
<glyph />
<glyph />
<glyph />
<glyph unicode=" "  horiz-adv-x="593" />
<glyph unicode="&#x09;" horiz-adv-x="593" />
<glyph unicode="&#xa0;" horiz-adv-x="593" />
<glyph unicode="!" horiz-adv-x="583" d="M78 209q0 -51 19.5 -96t53 -79t79.5 -53.5t98 -19.5q51 0 97 19.5t80 53.5t53.5 79t19.5 98q0 51 -19.5 97t-54.5 79t-81 52.5t-97 19.5t-96.5 -19.5t-79 -53.5t-53 -80t-19.5 -97zM98 731q0 -47 18.5 -89t49.5 -72.5t73 -49t89 -18.5t88 18.5t71.5 49t48 71.5t17.5 88 v746l-455 2v-746z" />
<glyph unicode="&#x22;" horiz-adv-x="811" d="M59 958h254l86 517h-295zM473 958h254l86 517h-295z" />
<glyph unicode="#" horiz-adv-x="1251" d="M57 477q0 -27 18.5 -45t43.5 -18h198q-4 -25 -17 -82.5t-26.5 -118.5t-23.5 -115.5t-10 -72.5q0 -27 19.5 -42.5t43.5 -15.5q31 0 52.5 21.5t27.5 50.5l82 375h178q-4 -18 -18.5 -76.5t-29.5 -124.5l-27.5 -121t-12.5 -65q0 -23 18.5 -40.5t40.5 -17.5q33 0 57.5 17.5 t33.5 50.5l86 377h200q39 0 63.5 25.5t24.5 64.5q0 23 -18.5 41t-40.5 18l-199 -2l76 352h195q37 0 68.5 22.5t31.5 63.5q0 29 -18.5 47.5t-47.5 18.5l-198 -4l90 409h-152l-86 -409h-176l86 409h-147l-86 -409l-197 4q-35 0 -64.5 -23.5t-29.5 -62.5q0 -27 18.5 -46.5 t44.5 -19.5h195l-74 -352h-200q-35 0 -64 -24.5t-29 -59.5zM498 561l73 352h179l-76 -352h-176z" />
<glyph unicode="$" horiz-adv-x="1183" d="M29 983q0 -117 55 -193.5t141 -127t187.5 -79t193.5 -46.5l-2 -136q-59 0 -115.5 12.5t-113 32t-111.5 41t-108 39.5l-117 -403q135 -57 276.5 -99t288.5 -42v-181h74v185q104 0 205.5 40t183.5 109.5t132 163.5t50 205q0 113 -49 187.5t-126 124.5t-169 82t-180 56 q-27 8 -45 11l2 108q35 -6 67.5 -17.5t65.5 -22.5t65.5 -19t69.5 -8q84 0 140.5 57t56.5 141t-48 138.5t-119 87t-151.5 46t-146.5 15.5v184q0 16 -9 29.5t-28 13.5q-16 0 -26.5 -12t-10.5 -29v-188q-102 -10 -204.5 -47t-186.5 -100.5t-136 -153.5t-52 -205zM496 1051 q0 12 9 19t22.5 12t26.5 7.5t21 2.5q13 -1 33 -5l-2 -104q-10 2 -28.5 8t-37 14.5t-31.5 19.5t-13 26zM678 403l2 117q8 -4 22.5 -7t26.5 -7t21.5 -11.5t9.5 -19.5q0 -37 -26.5 -49.5t-55.5 -22.5z" />
<glyph unicode="%" horiz-adv-x="1644" d="M68 1135q0 -80 29.5 -147.5t81.5 -118t122 -79t148 -28.5q76 0 144.5 29.5t119.5 81t81.5 120t30.5 144.5q0 78 -29.5 146.5t-80.5 118.5t-120 79.5t-146 29.5q-76 0 -146 -29.5t-122 -81.5t-82.5 -120.5t-30.5 -144.5zM283 154q0 -76 52 -131.5t130 -55.5q49 0 93 23.5 t73 64.5l899 1288l-318 209l-895 -1286q-35 -51 -34 -112zM381 1135q0 27 20.5 43t44.5 16q25 0 45.5 -14.5t20.5 -42.5q0 -29 -20.5 -44.5t-47.5 -15.5q-25 0 -44 15.5t-19 42.5zM928 338q0 -76 30.5 -143.5t82 -118.5t120 -81t144.5 -30t143.5 29t118.5 80t80.5 117.5 t29.5 144.5q0 76 -28.5 143.5t-79.5 118.5t-119 80t-143 29q-78 0 -146.5 -29t-120 -78t-82 -116.5t-30.5 -145.5zM1241 336q0 29 19.5 45t48.5 16q27 0 45 -16t18 -43q0 -29 -21.5 -44t-47.5 -15q-27 0 -44.5 15t-17.5 42z" />
<glyph unicode="&#x26;" horiz-adv-x="1482" d="M47 477q0 -129 53.5 -223t139.5 -155.5t196.5 -92.5t225.5 -31q111 0 195.5 32t182.5 75q18 -18 46 -44t58 -50.5t59.5 -42t56.5 -17.5q43 0 79.5 17.5t64.5 46t43 66.5t15 79q0 63 -26.5 98t-71.5 76l238 195l-285 317l-248 -194l-98 98q57 20 110.5 54t93 80 t63.5 101.5t24 120.5q0 115 -45.5 195t-119 129t-168.5 71.5t-196 22.5q-90 0 -185 -23.5t-173 -71.5t-128 -124t-50 -180q0 -70 24.5 -121t65.5 -104q-104 -66 -172 -168.5t-68 -231.5zM512 492q0 29 15 52.5t38 37.5l195 -199q-27 -6 -51.5 -12t-51.5 -6q-25 0 -50 10 t-46.5 28.5t-35 41t-13.5 47.5zM698 1100q0 25 18.5 43t43.5 18q29 0 52.5 -18.5t23.5 -46.5q0 -18 -20 -46t-36 -36q-25 10 -53.5 32.5t-28.5 53.5z" />
<glyph unicode="'" horiz-adv-x="442" d="M59 958h254l86 517h-295z" />
<glyph unicode="(" horiz-adv-x="573" d="M37 735q0 -92 10 -182t29 -182q8 -37 18 -91.5t24.5 -115t35 -120.5t49 -110.5t65.5 -85t86 -43.5q10 -2 31 -2q37 0 70.5 14.5t61.5 39t44.5 57.5t16.5 70q0 23 -5.5 43t-11.5 41q-53 168 -95 328.5t-42 340.5q0 43 2 92.5t8 99.5t15.5 97t21.5 88q12 35 23.5 87 t23.5 107.5t25.5 106.5t29.5 84q2 0 -30.5 9.5t-78.5 21.5t-95.5 25.5t-80 22.5t-32.5 9q-25 -43 -51.5 -104.5t-51 -128t-45 -133t-32.5 -123.5q-18 -90 -28.5 -180.5t-10.5 -182.5z" />
<glyph unicode=")" horiz-adv-x="573" d="M37 1407q0 -41 16 -86q27 -84 51.5 -165t44 -163t30.5 -167t11 -173q0 -43 -2 -92t-8 -99t-15 -99.5t-22 -88.5q-10 -35 -22 -87t-24.5 -107t-27 -106.5t-28.5 -84.5q-2 0 47 -13t109.5 -29.5t110.5 -30.5l50 -13q25 43 52.5 103.5t52 127t45 133t31.5 124.5 q18 92 28.5 181t10.5 181t-11.5 183.5t-27.5 181.5q-12 57 -29.5 147t-48.5 179.5t-79 158t-122 80.5q-20 4 -33 4q-37 0 -70.5 -14t-60 -39t-43 -57.5t-16.5 -69.5z" />
<glyph unicode="*" horiz-adv-x="819" d="M27 905l211 -24l94 92q-14 -31 -31.5 -68t-17.5 -74q0 -53 39.5 -89.5t93.5 -36.5q53 0 94 36.5t41 92.5q0 35 -17.5 70.5t-31.5 68.5l94 -92l211 24l-125 150l-104 57l110 47l115 150l-203 32l-104 -84q14 29 36.5 64t22.5 70q0 25 -13.5 45t-34 34.5t-45 22.5t-46.5 8 q-23 0 -47.5 -8t-44 -22.5t-32.5 -35t-13 -44.5q0 -35 22.5 -70t36.5 -64l-105 84l-202 -32l114 -150l111 -47l-104 -57z" />
<glyph unicode="+" horiz-adv-x="1286" d="M203 537h311v-189q0 -37 14.5 -69.5t38.5 -59.5q51 -55 129 -55q35 0 69 13t58 40q55 55 56 131v187q39 0 80.5 -3.5t83.5 0t80 14.5t69 42q53 53 53 127q0 72 -55 127q-31 31 -69 43t-80 15t-84 0t-78 -3v188q0 37 -14.5 71t-39 58.5t-58.5 40t-71 15.5 q-76 0 -130 -53.5t-54 -129.5v-184h-309v-366z" />
<glyph unicode="," horiz-adv-x="530" d="M-61 -162q0 -88 58 -150.5t148 -62.5q61 0 116.5 35t82.5 92l217 481l-401 185l-203 -488q-18 -43 -18 -92z" />
<glyph unicode="-" horiz-adv-x="933" d="M49 606q0 -78 54.5 -130t132.5 -52h696l2 367h-698q-39 0 -73 -14.5t-59.5 -39t-40 -58.5t-14.5 -73z" />
<glyph unicode="." horiz-adv-x="602" d="M16 211q0 -53 20.5 -98t54.5 -79t80 -53.5t97 -19.5t96.5 19.5t79 53.5t53 80t19.5 97t-19.5 96t-53 79t-79 53.5t-96.5 19.5t-97 -19.5t-80 -52.5t-54.5 -79t-20.5 -97z" />
<glyph unicode="/" horiz-adv-x="888" d="M14 154q0 -39 15.5 -74t42 -60.5t61.5 -40t74 -14.5q57 0 104 31t70 84l553 1350l-352 143l-553 -1350q-6 -16 -10.5 -33.5t-4.5 -35.5z" />
<glyph unicode="0" horiz-adv-x="1288" d="M41 737q0 -96 19.5 -192t60.5 -182.5t103.5 -160t148.5 -124.5q72 -43 153.5 -69.5t167.5 -26.5t167 25.5t153 70.5q86 51 147.5 124.5t102.5 160t60 182.5t19 192t-19 192.5t-60 183.5t-102.5 162t-147.5 126q-72 43 -153 69.5t-167 26.5t-168 -26.5t-153 -69.5 q-86 -51 -149.5 -125t-103.5 -161t-59.5 -183.5t-19.5 -194.5zM479 737q0 47 11.5 108.5t36 117t65.5 94.5t100 39q61 0 102.5 -38t66 -92.5t35.5 -116t11 -108.5q0 -49 -9 -111.5t-32.5 -119.5t-64.5 -96t-103 -39q-68 0 -109.5 37t-66 92t-34 118.5t-9.5 114.5z" />
<glyph unicode="1" horiz-adv-x="1286" d="M141 1272q0 -43 16.5 -80t45 -65.5t65.5 -45t80 -16.5h129v-1061l473 -2v1249q0 102 -59.5 163t-161.5 61h-383q-86 0 -145.5 -58.5t-59.5 -144.5z" />
<glyph unicode="2" horiz-adv-x="1286" d="M106 1061q0 -45 15.5 -84t44.5 -68.5t66.5 -46t84.5 -16.5q53 0 91 18.5t67 45t52.5 59t48 59.5t55.5 45.5t74 18.5q27 0 55 -14.5t28 -47.5q0 -18 -24.5 -55t-61 -82t-80.5 -93t-84 -90t-69 -72t-37 -38q-61 -63 -123.5 -124.5t-124.5 -123.5q-33 -33 -53 -72.5 t-20 -86.5q0 -49 18 -85t50 -59.5t73 -36t84 -12.5h954v410h-430q63 53 134 125.5t131.5 156.5t99.5 173t39 177q0 115 -50.5 199t-131.5 139.5t-181 83t-201 27.5q-117 0 -215 -28.5t-194 -98.5q-37 -27 -70 -59.5t-58.5 -71.5t-41 -82t-15.5 -90z" />
<glyph unicode="3" horiz-adv-x="1282" d="M109 362q0 -92 59 -163.5t146 -120.5t185.5 -73.5t178.5 -24.5q104 0 210.5 34.5t193.5 99t142.5 156.5t55.5 209q0 121 -59.5 200t-159.5 136q59 51 96 130t37 157q0 100 -44 173t-113.5 120t-156.5 70.5t-175 23.5q-84 0 -156 -15.5t-138.5 -41t-132 -59.5t-139.5 -73 l160 -360q20 8 76.5 31.5t120 48t117 43t67.5 18.5q25 0 51.5 -11t26.5 -42q0 -16 -12.5 -31.5t-28.5 -15.5q-51 0 -100.5 -9t-87 -33t-61.5 -63.5t-24 -99.5v-10q0 -76 27 -115t68 -56t88 -21.5t88 -10.5t67.5 -23.5t26.5 -60.5q0 -45 -37 -67.5t-78 -22.5q-55 0 -99 27.5 t-85 61.5t-87 62.5t-106 28.5q-88 0 -148 -59t-60 -148z" />
<glyph unicode="4" horiz-adv-x="1286" d="M14 483q0 -51 20.5 -89t53.5 -63.5t76 -38.5t90 -13h414v-279l473 2v272q45 0 86 13.5t71.5 39t49 63.5t18.5 87t-17.5 86t-48 63.5t-70.5 40t-85 13.5v438q0 82 -14.5 150.5t-49 119t-94 78t-151.5 27.5q-51 0 -90 -13.5t-72 -36t-61.5 -56t-57.5 -72.5l-496 -701 q-20 -29 -32.5 -62.5t-12.5 -68.5zM461 682l209 324v-324h-209z" />
<glyph unicode="5" horiz-adv-x="1284" d="M92 272q0 -90 61.5 -147t147.5 -90t181.5 -46.5t162.5 -13.5q184 0 328.5 76t224.5 248q23 51 37 107.5t14 111.5q0 92 -33.5 172t-93 137.5t-139.5 90t-172 32.5q-39 0 -81 -4t-79 -14l27 125h455l81 418h-706q-72 0 -132.5 -48.5t-72.5 -119.5l-96 -545q-2 -8 -2 -17 v-18q0 -76 53 -131t131 -55q33 0 63.5 10t61.5 23.5t62.5 23.5t64.5 10q49 0 92 -25.5t43 -82.5q0 -27 -12 -47.5t-32.5 -33.5t-44 -19.5t-48.5 -6.5q-43 0 -85 12.5t-83 26.5t-82 26.5t-84 12.5t-82 -14.5t-67.5 -41t-46 -63.5t-17.5 -80z" />
<glyph unicode="6" horiz-adv-x="1286" d="M100 500q0 -131 49.5 -228.5t133.5 -162t193.5 -96t230.5 -31.5q117 0 222 37.5t183 108.5t124 170t46 222q0 80 -24.5 150.5t-69.5 126t-109.5 94.5t-142.5 55q-35 8 -70.5 11.5t-70.5 7.5q-4 0 26.5 38.5t73.5 94t88 115t70 98.5l-404 217q-74 -102 -147.5 -202.5 t-145.5 -203.5q-37 -53 -80 -109.5t-71 -115.5q-47 -92 -76 -192.5t-29 -204.5zM563 504q0 47 40 76.5t83 29.5q45 0 84 -28.5t39 -75.5t-40 -78t-85 -31q-20 0 -41.5 8.5t-39 22.5t-29 33.5t-11.5 42.5z" />
<glyph unicode="7" horiz-adv-x="1286" d="M92 1067h666l-484 -735q-35 -53 -34 -117q0 -47 18 -88t50 -71.5t75 -48t90 -17.5q66 0 125 33.5t92 93.5l604 1063q25 43 25 92q0 45 -18.5 83t-50 64.5t-71.5 41t-83 14.5h-1004v-408z" />
<glyph unicode="8" horiz-adv-x="1286" d="M82 473q0 -127 53 -218t140 -150.5t197 -88t220 -28.5q111 0 220.5 28.5t196.5 88t140.5 151.5t53.5 219q0 49 -12.5 99.5t-38 94.5t-62.5 77.5t-86 52.5q55 53 86 120.5t31 145.5q0 74 -28 142.5t-75 123.5q-37 45 -86 76t-103.5 50.5t-111.5 27.5t-115 8 q-59 0 -120.5 -7t-117.5 -25.5t-107.5 -49.5t-90.5 -80q-47 -57 -75.5 -124.5t-28.5 -141.5q0 -78 32 -145.5t87 -120.5q-49 -18 -86 -52t-63 -78t-38 -94.5t-12 -101.5zM545 528q0 27 13 51.5t33.5 41t47.5 26.5t51 10q27 0 53.5 -10t48 -27.5t35 -41t13.5 -52.5t-13.5 -52 t-35 -40.5t-47 -27t-52.5 -9.5t-53.5 10.5t-47 28t-33.5 40.5t-13 52zM592 1036q0 41 31.5 65.5t68.5 24.5t69 -25.5t32 -64.5t-32 -63.5t-67 -24.5q-37 0 -69.5 24.5t-32.5 63.5z" />
<glyph unicode="9" horiz-adv-x="1288" d="M100 942q0 -111 39 -190.5t105.5 -132t156 -80t189.5 -35.5q-78 -82 -147.5 -171t-135.5 -181l328 -224q2 2 34.5 33t88 83t112 108.5t105.5 110.5t74 89q45 66 88 139.5t74.5 152.5t51 161t19.5 164q0 131 -49 229t-132 162.5t-192.5 96.5t-230.5 32q-123 0 -228.5 -39 t-183.5 -109.5t-122 -172t-44 -226.5zM573 963q0 47 38 78.5t85 31.5q45 0 84 -30.5t39 -77.5t-39 -77t-84 -30q-43 0 -83 29t-40 76z" />
<glyph unicode=":" horiz-adv-x="585" d="M78 895q0 -51 19.5 -97t53 -80t78.5 -53.5t97 -19.5q51 0 97 19.5t80 53.5t53 79t19 98q0 51 -19 96t-53 79t-79 53.5t-96 19.5t-97.5 -19.5t-80 -53.5t-53 -79t-19.5 -96zM80 211q0 -53 20.5 -98t54 -79t80 -53.5t97.5 -19.5t96 19.5t79 53.5t53.5 80t19.5 97t-19.5 96 t-53.5 79t-79 53.5t-96 19.5t-97.5 -19.5t-80 -52.5t-54 -79t-20.5 -97z" />
<glyph unicode=";" horiz-adv-x="614" d="M-31 -160q0 -90 57.5 -152.5t149.5 -62.5q61 0 116.5 36t82.5 91l260 541l-402 184l-245 -547q-18 -43 -19 -90zM113 891q0 -53 20.5 -99.5t54 -80t79.5 -53t100 -19.5q51 0 97 19.5t80 53t53 80t19 97.5t-20.5 97t-54 81t-79.5 55.5t-97 20.5q-53 0 -98.5 -19.5 t-80 -54.5t-54 -81t-19.5 -97z" />
<glyph unicode="&#x3c;" horiz-adv-x="1001" d="M59 737l863 -477v334l-297 143l297 144v333z" />
<glyph unicode="=" horiz-adv-x="1286" d="M115 305h952q37 0 69.5 14.5t58.5 39t40 57.5t14 69q0 78 -52 131.5t-130 53.5h-950zM117 756h950q78 0 130 53t52 131t-53 130t-131 52h-948v-366z" />
<glyph unicode="&#x3e;" horiz-adv-x="1001" d="M59 260l863 477l-863 477v-333l297 -144l-297 -143v-334z" />
<glyph unicode="?" horiz-adv-x="1069" d="M14 1167q0 -37 12.5 -69.5t35 -57t53 -40t69.5 -15.5q49 0 90 20.5t81 46t83 46t94 20.5q33 0 65 -13t32 -54q0 -23 -22.5 -34t-56.5 -20.5t-74 -20.5t-73.5 -33.5t-56 -62.5t-22.5 -104v-80q0 -45 -1 -87t-1 -72v-29l456 4l-4 201q63 14 120.5 46t99.5 78t66.5 105 t24.5 129q0 115 -48 198t-127 137t-178 80.5t-202 26.5q-72 0 -160.5 -21.5t-167.5 -65.5t-133.5 -108.5t-54.5 -150.5zM295 213q0 -51 19.5 -97t53 -80t80 -53.5t97.5 -19.5t97 19.5t81 53.5t54.5 79t19.5 98q0 51 -20.5 97t-54.5 80t-80 53.5t-97 19.5t-97.5 -19.5 t-80 -53.5t-53 -80t-19.5 -97z" />
<glyph unicode="@" horiz-adv-x="1601" d="M100 418q0 -164 53.5 -303.5t149.5 -242.5t232.5 -161.5t302.5 -58.5q0 4 2 28.5t3 51.5l1 28q-98 0 -177 25t-141.5 71t-111.5 113.5t-92 155.5q-33 66 -47.5 138.5t-14.5 146.5q0 133 45 250.5t127 204.5t195.5 138.5t251.5 51.5q111 0 204 -37t159.5 -104.5 t104 -159.5t37.5 -203q0 -98 -31.5 -197.5t-101.5 -171.5q-25 -27 -56.5 -54.5t-72.5 -27.5q-39 0 -58.5 27t-19.5 61q0 63 10.5 126t20.5 124l74 418h-111l-14 -92q-20 59 -72.5 87t-111.5 28q-96 0 -169 -52.5t-121 -131.5t-72.5 -172t-24.5 -173q0 -61 14 -123.5t47 -115 t83 -85t122 -32.5q78 0 130 42.5t85 110.5q0 -37 13.5 -65.5t37 -49t54 -31.5t65.5 -11q98 0 176 58t131 145.5t81 187.5t28 184q0 137 -51.5 252t-139.5 198t-205.5 129t-253.5 46q-166 0 -306 -58.5t-243.5 -161t-162 -244.5t-58.5 -308zM592 311q0 55 14.5 136t45 156 t79.5 127t121 52q66 0 95.5 -43t29.5 -102q0 -43 -11.5 -115.5t-32 -148.5t-47 -142.5t-59.5 -99.5q-37 -37 -90 -37q-47 0 -74.5 20.5t-44 52.5t-21.5 69.5t-5 74.5z" />
<glyph unicode="A" horiz-adv-x="1357" d="M-33 203q0 -49 19.5 -91t53.5 -72t77 -46.5t92 -16.5q55 0 95 19.5t67.5 52.5t47 75t36.5 89h497l70 -260l463 115l-426 1161q-43 119 -135.5 188.5t-221.5 69.5t-219 -70.5t-137 -187.5l-352 -901q-27 -63 -27 -125zM592 621l110 393l111 -393h-221z" />
<glyph unicode="B" horiz-adv-x="1251" d="M59 -2q150 3 299 3h74q186 -1 375 -1q96 0 184 30.5t155.5 88t107.5 139.5t40 184q0 86 -32.5 161t-98.5 130q-6 4 -17 12.5t-23.5 15.5t-21.5 14t-11 9q41 53 59 119t18 131q0 106 -46 188.5t-119.5 138.5t-168 85t-192.5 29h-340q-51 0 -95 -19.5t-77 -52.5t-51.5 -78 t-18.5 -94v-1233zM532 408v137h224q29 0 47 -21.5t18 -50.5q0 -27 -19.5 -46t-45.5 -19h-224zM535 938v131h104q29 0 54.5 -18.5t25.5 -46.5q0 -29 -23.5 -47.5t-52.5 -18.5h-108z" />
<glyph unicode="C" horiz-adv-x="1318" d="M41 745q0 -125 45 -245.5t123 -218.5q117 -152 283.5 -223.5t355.5 -71.5q66 0 150.5 15t160.5 51t128 94.5t52 142.5q0 43 -17 77.5t-46 60.5t-65.5 39t-77.5 13t-80 -9t-80 -21.5t-83 -21.5t-89 -9q-72 0 -127.5 25.5t-93 69.5t-57 103.5t-19.5 128.5q0 76 25.5 131.5 t68.5 95.5t101.5 64.5t125.5 36.5q27 6 54 6q72 0 156.5 -26.5t148.5 -59.5l127 367q-55 18 -127 39.5t-147.5 39t-148.5 30t-128 12.5h-23q-12 0 -22 -2q-135 -18 -258 -83t-215 -162t-146.5 -222.5t-54.5 -266.5z" />
<glyph unicode="D" horiz-adv-x="1443" d="M59 240q0 -49 18.5 -93.5t50.5 -76t75 -51t92 -19.5h397q162 0 304.5 53t248 149.5t165.5 233.5t60 303q0 92 -20 174q-37 154 -116 260.5t-188.5 173t-243.5 97.5t-281 31q-141 0 -281 -1h-56q-112 0 -225 3v-1237zM532 408v657h95q78 0 145.5 -21.5t118.5 -64.5 t79.5 -105.5t28.5 -144.5q0 -76 -28.5 -135t-76.5 -101t-112.5 -63.5t-136.5 -21.5h-113z" />
<glyph unicode="E" horiz-adv-x="1032" d="M59 242q0 -47 18.5 -90t51.5 -77t76 -54.5t90 -20.5h756l-2 410h-517v127h269q41 0 80 15t69.5 40.5t49 62.5t18.5 80q0 82 -62 139q-68 63 -157 64h-267v125h324q43 0 80 16.5t64.5 45t43 66.5t15.5 79t-15.5 77.5t-42 65.5t-63.5 45.5t-78 16.5h-117l-684 -2v-1231z " />
<glyph unicode="F" horiz-adv-x="970" d="M59 0v1235q0 51 18.5 94t50.5 76t76 51.5t95 18.5h723l2 -414h-489v-146h272q43 0 80 -16t64.5 -45t43 -65.5t15.5 -79.5q0 -41 -16.5 -78t-45 -64.5t-65.5 -43t-78 -15.5h-270v-508h-476z" />
<glyph unicode="G" horiz-adv-x="1554" d="M41 729q0 -176 67.5 -314.5t183.5 -234.5t266.5 -147t315.5 -51q150 0 282 47t230.5 135t155.5 213t57 280q0 113 -50 177.5t-169 64.5h-397q-41 0 -79 -16.5t-66.5 -44t-45 -64.5t-16.5 -80q0 -88 60.5 -148.5t148.5 -60.5h123q-18 -29 -49 -46t-67 -28.5t-72.5 -15.5 t-67.5 -4q-74 0 -137.5 25.5t-109.5 70.5t-72.5 108.5t-26.5 137.5q0 76 25.5 139.5t70.5 110.5t108.5 73.5t139.5 26.5q86 0 173 -35.5t161 -72.5l157 387q-109 68 -233.5 98.5t-251.5 30.5q-160 0 -306.5 -56.5t-260 -157.5t-181 -240.5t-67.5 -307.5z" />
<glyph unicode="H" horiz-adv-x="1492" d="M59 0v1253q0 49 18.5 92.5t50.5 76t75 51t92 18.5q98 0 170 -72q70 -70 70 -168v-297h464v516l476 3v-1256q0 -49 -18.5 -92t-51.5 -75t-75 -51t-91 -19t-92 18t-76 51t-51.5 76t-18.5 92v328h-469v-545h-473z" />
<glyph unicode="I" horiz-adv-x="542" d="M59 -2h473v1253q0 49 -18 92t-50 75t-75 51.5t-92 19.5t-92 -18.5t-76 -50t-51.5 -74.5t-18.5 -93v-1255zM123 1714q0 -66 46 -113t112 -47t111.5 46.5t45.5 111.5q0 66 -46 114t-111 48q-33 0 -62 -13.5t-50.5 -35t-33.5 -50t-12 -61.5z" />
<glyph unicode="J" horiz-adv-x="927" d="M14 98q49 -18 102.5 -38.5t108 -38t108.5 -29.5t107 -12q123 0 216.5 39.5t155.5 110.5t95 170t33 216v733q0 49 -17.5 92t-49 77t-74.5 53.5t-92 19.5t-91.5 -19.5t-74 -51t-50 -74.5t-18.5 -93v-737q0 -18 -2 -40.5t-8 -43t-20.5 -34t-39.5 -13.5q-18 0 -58 11.5 t-86 25.5t-89 29.5t-68 21.5z" />
<glyph unicode="K" horiz-adv-x="1327" d="M59 0h471v616l457 -553q33 -39 80 -58t94 -19q49 0 93 18.5t77 50t52.5 74.5t19.5 92q0 88 -60 154l-370 411l407 402l-348 317l-500 -544v292q0 49 -18 92.5t-50 75t-74 51t-91 19.5t-93 -17.5t-76 -49t-51.5 -74.5t-19.5 -93v-1257z" />
<glyph unicode="L" horiz-adv-x="972" d="M59 0h965v408h-489v843q0 49 -19.5 92t-51.5 76t-75 52.5t-92 19.5t-92 -18.5t-76 -51t-51.5 -75.5t-18.5 -93v-1253z" />
<glyph unicode="M" horiz-adv-x="1849" d="M20 215q0 -49 18.5 -91t49.5 -74t74 -49t92 -17q43 0 83 15t71.5 42t52 63.5t26.5 79.5l70 588l191 -616h407l188 616l101 -795l461 76l-195 1180q-20 121 -105 191.5t-206 70.5q-104 0 -186.5 -61.5t-110.5 -161.5l-152 -514l-151 514q-29 100 -110 161.5t-185 61.5 q-123 0 -207 -71.5t-104 -190.5l-168 -973q-2 -10 -3.5 -22.5t-1.5 -22.5z" />
<glyph unicode="N" horiz-adv-x="1497" d="M59 0l473 -2v723l537 -651q35 -41 82 -63.5t100 -22.5q49 0 93.5 18t76 50t50 75t18.5 92v1032q0 49 -18.5 92t-51.5 75t-74.5 51.5t-91.5 19.5q-49 0 -92 -19.5t-74.5 -51.5t-51 -75t-19.5 -92v-481l-520 610q-39 45 -90.5 79t-112.5 34q-49 0 -92 -19.5t-75 -53.5 t-49.5 -77t-17.5 -92v-1251z" />
<glyph unicode="O" horiz-adv-x="1585" d="M41 737q0 -160 64.5 -298t172 -240.5t250 -160.5t297.5 -58q156 0 298.5 58t250 160.5t172 241t64.5 297.5q0 160 -64.5 298.5t-172 240.5t-250 160.5t-298.5 58.5t-297 -58.5t-249.5 -160.5t-173 -240.5t-64.5 -298.5zM510 737q0 68 22.5 131.5t63.5 110.5t99.5 75.5 t129.5 28.5q72 0 130.5 -28.5t100.5 -76.5t64.5 -111.5t22.5 -133.5q0 -68 -23.5 -129t-65.5 -109.5t-101.5 -76t-129.5 -27.5q-72 0 -129 29t-98 77t-63.5 110t-22.5 130z" />
<glyph unicode="P" horiz-adv-x="1239" d="M59 227q0 -49 18.5 -93t50.5 -77.5t76 -53t93 -19.5q96 0 164 67q37 37 53 83t20 96q3 28 3 55q1 22 -1 44q-4 50 -4 97q68 0 138 -2h23q58 0 114 8q106 14 197.5 55t157 109t102 158t36.5 202q0 119 -46 215.5t-122.5 164t-180 104.5t-216.5 37h-676v-1250zM532 836v221 h189q47 0 81 -31t34 -78t-34 -79.5t-81 -32.5h-189z" />
<glyph unicode="Q" horiz-adv-x="1589" d="M41 737q0 -158 64.5 -296t173 -240.5t250 -163t296.5 -60.5q92 0 176 21.5t170 54.5l287 -282l289 295l-268 264q66 88 98.5 190.5t32.5 212.5q0 160 -63.5 299t-171 242.5t-250 162t-300.5 58.5q-156 0 -298 -58.5t-249.5 -160.5t-172 -240.5t-64.5 -298.5zM510 737 q0 68 22.5 131.5t63.5 110.5t99.5 75.5t129.5 28.5q72 0 130.5 -28.5t99.5 -75.5t63.5 -110.5t22.5 -131.5t-22.5 -130t-63.5 -110t-99.5 -77t-128.5 -29q-72 0 -131 27.5t-100 76t-63.5 110.5t-22.5 132z" />
<glyph unicode="R" horiz-adv-x="1245" d="M59 221q0 -49 18.5 -92t51.5 -76t75 -52t91 -19t91 18t75 50t51 74t18 91v346l431 -633l401 250l-299 412q104 80 162.5 171t58.5 226q0 119 -42 210t-114.5 153.5t-170 94.5t-209.5 32h-689v-1256zM532 889v176h205q35 0 55.5 -28.5t20.5 -61.5q0 -35 -24.5 -60.5 t-59.5 -25.5h-197z" />
<glyph unicode="S" horiz-adv-x="1183" d="M-2 131q53 -31 132 -58.5t165 -47t168 -30.5t143 -11q154 0 288 45t236 164q53 61 84 138t31 158q0 96 -32.5 166t-87 120t-126 84t-149.5 58.5t-158 43t-149 36.5q-14 4 -29.5 12.5t-15.5 24.5q0 29 26.5 40t48.5 11q49 0 98.5 -12t96.5 -25.5t95 -25.5t98 -12 q80 0 133 57t53 137q0 84 -50 139.5t-123 87t-156 45t-150 13.5q-111 0 -223.5 -31t-203.5 -92t-148.5 -154.5t-57.5 -218.5q0 -115 46 -190.5t119.5 -124.5t167 -79t185.5 -50q12 -4 47 -10.5t71 -16.5t64.5 -24.5t28.5 -32.5q0 -20 -13.5 -33.5t-34 -22t-42 -11.5 t-35.5 -3q-57 0 -128 16.5t-142.5 38t-138 45.5t-115.5 40l-2 -3q-2 -4 -7 -16q-8 -20 -13 -39.5t-11 -40.5q-10 -33 -22.5 -71.5t-24.5 -79.5t-22.5 -81t-14.5 -73z" />
<glyph unicode="T" horiz-adv-x="1083" d="M23 1475l2 -406h321v-850q0 -49 18.5 -92t50 -75t74.5 -50t93 -18q47 0 90 18t74.5 50t50 74t18.5 89v850h172q41 0 78 16.5t64.5 44t44 63.5t16.5 77q0 43 -15.5 80.5t-42 66.5t-64.5 45.5t-81 16.5h-964z" />
<glyph unicode="U" horiz-adv-x="1511" d="M59 662q0 -162 55.5 -288t151.5 -213t229.5 -132t290.5 -45q156 0 290 45t231.5 132t153 213t55.5 288v589q0 49 -18.5 93.5t-51.5 77t-76 52t-92 19.5t-91 -19.5t-75 -51t-51.5 -74.5t-18.5 -93v-608q0 -117 -68.5 -188.5t-185.5 -71.5q-119 0 -187.5 71.5t-68.5 188.5 v830h-473v-815z" />
<glyph unicode="V" horiz-adv-x="1294" d="M-86 1327l537 -1188q31 -70 84 -116t133 -46q92 0 143 42t86 120l459 1030q18 43 18 91q0 49 -19.5 91t-53 72.5t-77.5 49t-91 18.5q-74 0 -133.5 -42t-84.5 -112l-241 -663l-318 821z" />
<glyph unicode="W" horiz-adv-x="1968" d="M-37 1411l313 -1167q31 -117 108 -189.5t204 -72.5q106 0 186 63.5t111 161.5l149 471l150 -469q31 -98 111.5 -161.5t185.5 -63.5q129 0 203.5 71.5t107.5 190.5l266 966q6 20 6 41q0 47 -19.5 90t-53 76t-76.5 52.5t-90 19.5q-92 0 -150.5 -58.5t-83.5 -142.5 l-174 -596l-174 615h-418l-174 -615l-221 795z" />
<glyph unicode="X" horiz-adv-x="1280" d="M-6 221q0 -47 18.5 -91t51 -77t75.5 -52t90 -19q68 0 122.5 38.5t90.5 92.5l213 315l213 -315q37 -53 91.5 -92t121.5 -39q47 0 89 19t75 52t51.5 76t18.5 90q0 76 -49 141l-338 433l270 309q29 33 44 72.5t15 80.5q0 45 -18 88t-51 76t-75 52.5t-87 19.5q-66 0 -121 -39 t-94 -90l-156 -203l-276 350l-346 -309l348 -407l-338 -433q-49 -61 -49 -139z" />
<glyph unicode="Y" horiz-adv-x="1224" d="M-33 1200l453 -508v-471q0 -49 18.5 -93t50 -77t75.5 -52t93 -19t92.5 19t75 53t50 77t18.5 92v471l391 424q25 27 36 60.5t11 68.5q0 47 -18.5 92t-50 79t-74.5 54.5t-92 20.5q-63 0 -115.5 -35t-91.5 -82l-234 -282l-327 403z" />
<glyph unicode="Z" horiz-adv-x="1329" d="M27 203q0 -47 18 -85t49 -63.5t71 -40t85 -14.5h948q86 0 145.5 58.5t59.5 144.5q0 43 -15.5 79.5t-43 64.5t-64.5 44.5t-80 16.5h-502l574 718q25 31 41 65t16 75q0 43 -18.5 81.5t-49 66.5t-70.5 44.5t-83 16.5h-1055v-408h596l-579 -733q-23 -27 -33 -61.5t-10 -69.5z " />
<glyph unicode="[" horiz-adv-x="698" d="M78 -68q0 -66 42 -114.5t111 -48.5h549l-6 405h-225v1126h47q41 0 78 16.5t63.5 44.5t42 64.5t15.5 77.5q0 86 -58.5 144.5t-144.5 58.5h-361q-70 0 -111.5 -49t-41.5 -115v-1610z" />
<glyph unicode="\" horiz-adv-x="655" d="M59 1475l258 -1475h295l-258 1475h-295z" />
<glyph unicode="]" horiz-adv-x="698" d="M18 1503q0 -41 15.5 -77.5t42 -64.5t63.5 -44.5t78 -16.5h47v-1126h-211l4 -405h527q70 0 110.5 49t40.5 114v1610q0 66 -41 115t-110 49h-363q-86 0 -144.5 -58.5t-58.5 -144.5z" />
<glyph unicode="^" horiz-adv-x="1099" d="M59 305h336l142 299l143 -299h336l-479 864z" />
<glyph unicode="_" horiz-adv-x="876" d="M59 -397v-88h738v88h-738z" />
<glyph unicode="`" horiz-adv-x="573" d="M76 1350l373 -146q27 -10 53 -10q59 0 103 44t44 103q0 43 -24.5 80t-65.5 54l-373 151z" />
<glyph unicode="a" horiz-adv-x="1255" d="M41 539q0 -117 41 -219.5t114.5 -177t174 -117.5t217.5 -43q84 0 149.5 30.5t110.5 102.5q-4 -27 -3 -56.5t3 -58.5h395v899q0 98 -52 161.5t-157 63.5q-29 0 -60.5 -8t-59 -23.5t-46 -41t-20.5 -58.5q-43 72 -111.5 102.5t-148.5 30.5q-121 0 -222.5 -48t-173 -129 t-111.5 -187.5t-40 -222.5zM494 543q0 33 10 65.5t30.5 58t48 42t64.5 16.5q74 0 116 -53.5t42 -124.5q0 -33 -11.5 -65.5t-32 -58.5t-49 -41t-65.5 -15t-64.5 15t-48 39.5t-30.5 56.5t-10 65z" />
<glyph unicode="b" horiz-adv-x="1249" d="M59 217q0 -106 57.5 -171.5t168.5 -65.5q59 0 105 31.5t59 90.5q53 -61 124.5 -88.5t151.5 -27.5q119 0 218 48t170 128t110 184.5t39 218.5q0 115 -40 216.5t-111 178t-170 121.5t-216 45q-106 0 -211 -41v478l-455 2v-1348zM498 555q0 68 43 120t114 52q74 0 113 -54.5 t39 -121.5q0 -72 -39 -126t-115 -54q-39 0 -68.5 15t-49 41t-28.5 59.5t-9 68.5z" />
<glyph unicode="c" horiz-adv-x="1050" d="M41 555q0 -131 50 -236.5t136 -180.5t199 -114.5t238 -39.5h16q59 0 133 9t138.5 34.5t107.5 75t43 128.5q0 39 -16.5 74t-44 61.5t-62.5 42t-74 15.5q-45 0 -112.5 -17.5t-130.5 -17.5q-72 0 -121 43t-49 119t52 115t124 39q37 0 73.5 -8.5t75.5 -18.5t77 -20.5 t75 -16.5q16 102 34.5 195.5t28.5 195.5q-72 29 -146.5 49.5t-150.5 20.5q-74 0 -151.5 -8.5t-150.5 -30t-137.5 -58t-115.5 -96.5q-61 -72 -100 -165t-39 -189z" />
<glyph unicode="d" horiz-adv-x="1255" d="M41 565q0 -115 39 -219t109.5 -184t169 -128t216.5 -48q80 0 153 27.5t126 88.5q12 -59 58 -90.5t106 -31.5q111 0 168 65.5t57 171.5v1348h-455v-480q-53 18 -104 29.5t-106 11.5q-117 0 -216.5 -45t-170 -121.5t-110.5 -178t-40 -216.5zM494 551q0 70 39.5 123 t113.5 53q78 0 119 -55.5t41 -126.5q0 -68 -43 -121t-115 -53q-78 0 -116.5 54t-38.5 126z" />
<glyph unicode="e" horiz-adv-x="1206" d="M41 553q0 -141 56.5 -247.5t149.5 -178.5t214 -107.5t250 -35.5q78 0 155.5 10t153.5 35l-49 348q-53 -10 -108.5 -19.5t-112.5 -9.5q-66 0 -128.5 20.5t-103.5 75.5h533q88 0 137 33t49 129q0 111 -52 205t-136 162.5t-188.5 107.5t-209.5 39q-123 0 -233.5 -41 t-194.5 -114.5t-133 -178t-49 -233.5zM522 666q10 49 43 83.5t86 34.5q51 0 81 -34.5t34 -83.5h-244z" />
<glyph unicode="f" horiz-adv-x="673" d="M-66 915q0 -37 16.5 -72.5t44.5 -65t63.5 -48t72.5 -18.5h12v-1194h453v1192q43 0 81 14t66.5 39.5t45 62.5t16.5 80q0 92 -58.5 147.5t-148.5 55.5q0 10 -1 18.5t-1 18.5q0 18 13.5 30.5t29.5 16.5q8 -1 17 -1q30 0 58 11q36 15 62.5 41.5t42 62t15.5 74.5 q0 55 -26 96.5t-67 68t-91 39.5t-99 13h-96q-104 0 -165 -46t-92.5 -117.5t-41 -158.5t-9.5 -167q-43 0 -80.5 -13.5t-67.5 -38t-47.5 -60t-17.5 -81.5z" />
<glyph unicode="g" horiz-adv-x="1251" d="M41 537q0 -117 40 -219.5t111.5 -177t171 -119t218.5 -44.5q53 0 105 13.5t99 42.5q0 -4 1 -9.5t1 -9.5q0 -70 -47 -111.5t-116 -41.5q-80 0 -160 18.5t-158 36.5l-49 -381q86 -29 177 -46t183 -17q166 0 284 53t192.5 146t110.5 223.5t36 283.5v715q0 111 -51 174 t-168 63q-63 0 -112.5 -32.5t-59.5 -98.5q-47 66 -115.5 95.5t-148.5 29.5q-121 0 -221.5 -48t-172 -129t-111.5 -187.5t-40 -222.5zM494 557q0 70 45 120t116 50q35 0 64 -15.5t49 -40t31.5 -57t11.5 -65.5q0 -70 -45 -119t-117 -49q-76 0 -115.5 53t-39.5 123z" />
<glyph unicode="h" horiz-adv-x="1214" d="M59 2h457v635q0 49 35 81t82 32t78.5 -34t31.5 -81v-428q0 -47 17.5 -88t48.5 -74t72 -51.5t88 -18.5q49 0 91 17.5t73.5 48.5t50 73t18.5 91v532q0 88 -30.5 160t-86 122t-129 77.5t-159.5 27.5q-72 0 -145.5 -17t-135.5 -52v327q0 47 -18.5 89t-49 73t-72.5 48.5 t-89 17.5t-88 -17.5t-72 -48.5t-49.5 -71.5t-18.5 -88.5v-1382z" />
<glyph unicode="i" horiz-adv-x="532" d="M66 4l456 -2v889q0 45 -18.5 87t-49 73.5t-71.5 50t-88 18.5t-89 -17.5t-73 -48t-49 -71.5t-18 -90v-889zM123 1407q0 -66 46 -113t112 -47t111.5 46t45.5 112t-46 114t-111 48q-33 0 -62 -13.5t-50.5 -35t-33.5 -50t-12 -61.5z" />
<glyph unicode="j" horiz-adv-x="530" d="M68 -307q0 -45 17 -86t48 -73t71 -50.5t87 -18.5t89 17.5t73.5 48.5t50 72t18.5 90v1368l-454 2v-1370zM123 1407q0 -66 46 -113t112 -47t111.5 46t45.5 112t-46 114t-111 48q-33 0 -62 -13.5t-50.5 -35t-33.5 -50t-12 -61.5z" />
<glyph unicode="k" horiz-adv-x="1089" d="M59 2l453 -2v424l332 -473l368 260l-325 395q31 31 64.5 63.5t63 68.5t49 77t19.5 88t-17 86t-48 67.5t-72 45t-86 16.5q-55 0 -103 -24.5t-83 -67.5l-162 -209v565q0 47 -18.5 88t-49 72t-71.5 48.5t-88 17.5t-88 -18.5t-72 -49.5t-48.5 -72t-17.5 -86v-1380z" />
<glyph unicode="l" horiz-adv-x="528" d="M59 0l455 2v1376q0 45 -17.5 86t-48 73t-71.5 50.5t-86 18.5q-47 0 -89 -16.5t-74 -46.5t-50.5 -70.5t-18.5 -90.5v-1382z" />
<glyph unicode="m" horiz-adv-x="1832" d="M59 0h451v635q0 45 32.5 71.5t73.5 26.5t69 -30.5t28 -69.5v-633l450 -2v631q0 41 30 69.5t71 28.5t70.5 -29.5t29.5 -70.5v-418q0 -49 18.5 -90t50 -72t73.5 -48t89 -17t88 18t72 49t48.5 72t17.5 88v530q0 86 -34 157t-91.5 121t-133 77.5t-157.5 27.5 q-94 0 -183 -30.5t-163 -87.5q-66 61 -150 93.5t-174 32.5q-82 0 -158.5 -32.5t-123.5 -102.5q-10 63 -57.5 95t-108.5 32q-111 0 -169.5 -59t-58.5 -170v-893z" />
<glyph unicode="n" horiz-adv-x="1212" d="M59 2h455v633q0 47 34 81t81 34t80.5 -34t33.5 -81v-426q0 -49 18.5 -90t49.5 -72t73 -48t91 -17q47 0 88 18t71.5 50t49 73t18.5 88v524q0 92 -38 165t-101.5 123t-144 75.5t-166.5 25.5q-88 0 -165 -32.5t-128 -106.5q-14 63 -63.5 102t-114.5 39q-47 0 -88 -19.5 t-71 -51t-46.5 -74.5t-16.5 -88v-891z" />
<glyph unicode="o" horiz-adv-x="1230" d="M41 547q0 -125 49 -229.5t133 -180.5t193.5 -118t230.5 -42q123 0 232.5 43t192.5 120t132 182.5t49 230.5t-49 230.5t-132 182t-192.5 118.5t-232.5 42t-233.5 -43t-193.5 -120.5t-131 -184t-48 -231.5zM487 549q0 35 11.5 67.5t32 58t50 41t66.5 15.5t66.5 -15.5 t50 -41t32 -58t11.5 -67.5q0 -74 -39 -132.5t-121 -58.5q-39 0 -68.5 16.5t-50 43t-31 61.5t-10.5 70z" />
<glyph unicode="p" horiz-adv-x="1251" d="M59 -485h455v512q104 -41 211 -41q117 0 216 44t170 119.5t111 178t40 217.5q0 113 -39 218t-110 186t-169 129t-217 48q-80 0 -152.5 -28.5t-125.5 -89.5q-12 59 -59.5 90.5t-106.5 31.5q-113 0 -168.5 -65.5t-55.5 -171.5v-1378zM498 559q0 35 10 67.5t29.5 58.5t48 41 t67.5 15q76 0 115 -56t39 -126t-40 -123t-114 -53q-72 0 -113.5 53t-41.5 123z" />
<glyph unicode="q" horiz-adv-x="1249" d="M41 545q0 -115 40 -216.5t110.5 -178t169 -121.5t214.5 -45q20 0 49 3t60 8t59.5 13t44.5 19v-516l455 -3v1385q0 106 -57.5 171.5t-167.5 65.5q-59 0 -105.5 -31.5t-58.5 -90.5q-53 61 -126 89.5t-155 28.5q-117 0 -215 -48t-168.5 -129t-109.5 -186.5t-39 -217.5z M494 559q0 72 39.5 126t115.5 54q72 0 115 -53t43 -121q0 -72 -41 -127t-119 -55q-74 0 -113.5 53t-39.5 123z" />
<glyph unicode="r" horiz-adv-x="774" d="M59 -2h453v424q0 45 2 94t37 84q41 45 104.5 65.5t123 45t101.5 66.5t42 130q0 43 -16.5 81t-45.5 65.5t-67.5 44t-81.5 16.5q-72 0 -128.5 -41t-84.5 -106q0 39 -16.5 67.5t-43 48t-61.5 28.5t-70 9q-49 0 -93 -16.5t-79 -46t-55.5 -71.5t-20.5 -93v-895z" />
<glyph unicode="s" horiz-adv-x="974" d="M49 86q117 -41 237 -73.5t242 -32.5q82 0 169 21.5t158 67.5t116 115.5t45 165.5q0 90 -39 151.5t-97.5 101.5t-127 64.5t-127 43t-97.5 34t-39 35.5q0 6 6.5 12.5l10.5 10.5q14 6 31 6q37 0 72.5 -8t72.5 -18.5t74 -18.5t73 -8q66 0 112 43t46 108q0 68 -49 110 t-118.5 65.5t-142.5 32.5t-122 9q-80 0 -168 -20.5t-161.5 -65.5t-122 -113.5t-48.5 -162.5q0 -90 39 -148.5t96.5 -96.5t125 -58.5t125 -34.5t96 -28.5t38.5 -39.5q0 -27 -24.5 -28.5t-42.5 -1.5q-20 0 -72.5 12t-112 28.5t-114.5 32t-82 23.5z" />
<glyph unicode="t" horiz-adv-x="704" d="M-49 920q0 -45 18.5 -80t48 -59.5t68.5 -37t82 -12.5v-731l457 -2v729q43 0 83 12.5t70.5 36t49 59t18.5 83.5q0 96 -65.5 143t-153.5 47v92q0 47 -17.5 90t-48.5 75t-73 50.5t-91 18.5q-47 0 -89 -18.5t-72.5 -49.5t-48 -73t-17.5 -89v-96q-43 0 -83 -11.5t-69.5 -35 t-48 -59t-18.5 -82.5z" />
<glyph unicode="u" horiz-adv-x="1208" d="M59 498q0 -139 39 -237.5t113 -161t179.5 -92.5t238.5 -30q131 0 236.5 30t179 92.5t112.5 160.5t39 238v395q0 47 -18.5 89t-49 72.5t-72.5 48t-89 17.5t-89 -18.5t-73 -50t-49.5 -73.5t-18.5 -89v-389q0 -51 -27.5 -88t-82.5 -37t-83 37t-28 88v596l-457 2v-600z" />
<glyph unicode="v" horiz-adv-x="1026" d="M-49 924l377 -774q35 -74 86 -118t139 -44q78 0 128 49t83 113l319 634q12 27 20.5 54.5t8.5 56.5q0 45 -18.5 86t-49 71.5t-72.5 49t-87 18.5q-72 0 -135.5 -39t-85.5 -110l-117 -365l-217 504z" />
<glyph unicode="w" horiz-adv-x="1660" d="M-27 942l340 -795q29 -68 82.5 -110.5t130.5 -42.5q76 0 131.5 42t83.5 109l119 291l119 -291q29 -70 85 -110.5t132 -40.5q78 0 129 44t84 109l313 635q27 51 27 115q0 47 -17.5 89t-48 73t-72.5 48t-89 17q-70 0 -130.5 -38.5t-82.5 -104.5l-119 -336l-137 381h-383 l-138 -381l-186 496z" />
<glyph unicode="x" horiz-adv-x="1124" d="M-12 217q0 -45 18.5 -87t49 -74.5t71.5 -52t88 -19.5q57 0 107.5 28.5t85.5 71.5l194 242l193 -242q35 -43 84 -71.5t106 -28.5q47 0 88 19.5t72 51t49 73.5t18 89t-18 89t-53 71l-246 198l188 146q39 29 57.5 77t18.5 95q0 96 -63.5 162.5t-161.5 66.5q-113 0 -180 -90 l-152 -205l-293 314l-305 -291l303 -275l-246 -198q-35 -29 -54 -71t-19 -89z" />
<glyph unicode="y" horiz-adv-x="1017" d="M-45 924l354 -813l-157 -342q-20 -43 -21 -97q0 -45 18.5 -81.5t49 -64.5t70.5 -43t83 -15q82 0 132.5 45t80.5 116l504 1170q23 51 23 104q0 45 -18.5 86t-50.5 69.5t-74 46t-87 17.5q-92 0 -140 -53t-75 -133l-104 -311l-189 479z" />
<glyph unicode="z" horiz-adv-x="1085" d="M40 79q17 -30 45 -47.5t63.5 -24.5t74.5 -7h744q41 0 76.5 16.5t62.5 44t42 63.5t15 77t-16.5 77.5t-44 63.5t-63 42t-76.5 15h-267l377 449q41 47 41 106q0 82 -55 118t-129 36h-848v-399h356l-375 -443q-40 -46 -40 -109q0 -48 17 -78z" />
<glyph unicode="{" horiz-adv-x="800" d="M59 737q61 -2 99.5 -45t38.5 -102v-635q0 -96 53 -150.5t149 -54.5h365l2 174l-34 -3t-74 7.5t-73.5 41t-33.5 96.5v479q0 78 -53.5 131t-128.5 61q76 8 129 61.5t53 131.5v520q0 43 17.5 62.5t42 27.5t55.5 8t55 6.5t41.5 23.5t17.5 56q0 37 -25.5 63.5t-62.5 26.5h-293 q-98 0 -150 -54t-52 -150v-635q0 -59 -38.5 -102.5t-99.5 -45.5z" />
<glyph unicode="|" horiz-adv-x="397" d="M59 0h295v1475h-295v-1475z" />
<glyph unicode="}" horiz-adv-x="800" d="M59 -160q0 -37 26 -63.5t62 -26.5h293q98 0 150.5 54.5t52.5 150.5v635q0 59 38 102t99 45q-61 2 -99 45t-38 103v635q0 96 -53 150t-150 54h-364l-2 -174l34 3q33 3 73 -7t74 -40.5t34 -96.5v-479q0 -78 53 -131.5t129 -61.5q-76 -8 -129 -61t-53 -131v-520 q0 -43 -17.5 -62.5t-42 -28t-55.5 -8.5t-55.5 -6t-42 -23.5t-17.5 -56.5z" />
<glyph unicode="~" horiz-adv-x="1036" d="M59 543h215q0 14 4.5 34.5t13.5 39t21.5 32t30.5 13.5q27 0 71 -18.5t96 -40t108.5 -39t105.5 -17.5q80 0 133 39t85 98t46.5 130t14.5 136h-216q0 -14 -4 -33.5t-12 -38t-20.5 -31.5t-30.5 -13q-31 0 -76 17t-97 38.5t-106.5 40t-103.5 18.5q-80 0 -133 -39t-85 -98 t-46.5 -130.5t-14.5 -137.5z" />
<glyph unicode="&#xa1;" horiz-adv-x="583" d="M78 1227q0 -53 19.5 -98.5t54 -78t79.5 -52t99 -19.5q51 0 96 19.5t79 53t53.5 80t19.5 97.5t-19.5 96t-53.5 79t-80 53.5t-97 19.5t-97.5 -19.5t-80 -53.5t-53 -80t-19.5 -97zM102 -37l455 -2v746q0 47 -18.5 89t-49 72.5t-72.5 49t-89 18.5t-88 -18.5t-72 -49 t-48.5 -72.5t-17.5 -87v-746z" />
<glyph unicode="&#xa2;" horiz-adv-x="1050" d="M41 551q0 -111 46 -213t124 -180t180.5 -124t212.5 -46v-195q0 -14 10.5 -24.5t24.5 -10.5q16 0 27.5 10.5t11.5 26.5v191q27 0 82 8t117.5 19.5t121 22.5t91.5 17l-37 398q-94 -16 -187.5 -34t-189.5 -28v320q59 -10 117.5 -26.5t117.5 -16.5q86 0 135.5 57t49.5 139 q0 76 -44 124t-108.5 76t-138.5 38t-131 10v143q0 16 -11.5 25.5t-25.5 9.5t-25.5 -8t-11.5 -25v-145q-113 -10 -214 -54t-178 -117t-122 -171t-45 -217zM489 557q0 61 31 90.5t82 52.5v-301q-47 23 -80 63t-33 95z" />
<glyph unicode="&#xa3;" horiz-adv-x="1372" d="M29 729q0 -43 16 -80t45 -63.5t67 -42t81 -15.5h92q0 -31 -14.5 -63.5t-34 -63t-41 -58.5t-37.5 -50v-2q-20 -41 -21 -94q0 -33 13.5 -68t36 -63.5t53 -47t67.5 -18.5h-2h1028l2 406h-596q2 29 9.5 60.5t13.5 59.5h240v406h-295q-18 31 -19 67q0 25 12.5 42.5t31 27.5 t41 14t44.5 4q57 0 106.5 -22.5t96.5 -49t96 -49t105 -22.5q37 0 69.5 18.5t56 47t37 65.5t13.5 72q0 76 -49.5 135t-121 103.5t-152.5 70t-144 33.5q-37 4 -75 7t-75 3q-111 0 -214 -26.5t-184 -83t-129 -145.5t-48 -212q0 -23 2 -48t8 -48q-47 0 -88 -13.5t-73.5 -40 t-51 -65.5t-18.5 -88z" />
<glyph unicode="&#xa4;" horiz-adv-x="1515" d="M57 520h146q23 -66 55.5 -126t73.5 -113q117 -152 283.5 -223.5t355.5 -71.5q66 0 150.5 15t160.5 51t128 94.5t52 142.5q0 43 -17.5 77.5t-46 60.5t-65.5 39t-78 13t-79.5 -9t-79.5 -21.5t-83 -21.5t-89 -9q-74 0 -131.5 27.5t-94.5 74.5h365q39 0 73.5 7.5t61.5 20.5 t42 31.5t15 38.5q0 41 -55 71t-137 30h-436v26v21h436q82 0 137 29.5t55 70.5t-56 70t-138 29h-346q43 43 103.5 68.5t129.5 39.5q27 6 53 6q72 0 157 -26.5t149 -59.5l127 367q-55 18 -127 39.5t-148 39t-148.5 30t-127.5 12.5h-23q-12 0 -22 -2q-109 -14 -209.5 -58.5 t-183.5 -112t-146 -155.5t-98 -188h-142v-199h105v-21v-26h-105z" />
<glyph unicode="&#xa5;" horiz-adv-x="1372" d="M47 1243q0 -35 11.5 -68.5t35.5 -58.5l236 -235l-176 -2q-33 0 -57.5 -22.5t-24.5 -57.5q0 -33 24.5 -55.5t57.5 -22.5h307l24 -29l4 -51h-335q-33 0 -58.5 -22.5t-25.5 -57.5t24.5 -56.5t57.5 -21.5h337l3 -477h473l-2 479h344q31 0 50 26t19 54q0 29 -19.5 52.5 t-49.5 23.5l-342 -2v53l22 29l318 2q33 0 51 25.5t18 54.5q0 31 -18.5 54.5t-50.5 23.5h-181l226 235q25 27 36 60.5t11 68.5q0 47 -18.5 91t-50.5 79t-75 55.5t-92 20.5q-63 0 -115.5 -35t-91.5 -82l-233 -282l-232 282q-39 47 -91 82t-117 35q-49 0 -91.5 -20.5t-74 -55.5 t-50 -80t-18.5 -92z" />
<glyph unicode="&#xa6;" horiz-adv-x="1431" d="M2 -244q0 -72 49 -121t118 -79.5t145.5 -44t131.5 -13.5q59 0 139.5 13.5t153 44t122.5 81.5t50 127q0 61 -34.5 103.5t-98.5 42.5h-22q-10 0 -21 -8q-61 -45 -123.5 -73t-140.5 -28q-68 0 -119 17.5t-91 38t-70.5 38t-57.5 17.5q-31 0 -54.5 -14.5t-41 -37t-26.5 -50 t-9 -54.5zM47 1399q0 -84 54.5 -142.5t140.5 -58.5q82 0 139 56.5t57 138.5q0 39 -15 74.5t-42 62t-62.5 42t-74.5 15.5t-75 -14t-62.5 -40t-43 -60.5t-16.5 -73.5zM242 4l456 -2v889q0 45 -18 87t-49 73.5t-72 50t-88 18.5t-89 -17.5t-72.5 -48t-49 -71.5t-18.5 -90v-889z M248 1336.5q2 9.5 8 14.5t14 5q10 0 17 -8q8 -8 12 -14.5t14 -12.5t11 -16q0 -10 -7.5 -17.5t-19.5 -6.5t-29 19q-4 4 -7 8.5l-7 10.5q-8 8 -6 17.5zM477 1391q0 -41 15.5 -76t42 -60.5t61.5 -41t76 -15.5q82 0 139 56.5t57 138.5q0 39 -15 74.5t-42 62t-62.5 42t-76.5 15.5 q-82 0 -138.5 -57t-56.5 -139zM678 1315q0 10 5 17t13.5 9t18.5 -4q21 -16 41 -28q10 -6 12 -14.5t-2 -16.5t-12.5 -11t-18.5 1q-14 6 -25.5 14t-23.5 18q-8 6 -8 15zM774 414l262 -291q29 -33 68 -53.5t82 -20.5q37 0 69.5 14.5t56 39t38 56t14.5 68.5q0 41 -16.5 77 t-44.5 65l-170 178l172 172q29 29 46 65.5t17 77.5q0 33 -13.5 64.5t-37 56.5t-54 39t-65.5 14q-47 0 -89 -24.5t-75 -59.5l-258 -270z" />
<glyph unicode="&#xa7;" horiz-adv-x="1243" d="M37 539q0 -121 42 -194t110.5 -119t158.5 -76.5t187 -67.5h4q25 -10 47 -18.5t40.5 -19.5t30 -29.5t11.5 -49.5q0 -47 -45 -47q-55 0 -97.5 29.5t-83.5 66.5t-85 67t-101 30q-39 0 -77 -15.5t-67.5 -42t-48 -62.5t-18.5 -75q0 -68 48 -128t118 -106.5t146.5 -77 t134.5 -38.5q35 -4 69.5 -7t69.5 -3q88 0 179 20.5t165 65.5t121 117.5t47 177.5q0 121 -80 213q96 63 152.5 165.5t56.5 219.5q0 100 -50.5 167.5t-125 111.5t-161.5 74t-162 56.5t-125 57t-50 77.5q0 29 16.5 47.5t47.5 18.5q16 0 61 -21.5t96 -51.5t97.5 -57.5 t66.5 -39.5l211 307q-45 55 -120 98t-159 72t-171 43t-156 14q-82 0 -160 -18t-143 -72q-70 -57 -119 -133t-49 -168q0 -63 22.5 -121.5t61.5 -105.5q-78 -66 -121 -158t-43 -194zM494 578q0 23 7 35t21 26l187 -68q35 -12 59.5 -34.5t24.5 -61.5q0 -31 -25 -49v-2l-2 -4 l-182 65q-37 14 -63.5 30.5t-26.5 62.5z" />
<glyph unicode="&#xa8;" horiz-adv-x="663" d="M-59 1399q0 -84 54 -142.5t140 -58.5q82 0 138.5 56.5t56.5 138.5q0 39 -15.5 74.5t-41 62t-61.5 42t-77 15.5q-39 0 -73.5 -14t-61.5 -40t-43 -60.5t-16 -73.5zM371 1391q0 -41 15 -76t42 -60.5t61.5 -41t75.5 -15.5q39 0 75 15.5t63.5 41t43 61.5t15.5 77 q0 39 -15.5 74.5t-42 62t-62.5 42t-77 15.5q-84 0 -139 -57t-55 -139z" />
<glyph unicode="&#xa9;" horiz-adv-x="1740" d="M102 737q0 -158 60.5 -297t164 -242.5t243 -164t296.5 -60.5q158 0 297.5 60.5t242.5 164t163.5 243t60.5 296.5q0 158 -60.5 297.5t-163.5 243.5t-242.5 164.5t-297.5 60.5t-297 -60.5t-242.5 -164.5t-164 -243.5t-60.5 -297.5zM244 737q0 129 48 245t132 202t197.5 136 t244.5 50t245 -50t198 -136t132 -201t48 -244t-48 -244.5t-132 -202.5t-198 -137.5t-245 -50.5q-129 0 -242.5 50.5t-198.5 137.5t-133 201.5t-48 243.5zM475 733q0 -96 30 -180t85 -145.5t135 -97.5t180 -36q31 0 78 7.5t92 24t77 44t32 68.5q0 35 -21.5 62.5t-58.5 27.5 q-20 0 -43 -8t-46.5 -18.5t-49 -18.5t-54.5 -8q-57 0 -101 22.5t-74.5 59t-46 85t-15.5 101.5q0 55 13 107.5t41 94.5t72 67.5t105 25.5q41 0 79 -12.5t77 -26.5l2 -2q14 -6 33 -6q35 0 56.5 26.5t21.5 61.5q0 43 -29 69.5t-70 42t-85 20.5t-75 5q-102 0 -183 -35 t-138 -97.5t-88 -147.5t-31 -183z" />
<glyph unicode="&#xaa;" horiz-adv-x="862" d="M63 1116q0 -70 23 -137.5t65 -121.5t101 -87t135 -33q55 0 105.5 22.5t82.5 67.5q0 -45 26 -67.5t71 -22.5q39 0 67.5 29t28.5 68v561q0 43 -33 70.5t-73 27.5q-37 0 -60.5 -21.5t-23.5 -58.5q-35 41 -85.5 62.5t-103.5 21.5q-76 0 -136 -33.5t-102 -87t-65 -122 t-23 -138.5zM131 457h571q41 0 66 29.5t25 68.5t-25 68.5t-66 29.5h-571v-196zM256 1114q0 37 10 73t29.5 64.5t50.5 46t72 17.5t70.5 -17.5t48 -46t26.5 -64.5t8 -71t-9 -70.5t-27.5 -64.5t-48 -47.5t-68.5 -18.5q-41 0 -71 17.5t-50.5 46.5t-30.5 63.5t-10 71.5z" />
<glyph unicode="&#xab;" horiz-adv-x="1130" d="M12 586q0 -53 43 -126t102.5 -145.5t122 -138t103.5 -102.5l221 227q-53 74 -109.5 147.5t-119.5 139.5l172 174q29 29 46 65.5t17 77.5q0 35 -14 67t-39 56.5t-56.5 38.5t-66.5 14q-47 0 -88 -24.5t-70 -61.5l-210 -272q-23 -29 -38.5 -63.5t-15.5 -73.5zM555 588 q0 -55 42 -128t101.5 -145.5t121 -137t102.5 -103.5l223 227q-53 74 -109.5 147.5t-120.5 139.5l172 174q29 29 46.5 65.5t17.5 77.5q0 72 -52 124t-124 52q-47 0 -88 -24.5t-70 -61.5l-211 -272q-23 -29 -37 -63.5t-14 -71.5z" />
<glyph unicode="&#xac;" horiz-adv-x="1269" d="M59 737h959v-295h221v590h-1180v-295z" />
<glyph unicode="&#xad;" horiz-adv-x="933" d="M49 606q0 -78 54.5 -130t132.5 -52h696l2 367h-698q-39 0 -73 -14.5t-59.5 -39t-40 -58.5t-14.5 -73z" />
<glyph unicode="&#xae;" horiz-adv-x="1740" d="M102 737q0 -158 60.5 -297t164 -242.5t243 -164t296.5 -60.5q158 0 297.5 60.5t242.5 164t163.5 243t60.5 296.5q0 158 -60.5 297.5t-163.5 243.5t-242.5 164.5t-297.5 60.5t-297 -60.5t-242.5 -164.5t-164 -243.5t-60.5 -297.5zM244 737q0 129 48 245t132 202t197.5 136 t244.5 50t245 -50t198 -136t132 -201t48 -244t-48 -244.5t-132 -202.5t-198 -137.5t-245 -50.5q-129 0 -242.5 50.5t-198.5 137.5t-133 201.5t-48 243.5zM528 418q0 -57 41 -99.5t101 -42.5q57 0 99 40t42 100v207l256 -379l240 149l-179 246q59 47 95.5 101.5t36.5 136.5 q0 70 -25 124t-68 90.5t-101 56t-126 19.5h-412v-749zM811 817v105h123q20 0 32.5 -16.5t12.5 -37.5q0 -20 -14.5 -35.5t-36.5 -15.5h-117z" />
<glyph unicode="&#xaf;" horiz-adv-x="745" d="M-2 1370q0 -53 34 -98t93 -45h555q59 0 100 41t41 100q0 57 -41 98t-98 41h-555q-55 0 -92 -42t-37 -95z" />
<glyph unicode="&#xb0;" horiz-adv-x="718" d="M59 1208q0 -61 23.5 -114.5t63.5 -93t93.5 -63.5t114.5 -24t114.5 24t93.5 63.5t63.5 93t23.5 114.5t-23.5 114.5t-63.5 93.5t-93 63.5t-115 23.5q-61 0 -114.5 -23.5t-93.5 -63.5t-63.5 -93.5t-23.5 -114.5zM162 1208q0 39 15.5 75t41 61.5t60 41t75.5 15.5 q39 0 74 -15.5t61.5 -41t42 -61.5t15.5 -75t-15.5 -73.5t-42 -60t-61.5 -41t-74 -15.5t-73.5 15.5t-61 41t-42 60t-15.5 73.5z" />
<glyph unicode="&#xb1;" horiz-adv-x="1265" />
<glyph unicode="&#xb2;" />
<glyph unicode="&#xb3;" />
<glyph unicode="&#xb4;" horiz-adv-x="579" d="M-4 1339q0 -61 44 -105t105 -44q33 0 56 10l372 152q41 16 66 53t25 82q0 59 -44.5 103t-103.5 44q-27 0 -53 -10l-373 -147q-41 -16 -67.5 -54.5t-26.5 -83.5z" />
<glyph unicode="&#xb5;" horiz-adv-x="1236" />
<glyph unicode="&#xb6;" horiz-adv-x="1292" d="M59 1024q0 -92 35 -174t94.5 -142.5t141.5 -96.5t174 -36h125v-1032h174l4 1770h115l-2 -1770h176v1770h47q27 0 49 7t36.5 24.5t14.5 50.5q0 35 -25.5 57.5t-58.5 22.5h-653q-92 0 -174 -36t-142.5 -97.5t-95.5 -143.5t-35 -174z" />
<glyph unicode="&#xb7;" horiz-adv-x="559" d="M63 563q0 -53 19.5 -98t54.5 -79t80 -53.5t98 -19.5q51 0 96.5 19.5t79 53.5t53 80t19.5 97t-19.5 96.5t-53 79t-78.5 53t-97 19.5q-51 0 -97 -19.5t-80 -52t-54.5 -79t-20.5 -97.5z" />
<glyph unicode="&#xb8;" horiz-adv-x="423" d="M14 -199q0 -25 8.5 -51t23.5 -47.5t37.5 -36t51.5 -14.5q53 0 80 45l205 366h-283q-16 -27 -36.5 -58.5t-40 -65t-33 -68.5t-13.5 -70z" />
<glyph unicode="&#xb9;" />
<glyph unicode="&#xba;" horiz-adv-x="837" d="M59 555q0 -45 36 -71.5t77 -26.5h565v196h-565q-41 0 -77 -26.5t-36 -71.5zM59 1118q0 -78 26 -146.5t72 -121.5t111.5 -84t145.5 -31t144.5 32t110.5 84t71.5 121.5t25.5 145.5t-25.5 144.5t-71.5 121t-111.5 83t-143.5 30.5t-143.5 -30.5t-112.5 -83t-73 -121 t-26 -144.5zM256 1124q0 35 10 70t30.5 62.5t50.5 45t69 17.5t67.5 -18.5t48 -47t28.5 -64.5t9 -71q0 -37 -9 -73.5t-27.5 -66.5t-48 -49.5t-72.5 -19.5t-73 19.5t-48.5 51.5t-26.5 69.5t-8 74.5z" />
<glyph unicode="&#xbb;" horiz-adv-x="1130" d="M10 203q0 -72 52 -124t124 -52q47 0 88 24.5t70 61.5l211 272q23 29 37 63.5t14 71.5q0 55 -42 128t-101.5 145.5t-121.5 137t-101 103.5l-224 -227q53 -74 109.5 -147.5t120.5 -139.5l-172 -174q-29 -29 -46.5 -65.5t-17.5 -77.5zM551 203q0 -35 14.5 -67t39 -56.5 t56 -38.5t66.5 -14q47 0 88 24.5t70 61.5l211 272q23 29 38 63.5t15 73.5q0 53 -43 126t-102.5 145.5t-123 138t-102.5 102.5l-221 -227q53 -74 109.5 -147.5t119.5 -139.5l-172 -174q-29 -29 -46 -65.5t-17 -77.5z" />
<glyph unicode="&#xbc;" />
<glyph unicode="&#xbd;" />
<glyph unicode="&#xbe;" />
<glyph unicode="&#xbf;" horiz-adv-x="1069" d="M14 406q0 -115 48.5 -198t127 -137.5t178 -81t201.5 -26.5q70 0 160 21.5t169 65.5t133 108.5t54 150.5q0 72 -47 127.5t-123 55.5q-49 0 -90 -21.5t-80.5 -46.5t-83 -46.5t-94.5 -21.5q-33 0 -64.5 14.5t-31.5 55.5q0 23 22.5 34t56.5 20t74 20.5t73.5 34t56 62.5 t22.5 103q0 66 -4 133.5t-8 133.5l-447 -6l9 -197q-66 -16 -122.5 -48t-98.5 -78t-66.5 -104.5t-24.5 -127.5zM303 1262q0 -51 19.5 -96.5t54.5 -79t80 -53t98 -19.5q51 0 97 19.5t80 53t53.5 79t19.5 98.5q0 51 -19.5 97t-53.5 80t-80 53t-97 19q-53 0 -98 -19t-80 -54 t-54.5 -81t-19.5 -97z" />
<glyph unicode="&#xc0;" horiz-adv-x="1357" d="M-33 203q0 -49 19.5 -91t53.5 -72t77 -46.5t92 -16.5q55 0 95 19.5t67.5 52.5t47 75t36.5 89h497l70 -260l463 115l-426 1161q-43 119 -135.5 188.5t-221.5 69.5t-219 -70.5t-137 -187.5l-352 -901q-27 -63 -27 -125zM369 1853q0 -45 25.5 -82.5t68.5 -54.5l373 -145 q27 -10 53 -10q59 0 103 44t44 103q0 43 -24.5 80t-65.5 53l-373 152q-23 10 -55 10q-61 0 -105 -43t-44 -107zM592 621l110 393l111 -393h-221z" />
<glyph unicode="&#xc1;" horiz-adv-x="1357" d="M-33 203q0 -49 19.5 -91t53.5 -72t77 -46.5t92 -16.5q55 0 95 19.5t67.5 52.5t47 75t36.5 89h497l70 -260l463 115l-426 1161q-43 119 -135.5 188.5t-221.5 69.5t-219 -70.5t-137 -187.5l-352 -901q-27 -63 -27 -125zM375 1706q0 -61 44 -105.5t105 -44.5q33 0 56 11 l372 151q41 16 65.5 53t24.5 82q0 59 -44 103.5t-103 44.5q-27 0 -53 -10l-373 -148q-41 -16 -67.5 -54t-26.5 -83zM592 621l110 393l111 -393h-221z" />
<glyph unicode="&#xc2;" horiz-adv-x="1357" d="M-33 203q0 -49 19.5 -91t53.5 -72t77 -46.5t92 -16.5q55 0 95 19.5t67.5 52.5t47 75t36.5 89h497l70 -260l463 115l-426 1161q-43 119 -135.5 188.5t-221.5 69.5t-219 -70.5t-137 -187.5l-352 -901q-27 -63 -27 -125zM252 1706q0 -61 42 -106.5t105 -45.5q25 0 67 14.5 t87 34t87 38t65 28.5q25 -10 65.5 -28.5t85.5 -37t87 -31.5t67 -13q59 0 103 43t44 102q0 47 -25.5 85t-68.5 54l-281 115q-18 8 -36.5 14t-38.5 6t-40 -6t-38 -14l-289 -117q-41 -16 -64.5 -53t-23.5 -82zM592 621l110 393l111 -393h-221z" />
<glyph unicode="&#xc3;" horiz-adv-x="1357" d="M-33 203q0 -49 19.5 -91t53.5 -72t77 -46.5t92 -16.5q55 0 95 19.5t67.5 52.5t47 75t36.5 89h497l70 -260l463 115l-426 1161q-43 119 -135.5 188.5t-221.5 69.5t-219 -70.5t-137 -187.5l-352 -901q-27 -63 -27 -125zM293 1737q0 -53 33.5 -98.5t93.5 -45.5h555 q59 0 100 41t41 101q0 57 -41 98t-98 41h-555q-55 0 -92 -42t-37 -95zM592 621l110 393l111 -393h-221z" />
<glyph unicode="&#xc4;" horiz-adv-x="1357" d="M-33 203q0 -49 19.5 -91t53.5 -72t77 -46.5t92 -16.5q55 0 95 19.5t67.5 52.5t47 75t36.5 89h497l70 -260l463 115l-426 1161q-43 119 -135.5 188.5t-221.5 69.5t-219 -70.5t-137 -187.5l-352 -901q-27 -63 -27 -125zM180 1513q0 -59 42 -101t102 -42q61 0 104 43t43 105 q0 59 -42 101t-101 42q-61 0 -104.5 -44.5t-43.5 -103.5zM592 621l110 393l111 -393h-221zM934 1513q0 -59 44 -101t103 -42t101.5 43t42.5 103q0 59 -43 102t-103 43q-63 0 -104 -43.5t-41 -104.5z" />
<glyph unicode="&#xc5;" horiz-adv-x="1353" d="M-33 203q0 -49 19.5 -91t53.5 -72t77 -46.5t92 -16.5q55 0 95 19.5t67.5 52.5t47 75t36.5 89h497l97 -252l436 182l-426 1086q-31 80 -88.5 141.5t-136.5 95.5q63 23 106 74t43 121q0 53 -24.5 95t-64.5 70.5t-89 44t-96 15.5q-49 0 -99.5 -15.5t-90.5 -45t-64.5 -71.5 t-24.5 -97q0 -68 42 -120t103 -75q-86 -29 -141 -90t-88 -143l-352 -901q-27 -63 -27 -125zM592 621l110 393l111 -393h-221zM655 1667q0 20 14.5 34.5t35.5 14.5q23 0 39 -13t16 -36t-15.5 -37t-37.5 -14q-23 0 -37.5 14t-14.5 37z" />
<glyph unicode="&#xc6;" horiz-adv-x="1761" d="M-59 178l426 -211l90 260l321 -10l4 -4q16 -35 30.5 -68.5t31.5 -68.5q8 -16 30.5 -30.5t48 -25t52 -15.5t45.5 -5h760l-2 410h-531v120h287q43 0 80 16.5t64.5 45.5t43 65.5t15.5 79.5t-16.5 80t-45 64.5t-66.5 43t-79 15.5h-285v125h318q41 0 78.5 15.5t65.5 43 t44 64.5t16 80t-16 80.5t-44 65.5t-64.5 44.5t-79.5 16.5h-971q-86 0 -136 -36t-81 -116zM600 621l172 485v-485h-172z" />
<glyph unicode="&#xc7;" horiz-adv-x="1318" d="M41 745q0 -135 48 -257.5t131 -221t196.5 -167t242.5 -95.5l-41.5 -41.5t-50 -54.5t-43 -57.5t-18.5 -53.5q0 -47 33.5 -79.5t81.5 -32.5q47 0 79 36l207 244l-35 21q63 2 144.5 19.5t153 53t120.5 93t49 137.5q0 43 -17 77.5t-46 60.5t-65.5 39t-77.5 13t-80 -9 t-80 -21.5t-83 -21.5t-89 -9q-72 0 -127.5 25.5t-93 69.5t-57 103.5t-19.5 128.5q0 76 25.5 131.5t68.5 95.5t101.5 64.5t125.5 36.5q27 6 54 6q72 0 156.5 -26.5t148.5 -59.5l127 367q-55 18 -127 39.5t-147.5 39t-148.5 30t-128 12.5h-23q-12 0 -22 -2q-135 -18 -258 -83 t-215 -162t-146.5 -222.5t-54.5 -266.5z" />
<glyph unicode="&#xc8;" horiz-adv-x="1032" d="M59 242q0 -47 18.5 -90t51.5 -77t76 -54.5t90 -20.5h756l-2 410h-517v127h269q41 0 80 15t69.5 40.5t49 62.5t18.5 80q0 82 -62 139q-68 63 -157 64h-267v125h324q43 0 80 16.5t64.5 45t43 66.5t15.5 79t-15.5 77.5t-42 65.5t-63.5 45.5t-78 16.5h-117l-684 -2v-1231z M205 1853q0 -45 25.5 -82.5t68.5 -54.5l373 -145q27 -10 53 -10q59 0 103 44t44 103q0 43 -24.5 80t-65.5 53l-372 152q-23 10 -56 10q-61 0 -105 -43t-44 -107z" />
<glyph unicode="&#xc9;" horiz-adv-x="1032" d="M59 242q0 -47 18.5 -90t51.5 -77t76 -54.5t90 -20.5h756l-2 410h-517v127h269q41 0 80 15t69.5 40.5t49 62.5t18.5 80q0 82 -62 139q-68 63 -157 64h-267v125h324q43 0 80 16.5t64.5 45t43 66.5t15.5 79t-15.5 77.5t-42 65.5t-63.5 45.5t-78 16.5h-117l-684 -2v-1231z M211 1706q0 -61 44 -105.5t105 -44.5q33 0 56 11l372 151q41 16 66 53t25 82q0 59 -44.5 103.5t-103.5 44.5q-27 0 -53 -10l-373 -148q-41 -16 -67.5 -54t-26.5 -83z" />
<glyph unicode="&#xca;" horiz-adv-x="1032" d="M59 242q0 -47 18.5 -90t51.5 -77t76 -54.5t90 -20.5h756l-2 410h-517v127h269q41 0 80 15t69.5 40.5t49 62.5t18.5 80q0 82 -62 139q-68 63 -157 64h-267v125h324q43 0 80 16.5t64.5 45t43 66.5t15.5 79t-15.5 77.5t-42 65.5t-63.5 45.5t-78 16.5h-117l-684 -2v-1231z M88 1706q0 -61 42 -106.5t106 -45.5q25 0 66.5 14.5t86.5 34t87 38t65 28.5q25 -10 65.5 -28.5t85.5 -37t87 -31.5t67 -13q59 0 103 43t44 102q0 47 -25.5 85t-68.5 54l-281 115q-18 8 -36.5 14t-38.5 6t-40 -6t-38 -14l-289 -117q-41 -16 -64.5 -53t-23.5 -82z" />
<glyph unicode="&#xcb;" horiz-adv-x="1032" d="M59 242q0 -47 18.5 -90t51.5 -77t76 -54.5t90 -20.5h756l-2 410h-517v127h269q41 0 80 15t69.5 40.5t49 62.5t18.5 80q0 82 -62 139q-68 63 -157 64h-267v125h324q43 0 80 16.5t64.5 45t43 66.5t15.5 79t-15.5 77.5t-42 65.5t-63.5 45.5t-78 16.5h-117l-684 -2v-1231z M133 1765q0 -84 54.5 -142t140.5 -58q82 0 138 56t56 138q0 39 -15 75t-41 62.5t-61.5 42t-76.5 15.5q-39 0 -74 -14.5t-61.5 -40t-43 -60.5t-16.5 -74zM563 1757q0 -41 15.5 -75.5t42 -60.5t61.5 -41t76 -15q39 0 74.5 15t63.5 41t43 61.5t15 76.5q0 39 -15 75t-42 62.5 t-62.5 42t-76.5 15.5q-84 0 -139.5 -57.5t-55.5 -139.5z" />
<glyph unicode="&#xcc;" horiz-adv-x="542" d="M-43 1853q0 -45 25.5 -82.5t68.5 -54.5l373 -145q27 -10 53 -10q59 0 103.5 44t44.5 103q0 43 -25 80t-65 53l-373 152q-23 10 -56 10q-61 0 -105 -43t-44 -107zM59 -2h473v1253q0 49 -18 92t-50 75t-75 51.5t-92 19.5t-92 -18.5t-76 -50t-51.5 -74.5t-18.5 -93v-1255z " />
<glyph unicode="&#xcd;" horiz-adv-x="542" d="M-37 1706q0 -61 44 -105.5t106 -44.5q33 0 55 11l373 151q41 16 65.5 53t24.5 82q0 59 -44.5 103.5t-103.5 44.5q-27 0 -53 -10l-373 -148q-41 -16 -67.5 -54t-26.5 -83zM59 -2h473v1253q0 49 -18 92t-50 75t-75 51.5t-92 19.5t-92 -18.5t-76 -50t-51.5 -74.5t-18.5 -93 v-1255z" />
<glyph unicode="&#xce;" horiz-adv-x="542" d="M-160 1706q0 -61 42 -106.5t106 -45.5q25 0 66.5 14.5t86.5 34t87 38t65 28.5q25 -10 65.5 -28.5t85.5 -37t87 -31.5t67 -13q59 0 103 43t44 102q0 47 -25.5 85t-68.5 54l-280 115q-18 8 -37 14t-39 6t-39.5 -6t-38.5 -14l-289 -117q-41 -16 -64.5 -53t-23.5 -82zM59 -2 h473v1253q0 49 -18 92t-50 75t-75 51.5t-92 19.5t-92 -18.5t-76 -50t-51.5 -74.5t-18.5 -93v-1255z" />
<glyph unicode="&#xcf;" horiz-adv-x="542" d="M-115 1765q0 -84 54.5 -142t140.5 -58q82 0 138 56t56 138q0 39 -15 75t-40.5 62.5t-61.5 42t-77 15.5q-39 0 -74 -14.5t-61.5 -40t-43 -60.5t-16.5 -74zM59 -2h473v1253q0 49 -18 92t-50 75t-75 51.5t-92 19.5t-92 -18.5t-76 -50t-51.5 -74.5t-18.5 -93v-1255zM315 1757 q0 -41 15.5 -75.5t42 -60.5t61.5 -41t76 -15q39 0 75 15t63.5 41t43 61.5t15.5 76.5q0 39 -15.5 75t-42 62.5t-62.5 42t-77 15.5q-84 0 -139.5 -57.5t-55.5 -139.5z" />
<glyph unicode="&#xd0;" />
<glyph unicode="&#xd1;" horiz-adv-x="1497" d="M59 244q0 -51 17.5 -98.5t49.5 -83t76 -57t97 -21.5q49 0 92 19.5t74 51t49 74.5t18 92v500l537 -651q35 -41 82 -63.5t100 -22.5q49 0 93.5 18t76 50t50 75t18.5 92v1032q0 49 -18.5 92t-51.5 75t-74.5 51.5t-91.5 19.5q-49 0 -92 -19.5t-74.5 -51.5t-51 -75t-19.5 -92 v-481l-520 610q-39 45 -90.5 79t-112.5 34q-49 0 -92 -19.5t-75 -53.5t-49.5 -77t-17.5 -92v-1007zM360 1737q0 -53 34 -98.5t93 -45.5h555q59 0 100.5 41t41.5 101q0 57 -41 98t-99 41h-555q-55 0 -92 -42t-37 -95z" />
<glyph unicode="&#xd2;" horiz-adv-x="1585" d="M41 737q0 -160 64.5 -298t172 -240.5t250 -160.5t297.5 -58q156 0 298.5 58t250 160.5t172 241t64.5 297.5q0 160 -64.5 298.5t-172 240.5t-250 160.5t-298.5 58.5t-297 -58.5t-249.5 -160.5t-173 -240.5t-64.5 -298.5zM487 1853q0 -45 26 -82.5t69 -54.5l372 -145 q27 -10 54 -10q59 0 103 44t44 103q0 43 -24.5 80t-65.5 53l-373 152q-23 10 -55 10q-61 0 -105.5 -43t-44.5 -107zM510 737q0 68 22.5 131.5t63.5 110.5t99.5 75.5t129.5 28.5q72 0 130.5 -28.5t100.5 -76.5t64.5 -111.5t22.5 -133.5q0 -68 -23.5 -129t-65.5 -109.5 t-101.5 -76t-129.5 -27.5q-72 0 -129 29t-98 77t-63.5 110t-22.5 130z" />
<glyph unicode="&#xd3;" horiz-adv-x="1585" d="M41 737q0 -160 64.5 -298t172 -240.5t250 -160.5t297.5 -58q156 0 298.5 58t250 160.5t172 241t64.5 297.5q0 160 -64.5 298.5t-172 240.5t-250 160.5t-298.5 58.5t-297 -58.5t-249.5 -160.5t-173 -240.5t-64.5 -298.5zM494 1706q0 -61 44 -105.5t105 -44.5q33 0 55 11 l373 151q41 16 65.5 53t24.5 82q0 59 -44 103.5t-103 44.5q-27 0 -53 -10l-373 -148q-41 -16 -67.5 -54t-26.5 -83zM510 737q0 68 22.5 131.5t63.5 110.5t99.5 75.5t129.5 28.5q72 0 130.5 -28.5t100.5 -76.5t64.5 -111.5t22.5 -133.5q0 -68 -23.5 -129t-65.5 -109.5 t-101.5 -76t-129.5 -27.5q-72 0 -129 29t-98 77t-63.5 110t-22.5 130z" />
<glyph unicode="&#xd4;" horiz-adv-x="1585" d="M41 737q0 -160 64.5 -298t172 -240.5t250 -160.5t297.5 -58q156 0 298.5 58t250 160.5t172 241t64.5 297.5q0 160 -64.5 298.5t-172 240.5t-250 160.5t-298.5 58.5t-297 -58.5t-249.5 -160.5t-173 -240.5t-64.5 -298.5zM371 1706q0 -61 42 -106.5t105 -45.5q25 0 67 14.5 t87 34t87 38t64 28.5q25 -10 66 -28.5t86 -37t87 -31.5t66 -13q59 0 103.5 43t44.5 102q0 47 -25.5 85t-68.5 54l-281 115q-18 8 -37 14t-39 6t-39.5 -6t-37.5 -14l-289 -117q-41 -16 -64.5 -53t-23.5 -82zM510 737q0 68 22.5 131.5t63.5 110.5t99.5 75.5t129.5 28.5 q72 0 130.5 -28.5t100.5 -76.5t64.5 -111.5t22.5 -133.5q0 -68 -23.5 -129t-65.5 -109.5t-101.5 -76t-129.5 -27.5q-72 0 -129 29t-98 77t-63.5 110t-22.5 130z" />
<glyph unicode="&#xd5;" horiz-adv-x="1585" d="M41 737q0 -160 64.5 -298t172 -240.5t250 -160.5t297.5 -58q156 0 298.5 58t250 160.5t172 241t64.5 297.5q0 160 -64.5 298.5t-172 240.5t-250 160.5t-298.5 58.5t-297 -58.5t-249.5 -160.5t-173 -240.5t-64.5 -298.5zM412 1737q0 -53 33.5 -98.5t93.5 -45.5h555 q59 0 100 41t41 101q0 57 -41 98t-98 41h-555q-55 0 -92 -42t-37 -95zM510 737q0 68 22.5 131.5t63.5 110.5t99.5 75.5t129.5 28.5q72 0 130.5 -28.5t100.5 -76.5t64.5 -111.5t22.5 -133.5q0 -68 -23.5 -129t-65.5 -109.5t-101.5 -76t-129.5 -27.5q-72 0 -129 29t-98 77 t-63.5 110t-22.5 130z" />
<glyph unicode="&#xd6;" horiz-adv-x="1585" d="M41 737q0 -160 64.5 -298t172 -240.5t250 -160.5t297.5 -58q156 0 298.5 58t250 160.5t172 241t64.5 297.5q0 160 -64.5 298.5t-172 240.5t-250 160.5t-298.5 58.5t-297 -58.5t-249.5 -160.5t-173 -240.5t-64.5 -298.5zM74 1505q0 -59 44 -102t103 -43t103.5 43t44.5 102 t-43 102.5t-103 43.5q-63 0 -106 -41.5t-43 -104.5zM510 737q0 68 22.5 131.5t63.5 110.5t99.5 75.5t129.5 28.5q72 0 130.5 -28.5t100.5 -76.5t64.5 -111.5t22.5 -133.5q0 -68 -23.5 -129t-65.5 -109.5t-101.5 -76t-129.5 -27.5q-72 0 -129 29t-98 77t-63.5 110t-22.5 130z M1284 1505q0 -59 43 -102t103 -43q59 0 103 43t44 102q0 63 -45 104.5t-107 41.5q-59 0 -100 -44.5t-41 -101.5z" />
<glyph unicode="&#xd7;" />
<glyph unicode="&#xd8;" horiz-adv-x="1589" d="M41 735q0 -139 52 -266t151 -225l-201 -197l80 -86l203 199q104 -88 232 -135.5t265 -47.5q154 0 295.5 58.5t251 160t174 238.5t64.5 295q0 131 -50.5 264t-130.5 238q14 14 46 41.5t65 60.5t58.5 62.5t25.5 48.5q0 23 -17.5 40t-39.5 17q-18 0 -50 -24.5t-66 -57.5 t-64 -63.5t-44 -44.5q-111 90 -241.5 138t-272.5 48q-158 0 -300 -58.5t-250.5 -161.5t-172 -242.5t-63.5 -299.5zM508 735q0 70 22.5 132.5t63.5 110.5t99.5 76.5t129.5 28.5q59 0 112.5 -19t100.5 -54l-479 -459q-25 41 -37 89t-12 95zM637 465l465 444q39 -84 39 -172 q0 -66 -24.5 -128t-67.5 -110t-101.5 -78t-128.5 -30q-51 0 -98 18.5t-84 55.5z" />
<glyph unicode="&#xd9;" horiz-adv-x="1511" d="M59 662q0 -162 55.5 -288t151.5 -213t229.5 -132t290.5 -45q156 0 290 45t231.5 132t153 213t55.5 288v589q0 49 -18.5 93.5t-51.5 77t-76 52t-92 19.5t-91 -19.5t-75 -51t-51.5 -74.5t-18.5 -93v-608q0 -117 -68.5 -188.5t-185.5 -71.5q-119 0 -187.5 71.5t-68.5 188.5 v830h-473v-815zM449 1853q0 -45 25.5 -82.5t68.5 -54.5l372 -145q27 -10 54 -10q59 0 103 44t44 103q0 43 -24.5 80t-65.5 53l-373 152q-23 10 -55 10q-61 0 -105 -43t-44 -107z" />
<glyph unicode="&#xda;" horiz-adv-x="1511" d="M59 662q0 -162 55.5 -288t151.5 -213t229.5 -132t290.5 -45q156 0 290 45t231.5 132t153 213t55.5 288v589q0 49 -18.5 93.5t-51.5 77t-76 52t-92 19.5t-91 -19.5t-75 -51t-51.5 -74.5t-18.5 -93v-608q0 -117 -68.5 -188.5t-185.5 -71.5q-119 0 -187.5 71.5t-68.5 188.5 v830h-473v-815zM455 1706q0 -61 44 -105.5t105 -44.5q33 0 55 11l373 151q41 16 65.5 53t24.5 82q0 59 -44 103.5t-103 44.5q-27 0 -53 -10l-373 -148q-41 -16 -67.5 -54t-26.5 -83z" />
<glyph unicode="&#xdb;" horiz-adv-x="1511" d="M59 662q0 -162 55.5 -288t151.5 -213t229.5 -132t290.5 -45q156 0 290 45t231.5 132t153 213t55.5 288v589q0 49 -18.5 93.5t-51.5 77t-76 52t-92 19.5t-91 -19.5t-75 -51t-51.5 -74.5t-18.5 -93v-608q0 -117 -68.5 -188.5t-185.5 -71.5q-119 0 -187.5 71.5t-68.5 188.5 v830h-473v-815zM332 1706q0 -61 42 -106.5t105 -45.5q25 0 67 14.5t87 34t87 38t64 28.5q25 -10 66 -28.5t86 -37t87 -31.5t67 -13q59 0 103 43t44 102q0 47 -25.5 85t-68.5 54l-281 115q-18 8 -37 14t-39 6t-39.5 -6t-37.5 -14l-289 -117q-41 -16 -64.5 -53t-23.5 -82z" />
<glyph unicode="&#xdc;" horiz-adv-x="1511" d="M59 662q0 -162 55.5 -288t151.5 -213t229.5 -132t290.5 -45q156 0 289 45t231.5 132t154 213t55.5 288v589q0 49 -18.5 93.5t-51.5 77t-76 52t-92 19.5t-92 -19.5t-75 -51t-50.5 -74.5t-18.5 -93v-608q0 -117 -68.5 -188.5t-185.5 -71.5q-119 0 -187.5 71.5t-68.5 188.5 v746q35 -23 78 -23q59 0 101.5 43t42.5 103q0 59 -43 101t-103 42q-59 0 -101 -43.5t-42 -102.5q0 -14 4 -34l-410 -2v-815zM821 1513q0 -59 42 -101t102 -42q59 0 102 43t43 103q0 59 -43 101t-102 42t-101.5 -43.5t-42.5 -102.5z" />
<glyph unicode="&#xdd;" />
<glyph unicode="&#xde;" />
<glyph unicode="&#xdf;" horiz-adv-x="1243" d="M59 -487h455v1521q0 29 4 58.5t16.5 53t35 38t59.5 14.5q18 0 37.5 -4t36 -13.5t26.5 -24.5t10 -38q0 -37 -32.5 -54t-72.5 -40t-73 -61.5t-33 -118.5q0 -63 21.5 -98t54.5 -55.5t72 -31t71.5 -22.5t54 -33.5t21.5 -62.5q0 -39 -21.5 -61.5t-54 -40t-69.5 -34t-70 -40 t-54.5 -59.5t-21.5 -93q0 -109 69 -169t173 -60q94 0 182 50t157 128t111 173t42 185q0 55 -17.5 110.5t-48.5 104.5t-74 87t-96 57q53 55 85 126.5t32 149.5q0 102 -43 183t-114.5 136.5t-163 84t-185.5 28.5q-127 0 -233.5 -42t-184.5 -116.5t-121 -180t-43 -234.5v-1501z " />
<glyph unicode="&#xe0;" horiz-adv-x="1255" d="M41 539q0 -117 41 -219.5t114.5 -177t174 -117.5t217.5 -43q84 0 149.5 30.5t110.5 102.5q-4 -27 -3 -56.5t3 -58.5h395v899q0 98 -52 161.5t-157 63.5q-29 0 -60.5 -8t-59 -23.5t-46 -41t-20.5 -58.5q-43 72 -111.5 102.5t-148.5 30.5q-121 0 -222.5 -48t-173 -129 t-111.5 -187.5t-40 -222.5zM313 1487q0 -45 26 -83t69 -54l372 -146q27 -10 54 -10q59 0 103 44t44 103q0 43 -24.5 80t-65.5 54l-373 151q-23 10 -55 10q-61 0 -105.5 -43t-44.5 -106zM494 543q0 33 10 65.5t30.5 58t48 42t64.5 16.5q74 0 116 -53.5t42 -124.5 q0 -33 -11.5 -65.5t-32 -58.5t-49 -41t-65.5 -15t-64.5 15t-48 39.5t-30.5 56.5t-10 65z" />
<glyph unicode="&#xe1;" horiz-adv-x="1255" d="M41 539q0 -117 41 -219.5t114.5 -177t174 -117.5t217.5 -43q84 0 149.5 30.5t110.5 102.5q-4 -27 -3 -56.5t3 -58.5h395v899q0 98 -52 161.5t-157 63.5q-29 0 -60.5 -8t-59 -23.5t-46 -41t-20.5 -58.5q-43 72 -111.5 102.5t-148.5 30.5q-121 0 -222.5 -48t-173 -129 t-111.5 -187.5t-40 -222.5zM319 1339q0 -61 44.5 -105t105.5 -44q33 0 55 10l373 152q41 16 65.5 53t24.5 82q0 59 -44 103t-103 44q-27 0 -54 -10l-372 -147q-41 -16 -68 -54.5t-27 -83.5zM494 543q0 33 10 65.5t30.5 58t48 42t64.5 16.5q74 0 116 -53.5t42 -124.5 q0 -33 -11.5 -65.5t-32 -58.5t-49 -41t-65.5 -15t-64.5 15t-48 39.5t-30.5 56.5t-10 65z" />
<glyph unicode="&#xe2;" horiz-adv-x="1255" d="M41 539q0 -117 41 -219.5t114.5 -177t174 -117.5t217.5 -43q84 0 149.5 30.5t110.5 102.5q-4 -27 -3 -56.5t3 -58.5h395v899q0 98 -52 161.5t-157 63.5q-29 0 -60.5 -8t-59 -23.5t-46 -41t-20.5 -58.5q-43 72 -111.5 102.5t-148.5 30.5q-121 0 -222.5 -48t-173 -129 t-111.5 -187.5t-40 -222.5zM197 1339q0 -61 42 -106t105 -45q25 0 67 14.5t87 33.5t87 37.5t64 29.5q25 -10 66 -29t86 -37t87 -31.5t66 -13.5q59 0 103.5 43t44.5 102q0 47 -25.5 85t-68.5 55l-281 114q-18 8 -37 14.5t-39 6.5t-39.5 -6.5t-38.5 -14.5l-288 -116 q-41 -16 -64.5 -53.5t-23.5 -82.5zM494 543q0 33 10 65.5t30.5 58t48 42t64.5 16.5q74 0 116 -53.5t42 -124.5q0 -33 -11.5 -65.5t-32 -58.5t-49 -41t-65.5 -15t-64.5 15t-48 39.5t-30.5 56.5t-10 65z" />
<glyph unicode="&#xe3;" horiz-adv-x="1255" d="M41 539q0 -117 41 -219.5t114.5 -177t174 -117.5t217.5 -43q84 0 149.5 30.5t110.5 102.5q-4 -27 -3 -56.5t3 -58.5h395v899q0 98 -52 161.5t-157 63.5q-29 0 -60.5 -8t-59 -23.5t-46 -41t-20.5 -58.5q-43 72 -111.5 102.5t-148.5 30.5q-121 0 -222.5 -48t-173 -129 t-111.5 -187.5t-40 -222.5zM238 1370q0 -53 33.5 -98t93.5 -45h555q59 0 100 41t41 100q0 57 -41 98t-98 41h-555q-55 0 -92 -42t-37 -95zM494 543q0 33 10 65.5t30.5 58t48 42t64.5 16.5q74 0 116 -53.5t42 -124.5q0 -33 -11.5 -65.5t-32 -58.5t-49 -41t-65.5 -15t-64.5 15 t-48 39.5t-30.5 56.5t-10 65z" />
<glyph unicode="&#xe4;" horiz-adv-x="1255" d="M41 539q0 -117 41 -219.5t114.5 -177t174 -117.5t217.5 -43q84 0 149.5 30.5t110.5 102.5q-4 -27 -3 -56.5t3 -58.5h395v899q0 98 -52 161.5t-157 63.5q-29 0 -60.5 -8t-59 -23.5t-46 -41t-20.5 -58.5q-43 72 -111.5 102.5t-148.5 30.5q-121 0 -222.5 -48t-173 -129 t-111.5 -187.5t-40 -222.5zM274 1360q0 -39 16.5 -74t43 -60.5t61.5 -41t74 -15.5q82 0 139.5 56.5t57.5 138.5t-57.5 138.5t-139.5 56.5t-138.5 -58.5t-56.5 -140.5zM494 543q0 33 10 65.5t30.5 58t48 42t64.5 16.5q74 0 116 -53.5t42 -124.5q0 -33 -11.5 -65.5t-32 -58.5 t-49 -41t-65.5 -15t-64.5 15t-48 39.5t-30.5 56.5t-10 65zM700 1360q0 -41 16.5 -75t44 -60.5t63.5 -41t75 -14.5t75 16.5t61.5 43t41 62.5t15.5 75q0 82 -58.5 138.5t-140.5 56.5q-84 0 -138.5 -59.5t-54.5 -141.5z" />
<glyph unicode="&#xe5;" horiz-adv-x="1255" d="M41 539q0 -117 41 -219.5t114.5 -177t174 -117.5t217.5 -43q84 0 149.5 30.5t110.5 102.5q-4 -27 -3 -56.5t3 -58.5h395v899q0 98 -52 161.5t-157 63.5q-29 0 -60.5 -8t-59 -23.5t-46 -41t-20.5 -58.5q-43 72 -111.5 102.5t-148.5 30.5q-121 0 -222.5 -48t-173 -129 t-111.5 -187.5t-40 -222.5zM434 1382q0 -55 23.5 -97t61.5 -70.5t86 -43t97 -14.5q47 0 93.5 16.5t83 46t59.5 71.5t23 91q0 51 -24 93.5t-60.5 71t-84 44t-94.5 15.5t-94 -15.5t-85 -44t-61.5 -71t-23.5 -93.5zM494 543q0 33 10 65.5t30.5 58t48 42t64.5 16.5 q74 0 116 -53.5t42 -124.5q0 -33 -11.5 -65.5t-32 -58.5t-49 -41t-65.5 -15t-64.5 15t-48 39.5t-30.5 56.5t-10 65zM639 1382q0 25 17.5 40.5t41.5 15.5q23 0 39.5 -16.5t16.5 -39.5t-16.5 -40t-39.5 -17t-41 16t-18 41z" />
<glyph unicode="&#xe6;" horiz-adv-x="1951" d="M41 547q0 -117 39 -220.5t110.5 -180t170 -121.5t219.5 -45q70 0 137 21.5t114 76.5q0 -35 19.5 -54.5t47.5 -29.5t59.5 -12t58.5 -2q37 0 71.5 13t61.5 40q68 -31 139.5 -44.5t145.5 -13.5q88 0 183 12.5t181 41.5q-8 66 -16 129t-19 129q-2 16 -4 34.5t-6 34.5l-2 15 q0 2 -1 4l-1 2q-16 0 -36.5 -5t-37.5 -7q-29 -4 -57 -5q-29 0 -57 -2q-16 -2 -34 -3t-34 -1q-68 0 -131.5 20.5t-106.5 78.5h547q78 0 126 37.5t48 121.5q0 35 -8 69t-18 67q-31 88 -87.5 158.5t-129 120.5t-158.5 76.5t-178 26.5q-63 0 -126 -11t-122 -36q-35 35 -73 45.5 t-85 10.5q-29 0 -57.5 -6.5t-52 -20.5t-38 -37.5t-14.5 -56.5q-16 31 -47.5 52.5t-68.5 33.5t-75 17t-71 5q-117 0 -214 -49t-165.5 -130t-107.5 -185.5t-39 -214.5zM494 559q0 33 11 65.5t31.5 57.5t49 40t65.5 15t64.5 -14t47 -39t30 -55.5t10.5 -63.5q0 -72 -42 -126 t-118 -54q-37 0 -64.5 14.5t-46 39t-28.5 56t-10 64.5zM1260 680q4 45 39.5 81t82.5 36q53 0 85 -33t38 -84h-245z" />
<glyph unicode="&#xe7;" horiz-adv-x="1048" d="M41 545q0 -96 35 -184.5t95 -160t140 -121.5t172 -73q-14 -16 -31.5 -33.5t-34 -37t-27.5 -40t-11 -42.5q0 -47 35 -79t80 -32q51 0 81 37l177 207q55 4 117.5 17t113.5 41t85 73t34 114q0 39 -16.5 74t-44 61.5t-62.5 42t-74 15.5q-23 0 -52.5 -5t-61 -12.5t-65.5 -12.5 t-64 -5q-72 0 -121 43t-49 119t52 115t124 39q27 0 66.5 -7.5t84.5 -16.5t88 -19.5t74 -16.5l84 391q-100 27 -203 50.5t-207 23.5q-123 0 -233.5 -40t-195.5 -113.5t-135 -178t-50 -233.5z" />
<glyph unicode="&#xe8;" horiz-adv-x="1206" d="M41 553q0 -141 56.5 -247.5t149.5 -178.5t214 -107.5t250 -35.5q78 0 155.5 10t153.5 35l-49 348q-53 -10 -108.5 -19.5t-112.5 -9.5q-66 0 -128.5 20.5t-103.5 75.5h533q88 0 137 33t49 129q0 111 -52 205t-136 162.5t-188.5 107.5t-209.5 39q-123 0 -233.5 -41 t-194.5 -114.5t-133 -178t-49 -233.5zM297 1487q0 -45 25.5 -83t68.5 -54l373 -146q27 -10 53 -10q59 0 103.5 44t44.5 103q0 43 -25 80t-66 54l-372 151q-23 10 -56 10q-61 0 -105 -43t-44 -106zM522 666q10 49 43 83.5t86 34.5q51 0 81 -34.5t34 -83.5h-244z" />
<glyph unicode="&#xe9;" horiz-adv-x="1206" d="M41 553q0 -141 56.5 -247.5t149.5 -178.5t214 -107.5t250 -35.5q78 0 155.5 10t153.5 35l-49 348q-53 -10 -108.5 -19.5t-112.5 -9.5q-66 0 -128.5 20.5t-103.5 75.5h533q88 0 137 33t49 129q0 111 -52 205t-136 162.5t-188.5 107.5t-209.5 39q-123 0 -233.5 -41 t-194.5 -114.5t-133 -178t-49 -233.5zM303 1339q0 -61 44 -105t106 -44q33 0 55 10l373 152q41 16 65.5 53t24.5 82q0 59 -44.5 103t-103.5 44q-27 0 -53 -10l-373 -147q-41 -16 -67.5 -54.5t-26.5 -83.5zM522 666q10 49 43 83.5t86 34.5q51 0 81 -34.5t34 -83.5h-244z" />
<glyph unicode="&#xea;" horiz-adv-x="1206" d="M41 553q0 -141 56.5 -247.5t149.5 -178.5t214 -107.5t250 -35.5q78 0 155.5 10t153.5 35l-49 348q-53 -10 -108.5 -19.5t-112.5 -9.5q-66 0 -128.5 20.5t-103.5 75.5h533q88 0 137 33t49 129q0 111 -52 205t-136 162.5t-188.5 107.5t-209.5 39q-123 0 -233.5 -41 t-194.5 -114.5t-133 -178t-49 -233.5zM180 1339q0 -61 42 -106t106 -45q25 0 66.5 14.5t86.5 33.5t87 37.5t65 29.5q25 -10 65.5 -29t85.5 -37t87 -31.5t67 -13.5q59 0 103 43t44 102q0 47 -25.5 85t-68.5 55l-280 114q-18 8 -37 14.5t-39 6.5t-40 -6.5t-38 -14.5l-289 -116 q-41 -16 -64.5 -53.5t-23.5 -82.5zM522 666q10 49 43 83.5t86 34.5q51 0 81 -34.5t34 -83.5h-244z" />
<glyph unicode="&#xeb;" horiz-adv-x="1206" d="M41 553q0 -141 56.5 -247.5t149.5 -178.5t214 -107.5t250 -35.5q78 0 155.5 10t153.5 35l-49 348q-53 -10 -108.5 -19.5t-112.5 -9.5q-66 0 -128.5 20.5t-103.5 75.5h533q88 0 137 33t49 129q0 111 -52 205t-136 162.5t-188.5 107.5t-209.5 39q-123 0 -233.5 -41 t-194.5 -114.5t-133 -178t-49 -233.5zM225 1399q0 -84 54.5 -142.5t140.5 -58.5q82 0 138 56.5t56 138.5q0 39 -15 74.5t-41 62t-61.5 42t-76.5 15.5q-39 0 -74 -14t-61.5 -40t-43 -60.5t-16.5 -73.5zM522 666q10 49 43 83.5t86 34.5q51 0 81 -34.5t34 -83.5h-244zM655 1391 q0 -41 15.5 -76t42 -60.5t61.5 -41t76 -15.5q39 0 75 15.5t63.5 41t43 61.5t15.5 77q0 39 -15.5 74.5t-42 62t-62.5 42t-77 15.5q-84 0 -139.5 -57t-55.5 -139z" />
<glyph unicode="&#xec;" horiz-adv-x="499" d="M-57 1487q0 -45 25.5 -83t68.5 -54l373 -146q27 -10 53 -10q59 0 103 44t44 103q0 43 -24.5 80t-65.5 54l-373 151q-23 10 -55 10q-61 0 -105 -43t-44 -106zM66 4l456 -2v889q0 45 -18.5 87t-49 73.5t-71.5 50t-88 18.5t-89 -17.5t-73 -48t-49 -71.5t-18 -90v-889z" />
<glyph unicode="&#xed;" horiz-adv-x="499" d="M-51 1339q0 -61 44 -105t105 -44q33 0 56 10l372 152q41 16 65.5 53t24.5 82q0 59 -44 103t-103 44q-27 0 -53 -10l-373 -147q-41 -16 -67.5 -54.5t-26.5 -83.5zM66 4l456 -2v889q0 45 -18.5 87t-49 73.5t-71.5 50t-88 18.5t-89 -17.5t-73 -48t-49 -71.5t-18 -90v-889z " />
<glyph unicode="&#xee;" horiz-adv-x="499" d="M-174 1339q0 -61 42 -106t105 -45q25 0 67 14.5t87 33.5t87 37.5t65 29.5q25 -10 65.5 -29t85.5 -37t87 -31.5t67 -13.5q59 0 103 43t44 102q0 47 -25.5 85t-68.5 55l-281 114q-18 8 -36.5 14.5t-38.5 6.5t-40 -6.5t-38 -14.5l-289 -116q-41 -16 -64.5 -53.5t-23.5 -82.5 zM66 4l456 -2v889q0 45 -18.5 87t-49 73.5t-71.5 50t-88 18.5t-89 -17.5t-73 -48t-49 -71.5t-18 -90v-889z" />
<glyph unicode="&#xef;" horiz-adv-x="499" d="M-129 1399q0 -84 54.5 -142.5t140.5 -58.5q82 0 138 56.5t56 138.5q0 39 -15.5 74.5t-41 62t-61.5 42t-76 15.5q-39 0 -74 -14t-61.5 -40t-43 -60.5t-16.5 -73.5zM66 4l456 -2v889q0 45 -18.5 87t-49 73.5t-71.5 50t-88 18.5t-89 -17.5t-73 -48t-49 -71.5t-18 -90v-889z M301 1391q0 -41 15.5 -76t42 -60.5t61.5 -41t76 -15.5q39 0 74.5 15.5t63.5 41t43 61.5t15 77q0 39 -15 74.5t-42 62t-62.5 42t-76.5 15.5q-84 0 -139.5 -57t-55.5 -139z" />
<glyph unicode="&#xf0;" />
<glyph unicode="&#xf1;" horiz-adv-x="1212" d="M59 0h455v635q0 47 34 81t81 34t80.5 -34t33.5 -81v-426q0 -49 18.5 -90t49.5 -72t73 -48t91 -17q47 0 88 18t71.5 50t49 73t18.5 88v524q0 92 -38 165t-101.5 123t-144 75.5t-166.5 25.5q-88 0 -165 -32.5t-128 -106.5q-14 63 -63.5 102t-114.5 39q-47 0 -88 -19.5 t-71 -51t-46.5 -74.5t-16.5 -88v-893zM217 1370q0 -53 34 -98t93 -45h555q59 0 100 41t41 100q0 57 -41 98t-98 41h-555q-55 0 -92 -42t-37 -95z" />
<glyph unicode="&#xf2;" horiz-adv-x="1230" d="M41 547q0 -125 49 -229.5t133 -180.5t193.5 -118t230.5 -42q123 0 232.5 43t192.5 120t132 182.5t49 230.5t-49 230.5t-132 182t-192.5 118.5t-232.5 42t-233.5 -43t-193.5 -120.5t-131 -184t-48 -231.5zM309 1487q0 -45 25.5 -83t68.5 -54l373 -146q27 -10 53 -10 q59 0 103.5 44t44.5 103q0 43 -24.5 80t-65.5 54l-373 151q-23 10 -55 10q-61 0 -105.5 -43t-44.5 -106zM487 549q0 35 11.5 67.5t32 58t50 41t66.5 15.5t66.5 -15.5t50 -41t32 -58t11.5 -67.5q0 -74 -39 -132.5t-121 -58.5q-39 0 -68.5 16.5t-50 43t-31 61.5t-10.5 70z" />
<glyph unicode="&#xf3;" horiz-adv-x="1230" d="M41 547q0 -125 49 -229.5t133 -180.5t193.5 -118t230.5 -42q123 0 232.5 43t192.5 120t132 182.5t49 230.5t-49 230.5t-132 182t-192.5 118.5t-232.5 42t-233.5 -43t-193.5 -120.5t-131 -184t-48 -231.5zM315 1339q0 -61 44 -105t106 -44q33 0 55 10l373 152 q41 16 65.5 53t24.5 82q0 59 -44 103t-103 44q-27 0 -54 -10l-372 -147q-41 -16 -68 -54.5t-27 -83.5zM487 549q0 35 11.5 67.5t32 58t50 41t66.5 15.5t66.5 -15.5t50 -41t32 -58t11.5 -67.5q0 -74 -39 -132.5t-121 -58.5q-39 0 -68.5 16.5t-50 43t-31 61.5t-10.5 70z" />
<glyph unicode="&#xf4;" horiz-adv-x="1230" d="M41 547q0 -125 49 -229.5t133 -180.5t193.5 -118t230.5 -42q123 0 232.5 43t192.5 120t132 182.5t49 230.5t-49 230.5t-132 182t-192.5 118.5t-232.5 42t-233.5 -43t-193.5 -120.5t-131 -184t-48 -231.5zM193 1339q0 -61 41.5 -106t105.5 -45q25 0 67 14.5t87 33.5 t87 37.5t64 29.5q25 -10 66 -29t86 -37t87 -31.5t66 -13.5q59 0 103.5 43t44.5 102q0 47 -25.5 85t-68.5 55l-281 114q-18 8 -37 14.5t-39 6.5t-39.5 -6.5t-38.5 -14.5l-288 -116q-41 -16 -64.5 -53.5t-23.5 -82.5zM487 549q0 35 11.5 67.5t32 58t50 41t66.5 15.5 t66.5 -15.5t50 -41t32 -58t11.5 -67.5q0 -74 -39 -132.5t-121 -58.5q-39 0 -68.5 16.5t-50 43t-31 61.5t-10.5 70z" />
<glyph unicode="&#xf5;" horiz-adv-x="1230" d="M41 547q0 -125 49 -229.5t133 -180.5t193.5 -118t230.5 -42q123 0 232.5 43t192.5 120t132 182.5t49 230.5t-49 230.5t-132 182t-192.5 118.5t-232.5 42t-233.5 -43t-193.5 -120.5t-131 -184t-48 -231.5zM233 1370q0 -53 34 -98t93 -45h555q59 0 100.5 41t41.5 100 q0 57 -41 98t-98 41h-556q-55 0 -92 -42t-37 -95zM487 549q0 35 11.5 67.5t32 58t50 41t66.5 15.5t66.5 -15.5t50 -41t32 -58t11.5 -67.5q0 -74 -39 -132.5t-121 -58.5q-39 0 -68.5 16.5t-50 43t-31 61.5t-10.5 70z" />
<glyph unicode="&#xf6;" horiz-adv-x="1230" d="M41 549q0 -125 49 -229.5t133 -180.5t193.5 -119t230.5 -43q123 0 232.5 43t192.5 120t132 182.5t49 230.5t-49 230.5t-132 182t-192.5 118.5t-232.5 42t-233.5 -43t-193.5 -119.5t-131 -183t-48 -231.5zM240 1356q0 -39 16 -74t43 -60.5t61.5 -41t73.5 -15.5 q41 0 77 15.5t62.5 42t42 61.5t15.5 76t-15.5 77t-42 62.5t-62.5 41.5t-75 15q-86 0 -141 -58t-55 -142zM487 545q0 37 11.5 69.5t32 59t50 42t68.5 15.5q37 0 66.5 -15.5t49 -42t31 -59t11.5 -65.5q0 -76 -40 -133.5t-122 -57.5q-37 0 -66.5 15.5t-50 42t-31 60.5t-10.5 69 zM664 1358q0 -41 16 -76t43 -60.5t62.5 -41t74.5 -15.5t75 15.5t63.5 41t43 61.5t15.5 77q0 39 -15.5 74.5t-42 63.5t-62.5 43t-77 15q-84 0 -140 -57t-56 -141z" />
<glyph unicode="&#xf7;" horiz-adv-x="1265" />
<glyph unicode="&#xf8;" horiz-adv-x="1230" d="M41 557q0 -106 39 -207.5t110 -179.5l-147 -143l66 -60l145 142q82 -66 180 -100t203 -34q123 0 233.5 42t195.5 118t134 182.5t49 233.5q0 104 -39 203.5t-108 177.5q8 8 34.5 31.5t54.5 51t49.5 51.5t21.5 34q0 16 -7.5 32.5t-29.5 16.5q-18 0 -45 -19.5t-53.5 -45 t-51.5 -52.5t-39 -41q-78 72 -175 105.5t-204 33.5q-123 0 -234.5 -41.5t-196.5 -116.5t-135 -180.5t-50 -234.5zM485 561q0 31 12.5 61.5t34 55t50 39t61.5 14.5q51 0 96 -33l-239 -225q-4 23 -9.5 44.5t-5.5 43.5zM547 395l244 230q12 -37 12 -82q0 -74 -39 -129.5 t-121 -55.5q-23 0 -51.5 10.5t-44.5 26.5z" />
<glyph unicode="&#xf9;" horiz-adv-x="1208" d="M59 498q0 -139 39 -237.5t113 -161t179.5 -92.5t238.5 -30q131 0 236.5 30t179 92.5t112.5 160.5t39 238v395q0 47 -18.5 89t-49 72.5t-72.5 48t-89 17.5t-89 -18.5t-73 -50t-49.5 -73.5t-18.5 -89v-389q0 -51 -27.5 -88t-82.5 -37t-83 37t-28 88v596l-457 2v-600z M289 1487q0 -45 25.5 -83t68.5 -54l373 -146q27 -10 53 -10q59 0 103 44t44 103q0 43 -24.5 80t-65.5 54l-372 151q-23 10 -56 10q-61 0 -105 -43t-44 -106z" />
<glyph unicode="&#xfa;" horiz-adv-x="1208" d="M59 498q0 -139 39 -237.5t113 -161t179.5 -92.5t238.5 -30q131 0 236.5 30t179 92.5t112.5 160.5t39 238v395q0 47 -18.5 89t-49 72.5t-72.5 48t-89 17.5t-89 -18.5t-73 -50t-49.5 -73.5t-18.5 -89v-389q0 -51 -27.5 -88t-82.5 -37t-83 37t-28 88v596l-457 2v-600z M295 1339q0 -61 44 -105t105 -44q33 0 56 10l372 152q41 16 66 53t25 82q0 59 -44.5 103t-103.5 44q-27 0 -53 -10l-373 -147q-41 -16 -67.5 -54.5t-26.5 -83.5z" />
<glyph unicode="&#xfb;" horiz-adv-x="1208" d="M59 498q0 -139 39 -237.5t113 -161t179.5 -92.5t238.5 -30q131 0 236.5 30t179 92.5t112.5 160.5t39 238v395q0 47 -18.5 89t-49 72.5t-72.5 48t-89 17.5t-89 -18.5t-73 -50t-49.5 -73.5t-18.5 -89v-389q0 -51 -27.5 -88t-82.5 -37t-83 37t-28 88v596l-457 2v-600z M172 1339q0 -61 42 -106t105 -45q25 0 67 14.5t87 33.5t87 37.5t65 29.5q25 -10 65.5 -29t85.5 -37t87 -31.5t67 -13.5q59 0 103 43t44 102q0 47 -25.5 85t-68.5 55l-281 114q-18 8 -36.5 14.5t-38.5 6.5t-40 -6.5t-38 -14.5l-289 -116q-41 -16 -64.5 -53.5t-23.5 -82.5z " />
<glyph unicode="&#xfc;" horiz-adv-x="1208" d="M59 498q0 -139 39 -237.5t113 -161t179.5 -92.5t238.5 -30q131 0 236.5 30t179 92.5t112.5 160.5t39 238v395q0 47 -18.5 89t-49 72.5t-72.5 48t-89 17.5t-89 -18.5t-73 -50t-49.5 -73.5t-18.5 -89v-389q0 -51 -27.5 -88t-82.5 -37t-83 37t-28 88v596l-457 2v-600z M217 1350q0 -39 16.5 -74t43 -60.5t61.5 -41t74 -15.5q82 0 139 56.5t57 138.5q0 39 -15 74.5t-42 62.5t-62.5 42t-74.5 15q-84 0 -140.5 -57t-56.5 -141zM647 1350q0 -41 16.5 -76t43 -60.5t62.5 -40t77 -14.5q39 0 74.5 15.5t61.5 42t41 62.5t15 75q0 41 -15 76.5 t-43 61.5t-63.5 41t-74.5 15q-84 0 -139.5 -58t-55.5 -140z" />
<glyph unicode="&#xfd;" />
<glyph unicode="&#xfe;" />
<glyph unicode="&#xff;" horiz-adv-x="1017" d="M-45 924l354 -813l-157 -342q-20 -43 -21 -97q0 -45 18.5 -81.5t49 -64.5t70.5 -43t83 -15q82 0 132.5 45t80.5 116l504 1170q23 51 23 104q0 45 -18.5 86t-50.5 69.5t-74 46t-87 17.5q-92 0 -140 -53t-75 -133l-104 -311l-189 479zM131 1399q0 -84 54.5 -142.5 t140.5 -58.5q82 0 138 56.5t56 138.5q0 39 -15.5 74.5t-41 62t-61 42t-76.5 15.5q-39 0 -74 -14t-61.5 -40t-43 -60.5t-16.5 -73.5zM561 1391q0 -41 15.5 -76t42 -60.5t61.5 -41t76 -15.5q39 0 74.5 15.5t63.5 41t43 61.5t15 77q0 39 -15 74.5t-42 62t-62.5 42t-76.5 15.5 q-84 0 -139.5 -57t-55.5 -139z" />
<glyph unicode="&#x152;" horiz-adv-x="2119" d="M41 733q0 -156 63.5 -295t170 -243.5t247 -166t295.5 -61.5q47 0 103.5 7.5t114 21.5t108.5 36.5t88 53.5v2q20 -53 44.5 -70.5t84.5 -17.5l612 -6q43 0 80 15.5t65.5 44t45 65.5t16.5 80t-16.5 79.5t-44 65.5t-64.5 45.5t-80 16.5h-356v118h280q41 0 78 16.5t64.5 44 t44 64.5t16.5 78q0 43 -15 81t-43 65.5t-64.5 44t-80.5 16.5h-282v125h471v416h-719q-57 0 -97 -19.5t-40 -85.5q-78 78 -183.5 107.5t-211.5 29.5q-39 0 -77 -3t-75 -7q-137 -18 -255 -89t-204 -175.5t-135 -234.5t-49 -265zM512 737q0 70 18.5 136.5t55.5 117.5t94 83 t135 32q76 0 136.5 -28.5t103.5 -78t65.5 -114t22.5 -137.5q0 -70 -19.5 -135.5t-58.5 -116t-97.5 -81t-133.5 -30.5q-78 0 -137.5 27.5t-100.5 76t-62.5 112.5t-21.5 136z" />
<glyph unicode="&#x153;" horiz-adv-x="1951" d="M43 553q0 -129 48 -234.5t130 -182.5t191.5 -119t234.5 -42q102 0 187.5 24t169.5 83q94 -59 190 -82t207 -23q39 0 96 4.5t115.5 10.5t114 15t92.5 22q-8 66 -17.5 129t-17.5 129l-8 63q-4 12 -4 23q-4 4 -3 4q-16 0 -38.5 -6t-38.5 -11q-59 -14 -120 -27.5t-120 -13.5 q-70 0 -124 27t-89 90h555q78 0 124 39t46 119q0 45 -11 87t-28 83q-35 88 -93 154.5t-132 111.5t-161 68.5t-179 23.5q-59 0 -103.5 -6t-83 -18.5t-77.5 -30.5t-88 -45q-90 49 -171 76.5t-186 27.5q-121 0 -230.5 -43t-193.5 -118.5t-134 -181t-50 -230.5zM487 549 q0 33 11.5 64.5t32 57t50 41t64.5 15.5q72 0 114 -52t42 -120q0 -35 -10.5 -68.5t-31 -59.5t-49 -41t-67.5 -15q-76 0 -116 55t-40 123zM1241 666q6 51 41 85.5t88 34.5q45 0 82 -36.5t35 -83.5h-246z" />
<glyph unicode="&#x178;" horiz-adv-x="1224" d="M-33 1200l453 -508v-471q0 -49 18.5 -93t50 -77t75.5 -52t93 -19t92.5 19t75 53t50 77t18.5 92v471l391 424q25 27 36 60.5t11 68.5q0 47 -18.5 92t-50 79t-74.5 54.5t-92 20.5q-63 0 -115.5 -35t-91.5 -82l-234 -282l-327 403zM246 1765q0 -84 54 -142t140 -58 q82 0 138.5 56t56.5 138q0 39 -15.5 75t-41 62.5t-61.5 42t-77 15.5q-39 0 -73.5 -14.5t-61 -40t-43 -60.5t-16.5 -74zM676 1757q0 -41 15.5 -75.5t42 -60.5t61 -41t75.5 -15q39 0 75 15t63.5 41t43 61.5t15.5 76.5q0 39 -15.5 75t-42 62.5t-62.5 42t-77 15.5 q-84 0 -139 -57.5t-55 -139.5z" />
<glyph unicode="&#x2c6;" horiz-adv-x="765" d="M-12 1339q0 -61 42 -106t105 -45q25 0 67 14.5t87 33.5t87 37.5t64 29.5q25 -10 66 -29t86 -37t87 -31.5t66 -13.5q59 0 103.5 43t44.5 102q0 47 -25.5 85t-68.5 55l-281 114q-18 8 -37 14.5t-39 6.5t-39.5 -6.5t-37.5 -14.5l-289 -116q-41 -16 -64.5 -53.5t-23.5 -82.5z " />
<glyph unicode="&#x2dc;" horiz-adv-x="741" d="M-4 1370q0 -53 33.5 -98t93.5 -45h555q59 0 100 41t41 100q0 57 -41 98t-98 41h-555q-55 0 -92 -42t-37 -95z" />
<glyph unicode="&#x2000;" horiz-adv-x="1001" />
<glyph unicode="&#x2001;" horiz-adv-x="2003" />
<glyph unicode="&#x2002;" horiz-adv-x="1001" />
<glyph unicode="&#x2003;" horiz-adv-x="2003" />
<glyph unicode="&#x2004;" horiz-adv-x="667" />
<glyph unicode="&#x2005;" horiz-adv-x="500" />
<glyph unicode="&#x2006;" horiz-adv-x="333" />
<glyph unicode="&#x2007;" horiz-adv-x="333" />
<glyph unicode="&#x2008;" horiz-adv-x="250" />
<glyph unicode="&#x2009;" horiz-adv-x="400" />
<glyph unicode="&#x200a;" horiz-adv-x="111" />
<glyph unicode="&#x2010;" horiz-adv-x="933" d="M49 606q0 -78 54.5 -130t132.5 -52h696l2 367h-698q-39 0 -73 -14.5t-59.5 -39t-40 -58.5t-14.5 -73z" />
<glyph unicode="&#x2011;" horiz-adv-x="933" d="M49 606q0 -78 54.5 -130t132.5 -52h696l2 367h-698q-39 0 -73 -14.5t-59.5 -39t-40 -58.5t-14.5 -73z" />
<glyph unicode="&#x2012;" horiz-adv-x="933" d="M49 606q0 -78 54.5 -130t132.5 -52h696l2 367h-698q-39 0 -73 -14.5t-59.5 -39t-40 -58.5t-14.5 -73z" />
<glyph unicode="&#x2013;" horiz-adv-x="1286" d="M133 735q0 -35 11.5 -67.5t31 -58t49 -42t66.5 -16.5h926v367h-926q-37 0 -66.5 -15.5t-49 -42t-31 -59.5t-11.5 -66z" />
<glyph unicode="&#x2014;" horiz-adv-x="1161" d="M63 516h1080l-2 418h-1078v-418z" />
<glyph unicode="&#x2018;" horiz-adv-x="591" d="M-66 844l388 -178l266 544q20 41 20 93q0 45 -17.5 84.5t-48 70.5t-70.5 48.5t-85 17.5q-66 0 -120 -35t-81 -94z" />
<glyph unicode="&#x2019;" horiz-adv-x="591" d="M-86 866q0 -47 17.5 -87t48 -70.5t71.5 -48t86 -17.5q66 0 118 36t81 95l252 551l-387 178l-267 -545q-20 -41 -20 -92z" />
<glyph unicode="&#x201a;" horiz-adv-x="530" d="M-61 -162q0 -88 58 -150.5t148 -62.5q61 0 116.5 35t82.5 92l254 551l-401 184l-240 -557q-18 -43 -18 -92z" />
<glyph unicode="&#x201c;" horiz-adv-x="1091" d="M-20 872l387 -178l233 516q20 47 21 93q0 45 -17.5 86t-48.5 70.5t-72 47t-86 17.5q-66 0 -120 -35t-78 -94zM551 872l387 -178l231 516q20 47 21 95q0 45 -17.5 86t-47 69.5t-70.5 46t-86 17.5q-66 0 -120 -35t-79 -94z" />
<glyph unicode="&#x201d;" horiz-adv-x="1091" d="M-41 893q0 -47 17.5 -87t47 -69.5t69.5 -47t87 -17.5q66 0 120 35.5t79 95.5l219 522l-387 178l-231 -516q-20 -43 -21 -94zM528 895q0 -47 17.5 -87t48.5 -70.5t71 -48t87 -17.5q66 0 120 35.5t78 95.5l219 522l-387 178l-233 -516q-20 -47 -21 -92z" />
<glyph unicode="&#x201e;" horiz-adv-x="1021" d="M-61 -162q0 -88 58 -150.5t148 -62.5q61 0 116.5 35t82.5 92l272 582l-401 184l-258 -588q-18 -43 -18 -92zM508 -162q0 -43 16.5 -82t44 -67.5t65.5 -46t83 -17.5q61 0 116.5 36t81.5 91l271 582l-400 184l-258 -588q-20 -47 -20 -92z" />
<glyph unicode="&#x2022;" horiz-adv-x="718" d="M59 737q0 -61 23.5 -114.5t63.5 -93.5t93.5 -63.5t114.5 -23.5t114.5 23.5t93.5 63.5t63.5 93.5t23.5 114.5t-23.5 114.5t-63.5 93.5t-93 63.5t-115 23.5q-61 0 -114.5 -23.5t-93.5 -63.5t-63.5 -93.5t-23.5 -114.5z" />
<glyph unicode="&#x2026;" horiz-adv-x="1636" d="M74 193q0 -47 17.5 -87t47 -70t69.5 -47.5t87 -17.5q45 0 86 17.5t70.5 47.5t47 69.5t17.5 87.5q0 45 -17.5 84.5t-48 70.5t-70.5 48.5t-85 17.5t-85 -17.5t-70.5 -48.5t-48 -70.5t-17.5 -84.5zM664 193q0 -47 17 -87t47 -70t70 -47.5t87 -17.5q45 0 86 17.5t70.5 47.5 t47 69.5t17.5 87.5q0 45 -17.5 84.5t-48 70.5t-70.5 48.5t-85 17.5t-85 -17.5t-71 -48.5t-48 -70.5t-17 -84.5zM1253 193q0 -47 17.5 -87t47.5 -70t69.5 -47.5t87.5 -17.5q45 0 86 17.5t70.5 47.5t47 69.5t17.5 87.5q0 45 -17.5 84.5t-48.5 70.5t-70.5 48.5t-84.5 17.5 t-85 -17.5t-71 -48.5t-48.5 -70.5t-17.5 -84.5z" />
<glyph unicode="&#x202f;" horiz-adv-x="400" />
<glyph unicode="&#x2039;" horiz-adv-x="651" d="M57 414l262 -291q29 -33 68 -53.5t82 -20.5q37 0 69.5 14.5t56 39t38 56t14.5 68.5q0 41 -16.5 77t-44.5 65l-170 178l172 172q29 29 46 65.5t17 77.5q0 33 -13 64.5t-36.5 56.5t-54.5 39t-66 14q-47 0 -89 -24.5t-75 -59.5l-258 -270z" />
<glyph unicode="&#x203a;" horiz-adv-x="651" d="M47 225q0 -35 14.5 -66.5t39 -56t56 -39t66.5 -14.5q47 0 88 24.5t70 61.5l217 273l2 268l-221 289q-27 35 -66 54t-82 19q-37 0 -69.5 -14t-57 -37.5t-39 -56.5t-14.5 -70q0 -41 16.5 -75.5t45.5 -63.5l170 -178l-172 -174q-29 -29 -46.5 -66t-17.5 -78z" />
<glyph unicode="&#x205f;" horiz-adv-x="500" />
<glyph unicode="&#x2122;" horiz-adv-x="1527" d="M45 1401q0 -37 21.5 -53.5t51 -20.5t62.5 -2t56 2v-545h159v545q23 0 55.5 -2t62.5 2t51.5 20.5t21.5 53.5q0 31 -21.5 52.5t-52.5 21.5h-393q-31 0 -52.5 -21.5t-21.5 -52.5zM541 801l159 -21l66 437l131 -449h170l131 449l66 -437l159 21l-100 598q-6 39 -38 61.5 t-68 22.5q-80 0 -107 -82l-129 -424l-127 424q-10 35 -36.5 58.5t-65.5 23.5t-72 -21.5t-39 -62.5z" />
<glyph unicode="&#x25fc;" horiz-adv-x="1136" d="M0 0v1137h1137v-1137h-1137z" />
</font>
</defs>
</svg>
